SplineFontDB: 3.0
FontName: NeutonCursive-Regular
FullName: Neuton Cursive
FamilyName: Neuton Cursive
Weight: Book
Copyright: Copyright (c) 2010, 2011 Brian M Zick (http://21326.info/), \nwith Reserved Font Name 'Neuton Cursive'.\n\nThis Font Software is licensed under the SIL Open Font License, Version 1.1.\nThis license is available with a FAQ at: http://scripts.sil.org/OFL\n   WITHOUT WARRANTIES OR CONDITIONS OF ANY KIND, either express or implied.\n   See the License for the specific language governing permissions and\n   limitations under the License.
Version: 1.46
ItalicAngle: 0
UnderlinePosition: -361
UnderlineWidth: 0
Ascent: 1638
Descent: 410
LayerCount: 2
Layer: 0 0 "Back"  1
Layer: 1 0 "Fore"  0
XUID: [1021 467 2011608612 8622985]
FSType: 1
OS2Version: 1
OS2_WeightWidthSlopeOnly: 0
OS2_UseTypoMetrics: 0
CreationTime: 1300472668
ModificationTime: 1336526213
PfmFamily: 17
TTFWeight: 500
TTFWidth: 5
LineGap: 0
VLineGap: 0
OS2TypoAscent: 2106
OS2TypoAOffset: 0
OS2TypoDescent: -485
OS2TypoDOffset: 0
OS2TypoLinegap: 0
OS2WinAscent: 2106
OS2WinAOffset: 0
OS2WinDescent: 485
OS2WinDOffset: 0
HheadAscent: 2106
HheadAOffset: 0
HheadDescent: -485
HheadDOffset: 0
OS2SubXSize: 1095
OS2SubYSize: 1179
OS2SubXOff: 0
OS2SubYOff: 235
OS2SupXSize: 1095
OS2SupYSize: 1179
OS2SupXOff: 0
OS2SupYOff: 809
OS2StrikeYSize: 84
OS2StrikeYPos: 436
OS2Vendor: 'PfEd'
OS2CodePages: 20000093.00000000
OS2UnicodeRanges: a00000ef.0000204a.00000000.00000000
Lookup: 1 0 0 "'onum' Oldstyle Figures lookup 1"  {"'onum' Oldstyle Figures lookup 1-1" ("osf" ) } ['onum' ('DFLT' <'dflt' > 'hebr' <'dflt' > 'latn' <'dflt' > ) ]
MarkAttachClasses: 1
DEI: 91125
ShortTable: maxp 16
  1
  0
  367
  132
  7
  0
  0
  2
  0
  1
  1
  0
  64
  0
  0
  0
EndShort

StartChar: exclam
Encoding: 2 33 1
Width: 391
VWidth: 1655
GlyphClass: 2
Flags: HMW
LayerCount: 2
Fore
SplineSet
84 1257 m 1
 115 1279 151 1290 192 1290 c 128
 233 1290 267 1278 293 1254 c 128
 319 1230 335 1196 343 1152 c 1
 347 1136 349 1114 348 1085 c 0
 346 1000 329 872 294 699 c 5
 219 338 l 1
 148 325 l 1
 160 495 l 2
 165 561 167 666 167 811 c 2
 167 874 l 1
 162 1022 135 1150 84 1257 c 1
213 206 m 128
 225 200 235 192 245 178 c 128
 255 164 260 154 263 143 c 128
 266 132 267 125 267 120 c 128
 267 115 265 100 259 73 c 128
 253 46 239 22 216 -1 c 128
 193 -24 166 -35 136 -35 c 1
 109 -33 89 -24 73 -8 c 128
 57 8 49 24 46 42 c 128
 43 60 42 68 42 71 c 128
 42 74 44 86 49 108 c 128
 54 130 66 153 89 176 c 128
 112 199 135 211 159 212 c 128
 183 213 201 212 213 206 c 128
EndSplineSet
Colour: ffffff
EndChar

StartChar: quotedbl
Encoding: 3 34 2
Width: 492
VWidth: 1655
GlyphClass: 2
Flags: HMW
LayerCount: 2
Fore
SplineSet
53 1308 m 1
 59 1310 77 1311 111 1310 c 128
 145 1309 187 1304 236 1292 c 1
 151 906 l 1
 128 898 103 894 76 895 c 2
 55 895 l 1
 53 1308 l 1
262 1308 m 1
 268 1310 287 1311 321 1310 c 128
 355 1309 396 1304 445 1292 c 1
 360 906 l 1
 337 898 312 894 285 895 c 2
 265 895 l 1
 262 1308 l 1
EndSplineSet
Colour: ffffff
EndChar

StartChar: numbersign
Encoding: 4 35 3
Width: 945
VWidth: 1655
GlyphClass: 2
Flags: HMW
LayerCount: 2
Fore
SplineSet
309 355 m 1
 258 174 l 1
 153 167 l 1
 208 355 l 1
 42 355 l 1
 83 455 l 1
 241 455 l 1
 304 662 l 1
 146 662 l 1
 185 760 l 1
 337 760 l 1
 394 931 l 1
 495 941 l 1
 438 760 l 1
 638 760 l 1
 692 931 l 1
 795 940 l 1
 738 760 l 1
 903 760 l 1
 864 662 l 1
 706 662 l 1
 644 455 l 1
 800 455 l 1
 761 355 l 1
 609 355 l 1
 558 174 l 1
 453 167 l 1
 509 355 l 1
 309 355 l 1
342 455 m 1
 541 455 l 1
 606 662 l 1
 405 662 l 1
 342 455 l 1
EndSplineSet
Colour: ffffff
EndChar

StartChar: dollar
Encoding: 5 36 4
Width: 927
VWidth: 1655
GlyphClass: 2
Flags: HMW
LayerCount: 2
Fore
SplineSet
570 1184 m 1
 566 1184 l 2
 521 1184 481 1168 443 1138 c 128
 405 1108 385 1067 381 1016 c 1
 381 1003 l 2
 381 945 401 894 441 850 c 1
 457 833 478 813 504 788 c 1
 570 1184 l 1
450 80 m 1
 491 83 529 94 562 116 c 0
 616 151 643 200 643 262 c 128
 643 324 621 378 578 423 c 1
 564 440 544 458 518 479 c 1
 450 80 l 1
267 401 m 1
 247 346 237 297 239 256 c 0
 239 193 271.154 146 334 113 c 1
 348 104 365 96 387 88 c 1
 461 525 l 1
 380 591 317 650 274 702 c 1
 218 773 190 841 190 906 c 2
 190 928 l 1
 194 966 205 1004 225 1043 c 1
 259 1108 305 1161 364 1200 c 128
 423 1239 485 1263 552 1273 c 1
 577 1417 l 1
 710 1426 l 1
 685 1271 l 1
 766 1256 833 1225 887 1178 c 1
 822 832 l 1
 734 851 l 1
 727 1101 l 1
 704 1134 673 1157 634 1171 c 1
 561 741 l 1
 648 668 702 621 725 600 c 0
 794 532 833 457 844 376 c 0
 846 371 846 362 845 346 c 0
 845 261 814 185 751 120 c 1
 700 66 635 26 556 0 c 0
 527 -10 497 -15 466 -19 c 1
 443 -157 l 1
 314 -167 l 1
 339 -19 l 1
 266 -11 202 12 145 49 c 0
 115 70 91 94 73 123 c 128
 55 152 45 180 42 207 c 1
 40 211 40 218 40 232 c 128
 40 246 42 264 48 286 c 1
 66 339 100 375 152 395 c 1
 175 406 199 411 225 411 c 128
 240.167 411 254.75 408 267 401 c 1
EndSplineSet
Colour: ffffff
EndChar

StartChar: percent
Encoding: 6 37 5
Width: 1113
VWidth: 1655
GlyphClass: 2
Flags: HMW
LayerCount: 2
Fore
SplineSet
884 962 m 1
 1020 971 l 1
 211 -23 l 1
 69 -31 l 1
 884 962 l 1
529 770 m 0
 529 768 529 754 527 727 c 1
 517 649 488 587 438 541 c 128
 388 495 327 471 256 471 c 128
 185 471 131 491 96 530 c 128
 61 569 43 621 43 686 c 0
 43 769 71 838 127 893 c 128
 183 948 246 975 318 975 c 128
 390 975 444 957 478 920 c 128
 512 883 529 833 529 770 c 0
299 883 m 0
 206 883 160 821 161 699 c 0
 161 608 198 563 272 562 c 0
 354 562 400 619 412 733 c 0
 414 745 414 752 414 754 c 0
 414 794 405 825 384 848 c 128
 363 871 335 883 299 883 c 0
1071 274 m 0
 1071 270 1070 257 1067 233 c 1
 1058 156 1029 94 978 47 c 128
 927 0 866 -24 795 -24 c 128
 724 -24 671 -3 636 37 c 128
 601 77 583 128 583 191 c 0
 583 272 612 339 671 394 c 128
 730 449 795 476 865 476 c 128
 935 476 987 458 1021 421 c 128
 1055 384 1071 335 1071 274 c 0
701 202 m 0
 701 113 738 68 813 68 c 0
 894 68 940 119 952 220 c 0
 954 226 954 236 954 254 c 0
 954 295 944 327 923 350 c 128
 902 373 875 385 839 385 c 0
 760 385 715 337 703 240 c 0
 701 234 701 222 701 202 c 0
EndSplineSet
Colour: ffffff
EndChar

StartChar: ampersand
Encoding: 7 38 6
Width: 1180
VWidth: 1655
GlyphClass: 2
Flags: HMWO
LayerCount: 2
Back
SplineSet
1073 268 m 1
 1231 299.554 1437 425.77 1437 655 c 128
 1437 840.51 1291 963.84 1086 946 c 1
 940 -130 l 5
 1198 -162 l 5
 1174 -246 l 5
 719 -246 l 5
 753 -114 l 5
 878 870 l 1
 662 893 l 1
 678 962 l 1
 871.495 1011.1 1056.15 1035.29 1230 1036 c 0
 1473.76 1036 1641 939.6 1641 717 c 0
 1641 458 1351 246 1089 195 c 1
 1073 268 l 1
EndSplineSet
Fore
SplineSet
262 872 m 0
 262 1050.9 428.162 1220 638 1220 c 128
 788.836 1220 896 1126.06 896 985 c 0
 896 765.648 693 644.547 542 576 c 1
 560.489 550.527 512 644 512 644 c 17
 606 692.571 713 776.357 713 933 c 128
 713 1062.33 648.982 1127 569 1127 c 128
 487.474 1127 435 1046.18 435 971 c 0
 435 842.781 472 778 553 645 c 2
 860.457 141 l 2
 899.243 69.1885 938 0 938 -79 c 0
 938 -272.492 681.194 -363 519 -301 c 1
 512 -265 l 1
 629.073 -243.917 747 -212.549 747 -112 c 0
 747 -56 733.668 -35.1377 683.289 61 c 2
 367.611 585 l 2
 294 707 262 798.101 262 872 c 0
818 627 m 1
 837 666 892.425 711 954 711 c 0
 1057.7 711 1136.83 625.826 1136.83 468.729 c 4
 1136.83 165.604 776.835 -49.8677 425.012 -49.8677 c 0
 224.727 -49.8677 38.543 26.2349 38.543 249.363 c 0
 38.543 429.722 202.209 528.407 369.461 602.428 c 1
 369.568 595.326 391 541 391 541 c 1
 274.509 467.479 254 396.879 254 309 c 0
 254 143.7 388.09 60 549 60 c 0
 767.51 60 953 149.811 953 400 c 0
 953 492.347 908.219 586.794 818 627 c 1
EndSplineSet
Colour: ffffff
EndChar

StartChar: quotesingle
Encoding: 8 39 7
Width: 283
VWidth: 1655
GlyphClass: 2
Flags: HMW
LayerCount: 2
Fore
SplineSet
53 1308 m 5
 59 1310 77 1311 111 1310 c 128
 145 1309 187 1304 236 1292 c 1
 151 906 l 1
 128 898 103 894 76 895 c 2
 55 895 l 1
 53 1308 l 5
EndSplineSet
Colour: ffffff
EndChar

StartChar: parenleft
Encoding: 9 40 8
Width: 576
VWidth: 1655
GlyphClass: 2
Flags: HMW
LayerCount: 2
Fore
SplineSet
285 -378 m 1
 124 -195 43 27 42 287 c 0
 42 338 46 402 55 477 c 128
 64 552 83 635 113 724 c 128
 143 813 175 885 207 940 c 128
 239 995 277 1047 320 1098 c 128
 363 1149 398 1187 427 1212 c 128
 456 1237 477 1254 492 1266 c 1
 534 1199 l 1
 373 1020 273 774 234 460 c 0
 226 401 223 341 222 282 c 1
 224 72 271 -129 362 -320 c 1
 285 -378 l 1
EndSplineSet
Colour: ffffff
EndChar

StartChar: parenright
Encoding: 10 41 9
Width: 594
VWidth: 1655
GlyphClass: 2
Flags: HMW
LayerCount: 2
Fore
SplineSet
42 -320 m 1
 265 -16 376 319 377 685 c 0
 377 886 333 1057 245 1199 c 1
 303 1266 l 1
 469 1111 552 897 551 621 c 0
 551 467 525 317 474 170 c 0
 443 84 412 12 380 -45 c 128
 348 -102 313 -152 276 -197 c 128
 239 -242 211 -276 191 -298 c 0
 167 -325 138 -351 104 -378 c 1
 42 -320 l 1
EndSplineSet
Colour: ffffff
EndChar

StartChar: asterisk
Encoding: 11 42 10
Width: 801
VWidth: 0
GlyphClass: 2
Flags: HMW
LayerCount: 2
Fore
SplineSet
329 1292 m 1
 465 1279 l 1
 439 988 l 1
 728 1119 l 1
 757 989 l 1
 472 921 l 1
 691 692 l 1
 573 623 l 1
 420 870 l 1
 265 593 l 1
 163 685 l 1
 356 904 l 1
 44 964 l 1
 99 1091 l 1
 366 977 l 1
 329 1292 l 1
EndSplineSet
Colour: ffffff
EndChar

StartChar: plus
Encoding: 12 43 11
Width: 658
VWidth: 1655
GlyphClass: 2
Flags: HMW
LayerCount: 2
Fore
SplineSet
378 413 m 1
 350 174 l 1
 241 186 l 1
 269 413 l 1
 45 413 l 1
 70 514 l 1
 279 514 l 1
 309 747 l 1
 415 734 l 1
 390 514 l 1
 613 514 l 1
 587 413 l 1
 378 413 l 1
EndSplineSet
Colour: ffffff
EndChar

StartChar: comma
Encoding: 13 44 12
Width: 428
VWidth: 1655
GlyphClass: 2
Flags: HMW
LayerCount: 2
Fore
SplineSet
237 227 m 2
 252 227 l 1
 304 221 341 188 363 127 c 0
 373 103 377 80 378 57 c 0
 378 -44 328 -132 229 -209 c 1
 185 -245 135 -276 80 -303 c 1
 48 -251 l 1
 107 -220 149 -187 174 -149 c 128
 199 -111 211 -74 211 -39 c 0
 211 -37 209 -26 205 -4 c 128
 201 18 190 42 170 64 c 128
 150 86 128 103 103 116 c 1
 113 152 130 179 157 198 c 128
 184 217 210 227 237 227 c 2
EndSplineSet
Colour: ffffff
EndChar

StartChar: hyphen
Encoding: 14 45 13
Width: 510
VWidth: 1655
GlyphClass: 2
Flags: HMW
LayerCount: 2
Fore
SplineSet
60 489 m 1
 460 507 l 1
 448 408 l 1
 49 390 l 1
 60 489 l 1
EndSplineSet
Colour: ffffff
EndChar

StartChar: period
Encoding: 15 46 14
Width: 324
VWidth: 1655
GlyphClass: 2
Flags: HMW
LayerCount: 2
Fore
SplineSet
220 206 m 128
 232 200 242 192 252 178 c 128
 262 164 267 154 270 143 c 128
 273 132 274 125 274 120 c 128
 274 115 272 100 266 73 c 128
 260 46 246 22 223 -1 c 128
 200 -24 173 -35 143 -35 c 1
 116 -33 96 -24 80 -8 c 128
 64 8 56 24 53 42 c 128
 50 60 49 68 49 71 c 128
 49 74 51 86 56 108 c 128
 61 130 73 153 96 176 c 128
 119 199 142 211 166 212 c 128
 190 213 208 212 220 206 c 128
EndSplineSet
Colour: ffffff
EndChar

StartChar: slash
Encoding: 16 47 15
Width: 684
VWidth: 1655
GlyphClass: 2
Flags: HMW
LayerCount: 2
Fore
SplineSet
508 1245 m 1
 642 1252 l 1
 173 -357 l 1
 42 -367 l 1
 508 1245 l 1
EndSplineSet
Colour: ffffff
EndChar

StartChar: zero
Encoding: 17 48 16
Width: 923
VWidth: 1655
GlyphClass: 2
Flags: HMW
LayerCount: 2
Fore
SplineSet
523 1158 m 1
 588 1154 645 1133 694 1092 c 128
 743 1051 784 997 815 931 c 0
 858 840 880 736 880 618 c 0
 880 611 879 586 876 543 c 1
 864 402 825 282 756 181 c 0
 718 126 674 81 625 45 c 128
 576 9 532 -11 492 -16 c 128
 452 -21 432 -23 428 -23 c 0
 365 -23 305 -5 249 30 c 128
 193 65 147 119 112 191 c 128
 77 263 56 345 48 437 c 1
 44 466 43 503 43 548 c 128
 43 593 49 644 63 702 c 0
 90 818 141 921 218 1011 c 1
 263 1063 309 1100 355 1123 c 128
 401 1146 451 1158 506 1158 c 2
 523 1158 l 1
232 864 m 1
 212 801 202 731 203 653 c 0
 203 509 235 375 298 251 c 1
 350 151 417 101 498 101 c 0
 560 101 607 125 640 173 c 0
 661 204 680 252 697 317 c 128
 714 382 721 448 721 517 c 0
 721 624 698 728 654 829 c 128
 610 930 555 995 488 1022 c 1
 464 1031 447 1035 436 1036 c 128
 425 1037 410 1035 390 1032 c 1
 312 1015 259 959 232 864 c 1
EndSplineSet
Substitution2: "'onum' Oldstyle Figures lookup 1-1" zero.osf
Colour: ffffff
EndChar

StartChar: one
Encoding: 18 49 17
Width: 601
VWidth: 1655
GlyphClass: 2
Flags: HMW
LayerCount: 2
Fore
SplineSet
239 -14 m 1
 250 63 329.634 578.883 361.326 750 c 2
 418 1056 l 1
 408 1056 l 1
 364.871 932.13 315.247 835 182 835 c 128
 110.934 835 61.9704 902.234 76 979 c 1
 221.021 988.401 346.457 1055.61 432 1138 c 1
 558 1154 l 1
 487.292 576 l 2
 458 336 441.119 109.998 439 21 c 1
 239 -14 l 1
EndSplineSet
Substitution2: "'onum' Oldstyle Figures lookup 1-1" one.osf
Colour: ffffff
EndChar

StartChar: two
Encoding: 19 50 18
Width: 921
VWidth: 1655
GlyphClass: 2
Flags: HMW
LayerCount: 2
Back
SplineSet
8 1258 m 5
 931 1228 l 5
 922 1151 l 5
 76 94 l 5
 286 103 l 5
 437 112 559 123 652 139 c 5
 698 212 738 362 754 453 c 5
 845 440 l 5
 845 428 845 418 847 409 c 5
 847 237.907 831.68 99.0441 807 -10 c 5
 144 0 l 5
 60 0 l 5
 -146 -20 l 5
 -161 73 l 5
 703 1152 l 5
 169 1135 l 5
 94 884 l 5
 -8 910 l 5
 8 1258 l 5
EndSplineSet
Fore
SplineSet
415 684 m 1
 384 646 350 627 313 627 c 0
 205.746 627 147 698.849 147 822 c 128
 147 1005.06 359.136 1173.09 556 1178 c 1
 757.569 1178 877.091 1041.59 879 845 c 1
 879 537 500 279 277 133 c 1
 277 123 l 1
 676 129 l 1
 704.336 151.991 760.393 295.454 773 343 c 1
 857 337 l 1
 854 254.096 839 52.2 820 -19 c 1
 235 5 l 9
 62 -5 l 1
 53 101 l 1
 449 321 685 489 685 797 c 0
 685 948.591 612.378 1086 461 1086 c 128
 368.999 1086 299 988.888 299 905 c 0
 299 817 338 743 415 684 c 1
EndSplineSet
Substitution2: "'onum' Oldstyle Figures lookup 1-1" two.osf
Colour: ffffff
EndChar

StartChar: three
Encoding: 20 51 19
Width: 854
VWidth: 1655
GlyphClass: 2
Flags: HMW
LayerCount: 2
Fore
SplineSet
347 589 m 1
 472.578 651.167 638 735.159 638 915 c 0
 638 1023.03 582.954 1099 486 1099 c 128
 400.754 1099 332 1049.26 332 969 c 128
 332 892.109 368 848 406 815 c 1
 388.064 781.121 356.479 757 313 757 c 1
 311 755 310 755 306 755 c 0
 237.663 755 185 817.086 185 888 c 0
 185 1059.7 398.426 1179 568 1179 c 0
 720.659 1179 811 1105.01 811 961 c 128
 811 779.168 648 676 546 625 c 1
 546 621 l 1
 679.569 621 798 522.215 798 372 c 0
 798 122.151 552.198 -28 311 -28 c 128
 176.374 -28 44.1055 44.8994 42 167 c 1
 42 272.75 125.88 333.335 222 332 c 1
 190.728 188.148 260.177 63 391 63 c 0
 511.542 63 615.729 142.825 615.729 280.936 c 0
 615.729 456.528 477.643 553.707 341 530 c 1
 347 589 l 1
EndSplineSet
Substitution2: "'onum' Oldstyle Figures lookup 1-1" three.osf
Colour: ffffff
EndChar

StartChar: four
Encoding: 21 52 20
Width: 917
VWidth: 1655
GlyphClass: 2
Flags: HMW
LayerCount: 2
Fore
SplineSet
367 532 m 2
 187 333 l 1
 533 340 l 1
 554 585 l 1
 724 702 l 1
 680 345 l 1
 875 349 l 1
 842 213 l 1
 671 221 l 1
 652 4 l 1
 494 -22 l 1
 525 226 l 1
 57 247 l 1
 42 303 l 1
 221 510 l 2
 376.199 689.476 596 966 596 1204 c 1
 691.24 1221.04 760 1161.1 760 1076 c 128
 760 929.946 525.208 706.908 367 532 c 2
EndSplineSet
Substitution2: "'onum' Oldstyle Figures lookup 1-1" four.osf
Colour: ffffff
EndChar

StartChar: five
Encoding: 22 53 21
Width: 885
VWidth: 1655
GlyphClass: 2
Flags: HMW
LayerCount: 2
Fore
SplineSet
843 1092 m 1
 834 998 767 951 642 951 c 0
 585 951 527 954 470 962 c 0
 413 970 382 973 377 973 c 1
 324 750 l 1
 332 747 l 1
 338 747 341 747 345 748 c 1
 361 748 l 2
 477 748 574 712 652 641 c 1
 728 567 766 480 767 380 c 0
 767 281 735 192 672 114 c 0
 625 57 566 17 494 -5 c 1
 447 -23 403 -31 364 -31 c 128
 325 -31 304 -31 298 -30 c 1
 236 -26 182 -11 137 18 c 1
 74 57 43 112 42 184 c 0
 42 188 43 198 46 216 c 1
 54 247 69 277 93 303 c 128
 117 329 149 343 189 346 c 1
 191 336 195 310 205 269 c 1
 238 161 297 99 383 81 c 1
 406 79 418 78 420 78 c 0
 460 78 497 89 533 111 c 128
 569 133 591 160 600 193 c 128
 609 226 613 250 613 267 c 128
 613 284 613 298 611 311 c 128
 609 324 602 348 587 383 c 1
 564 441 530 488 485 524 c 128
 440 560 389 582 332 592 c 1
 299 599 266 602 233 602 c 1
 210 620 l 1
 345 1115 l 1
 361 1113 397 1113 452 1113 c 0
 603 1113 730 1129 833 1160 c 1
 840 1140 843 1121 843 1104 c 2
 843 1092 l 1
EndSplineSet
Substitution2: "'onum' Oldstyle Figures lookup 1-1" five.osf
Colour: ffffff
EndChar

StartChar: six
Encoding: 23 54 22
Width: 848
VWidth: 1655
GlyphClass: 2
Flags: HMW
LayerCount: 2
Fore
SplineSet
397 70 m 0
 531 70 576 218 576 367 c 0
 576 503 527 601 393 601 c 0
 322 601 246 576 219 534 c 1
 197 334 229 70 397 70 c 0
100 675 m 0
 178 883 364 1164 631 1164 c 0
 728 1164 805 1110 805 1015 c 0
 805 955 765 912 711 893 c 1
 676 957 602 1019 528 1019 c 0
 325.148 1019 246.087 825 218 604 c 1
 228 604 l 1
 282.33 670.412 372.495 717 480 717 c 0
 652 717 751 596 751 427 c 0
 751 195 566 -14 352 -16 c 1
 164 -16 46 134 43 344 c 1
 43 471 63 574 100 675 c 0
EndSplineSet
Substitution2: "'onum' Oldstyle Figures lookup 1-1" six.osf
Colour: ffffff
EndChar

StartChar: seven
Encoding: 24 55 23
Width: 854
VWidth: 1655
GlyphClass: 2
Flags: HMW
LayerCount: 2
Back
SplineSet
58 1158 m 5
 981 1128 l 5
 972 1051 l 5
 126 -6 l 5
 336 3 l 5
 487 12 609 23 702 39 c 5
 748 112 788 262 804 353 c 5
 895 340 l 5
 895 328 895 318 897 309 c 5
 897 137.907 881.68 -0.955911 857 -110 c 5
 194 -100 l 5
 110 -100 l 5
 -96 -120 l 5
 -111 -27 l 5
 753 1052 l 5
 219 1035 l 5
 144 784 l 5
 42 810 l 5
 58 1158 l 5
EndSplineSet
Fore
SplineSet
445 537 m 0
 406 454 387 369 387 282 c 128
 387 195 418 117 480 49 c 1
 450.991 11.9332 406.438 -6.30396 360.978 -6.30396 c 0
 254.608 -6.30396 190.053 82.5062 190.053 197.634 c 0
 190.053 375 324.995 569.841 455 738 c 2
 675 1022 l 1
 526.38 1016.88 292.343 1011.87 183 990 c 1
 127 830 l 1
 42 841 l 1
 66 1144 l 1
 82.9143 1145.64 143.171 1148.09 251 1153 c 128
 480.714 1166.51 648.096 1155.98 866 1148 c 1
 863 1090 l 1
 629 812 l 2
 545 711 484 619 445 537 c 0
EndSplineSet
Substitution2: "'onum' Oldstyle Figures lookup 1-1" seven.osf
Colour: ffffff
EndChar

StartChar: eight
Encoding: 25 56 24
Width: 784
VWidth: 1655
GlyphClass: 2
Flags: HMW
LayerCount: 2
Fore
SplineSet
490 596 m 1
 567.944 658.725 606.278 747.004 605 862 c 1
 605 982.837 550.474 1090 423 1090 c 0
 288.978 1090 256.508 1014.49 255 931 c 0
 266.062 795.714 397.637 677.093 490 596 c 1
473.776 1173.68 m 0
 636.715 1173.68 766 1065.75 766 901 c 0
 766 743.57 643.349 616.071 536 551 c 1
 630.402 470.54 711 399.436 711 274 c 0
 711 82.5315 514.522 -26 312 -26 c 0
 149.078 -26 6 65.2791 6 236 c 0
 6 389.861 159.391 495.853 267 570 c 1
 157.386 672.427 99.6387 732.768 99.6387 867.336 c 0
 99.6387 1049.44 297.471 1173.68 473.776 1173.68 c 0
310 528 m 1
 219.103 446.599 179 375.758 179 289 c 0
 179 171.696 253.533 61 385 61 c 0
 477.182 61 546.346 119.868 546.346 225.212 c 0
 546.346 349.767 394.192 459.975 310 528 c 1
EndSplineSet
Substitution2: "'onum' Oldstyle Figures lookup 1-1" eight.osf
Colour: ffffff
EndChar

StartChar: nine
Encoding: 26 57 25
Width: 791
VWidth: 1655
GlyphClass: 2
Flags: HMW
LayerCount: 2
Fore
SplineSet
383 1090 m 0
 280 1090 213 980.818 213 804 c 0
 213 659.184 266 555 394 555 c 0
 475.053 555 560.316 593 594 636 c 1
 594 842 563.557 1090 383 1090 c 0
758 739 m 0
 758 345 559.176 -14 238 -14 c 0
 104.835 -14 22 36.8623 22 123 c 0
 22 180.267 60 222.756 105 244 c 1
 141 196.273 219 139 312 139 c 0
 521.498 139 590 264 601 557 c 1
 590 557 l 1
 528.633 480.913 436.044 432 323 432 c 128
 158.386 432 62 543 62 726 c 0
 62 949 205 1180 435 1180 c 0
 674.412 1180 758 978 758 739 c 0
EndSplineSet
Substitution2: "'onum' Oldstyle Figures lookup 1-1" nine.osf
Colour: ffffff
EndChar

StartChar: colon
Encoding: 27 58 26
Width: 379
VWidth: 1655
GlyphClass: 2
Flags: HMW
LayerCount: 2
Fore
SplineSet
334.251 755 m 0
 334.251 753 333.251 744 331.251 726 c 1
 323.251 695 309.251 672 289.251 653 c 128
 269.251 634 246.251 625 220.251 625 c 128
 194.251 625 173.251 632 160.251 646 c 128
 147.251 660 140.251 676 136.251 696 c 1
 134.251 698 134.251 701 134.251 708 c 128
 134.251 715 135.251 728 139.251 750 c 128
 143.251 772 156.251 794 177.251 815 c 128
 198.251 836 223.251 846 250.251 847 c 128
 277.251 848 298.251 839 313.251 820 c 128
 328.251 801 334.251 779 334.251 755 c 0
227.251 165 m 1
 240.251 147 245.251 132 246.251 120 c 128
 247.251 108 246.251 95 243.251 77 c 1
 236.251 50 223.251 27 202.251 5 c 128
 181.251 -17 156.251 -28 129.251 -28 c 1
 106.251 -26 87.251 -18 73.251 -3 c 1
 53.251 17 43.251 41 45.251 68 c 0
 45.251 104 58.251 134 83.251 159 c 128
 108.251 184 130.251 195 150.251 196 c 128
 170.251 197 185.251 196 195.251 191 c 128
 205.251 186 215.251 178 227.251 165 c 1
EndSplineSet
Colour: ffffff
EndChar

StartChar: semicolon
Encoding: 28 59 27
Width: 460
VWidth: 1655
GlyphClass: 2
Flags: HMW
LayerCount: 2
Fore
SplineSet
152 181 m 1
 175 194 196 200 217 200 c 2
 227 200 l 1
 274 194 307 164 327 109 c 1
 336 82 340 63 341 51 c 128
 342 39 339 18 335 -11 c 128
 331 -40 317 -70 294 -103 c 0
 246 -172 172 -231 73 -280 c 1
 44 -230 l 1
 77 -210 99 -196 111 -187 c 128
 123 -178 138 -160 159 -134 c 128
 180 -108 191 -76 191 -40 c 0
 191 -38 189 -28 185 -9 c 128
 181 10 170 30 152 50 c 128
 134 70 115 87 94 101 c 1
 102 133 121 160 152 181 c 1
396 815 m 1
 409 797 414 782 415 770 c 128
 416 758 415 744 413 726 c 1
 405 695 392 672 372 653 c 128
 352 634 330 625 303 625 c 128
 276 625 257 632 243 646 c 0
 223 667 213 691 214 719 c 0
 214 754 226 785 251 810 c 128
 276 835 299 846 319 847 c 128
 339 848 353 846 363 841 c 128
 373 836 384 829 396 815 c 1
EndSplineSet
Colour: ffffff
EndChar

StartChar: less
Encoding: 29 60 28
Width: 743
VWidth: 1655
GlyphClass: 2
Flags: HMW
LayerCount: 2
Fore
SplineSet
42 419 m 1
 49 446 l 1
 657 952 l 1
 701 883 l 1
 277 446 l 1
 580 -13 l 1
 507 -81 l 1
 42 419 l 1
EndSplineSet
Colour: ffffff
EndChar

StartChar: equal
Encoding: 30 61 29
Width: 760
VWidth: 1655
GlyphClass: 2
Flags: HMW
LayerCount: 2
Fore
SplineSet
72 416 m 1
 675 416 l 1
 647 311 l 1
 45 311 l 1
 72 416 l 1
113 651 m 1
 714 651 l 1
 686 546 l 1
 85 546 l 1
 113 651 l 1
EndSplineSet
Colour: ffffff
EndChar

StartChar: greater
Encoding: 31 62 30
Width: 761
VWidth: 1655
GlyphClass: 2
Flags: HMW
LayerCount: 2
Fore
SplineSet
716 419 m 1
 92 -81 l 1
 42 -13 l 1
 487 446 l 1
 202 883 l 1
 268 952 l 1
 718 446 l 1
 716 419 l 1
EndSplineSet
Colour: ffffff
EndChar

StartChar: question
Encoding: 32 63 31
Width: 635
VWidth: 1655
GlyphClass: 2
Flags: HMW
LayerCount: 2
Fore
SplineSet
213 206 m 128
 225 200 235 192 245 178 c 128
 255 164 260 154 263 143 c 128
 266 132 267 125 267 120 c 128
 267 115 265 100 259 73 c 128
 253 46 239 22 216 -1 c 128
 193 -24 166 -35 136 -35 c 1
 109 -33 89 -24 73 -8 c 128
 57 8 49 24 46 42 c 128
 43 60 42 68 42 71 c 128
 42 74 44 86 49 108 c 128
 54 130 66 153 89 176 c 128
 112 199 135 211 159 212 c 128
 183 213 201 212 213 206 c 128
121 504 m 1
 116 555 l 1
 116 595 127 631 150 662 c 128
 173 693 196 715 219 730 c 128
 242 745 272 759 310 775 c 128
 348 791 376 804 395 816 c 128
 414 828 432 844 452 866 c 128
 472 888 482 913 485 941 c 0
 485 945 485 947 486 951 c 1
 486 959 l 2
 486 1012 462 1057 413 1092 c 1
 393 1105 377 1112 363 1114 c 128
 349 1116 343 1117 342 1118 c 1
 333 1118 l 2
 298 1118 262 1110 225 1093 c 128
 188 1076 161 1061 144 1045 c 1
 133 1050 124 1057 115 1069 c 1
 97 1089 89 1107 89 1125 c 128
 89 1143 89 1153 91 1156 c 1
 99 1204 130 1242 184 1269 c 0
 216 1285 250 1292 286 1292 c 2
 307 1292 l 1
 366 1288 418 1269 462 1234 c 128
 506 1199 539 1154 560 1101 c 128
 581 1048 592 1000 592 957 c 128
 592 914 590 884 585 864 c 0
 572 801 539 746 485 699 c 1
 450 669 407 646 358 628 c 1
 323 614 302 604 292 594 c 128
 282 584 272 574 262 562 c 0
 244 543 236 513 235 472 c 0
 235 464 235 457 237 451 c 1
 237 430 l 2
 237 428 238 414 242 385 c 1
 164 369 l 1
 141 428 127 473 121 504 c 1
EndSplineSet
Colour: ffffff
EndChar

StartChar: at
Encoding: 33 64 32
Width: 1312
VWidth: 1655
GlyphClass: 2
Flags: HMW
LayerCount: 2
Fore
SplineSet
780.021 602 m 1
 739.021 663 698.021 693 657.021 693 c 2
 650.021 693 l 2
 630.021 693 611.021 687 590.021 673 c 128
 569.021 659 554.021 644 543.021 625 c 1
 526.021 600 510.021 553 494.021 485 c 128
 478.022 417 471.022 363 471.022 320 c 2
 471.022 307 l 2
 471.022 284 472.022 263 475.022 244 c 128
 478.022 225 481.022 214 483.022 210 c 128
 485.022 206 487.022 203 491.022 199 c 128
 495.021 195 496.021 194 497.021 193 c 128
 498.021 192 500.021 191 504.021 188 c 0
 509.021 183 517.021 181 529.021 181 c 128
 541.021 181 555.021 186 571.021 198 c 128
 587.021 210 605.021 228 626.021 253 c 128
 647.021 278 675.021 326 710.021 398 c 128
 745.021 470 768.021 538 780.021 602 c 1
719.021 83 m 128
 707.021 98 702.021 124 702.021 159 c 128
 702.021 194 712.021 242 732.021 305 c 1
 720.021 307 l 1
 695.021 254 671.021 211 647.021 177 c 128
 623.021 143 594.021 115 561.021 93 c 128
 528.021 71 494.021 60 460.022 60 c 128
 426.022 60 397.022 74 373.022 104 c 128
 349.022 134 337.022 167 333.022 204 c 1
 331.022 210 331.022 224 331.022 249 c 128
 331.022 274 338.022 323 354.022 395 c 0
 384.022 532 452.022 646 559.021 738 c 1
 604.021 773 645.021 790 683.021 790 c 128
 721.021 790 757.021 771 792.021 733 c 1
 806.021 731 l 1
 812.021 802 l 1
 831.021 809 l 1
 936.021 778 l 1
 875.021 463 l 1
 860.021 356 853.021 301 851.021 296 c 1
 848.021 253 l 2
 846.021 218 845.021 201 845.021 199 c 2
 845.021 188 l 2
 845.021 184 846.021 181 851.021 176 c 128
 856.021 171 860.021 168 865.021 168 c 128
 870.021 168 873.021 168 875.021 170 c 1
 883.021 170 l 1
 899.021 172 910.021 173 916.021 175 c 128
 922.021 177 928.021 177 935.021 179 c 128
 942.021 181 946.021 182 948.021 183 c 128
 950.021 184 953.021 185 959.021 187 c 128
 965.021 189 969.021 190 972.021 192 c 128
 975.021 194 978.021 196 983.021 199 c 128
 988.021 202 992.021 204 996.021 208 c 128
 1000.02 212 1004.02 214 1010.02 218 c 0
 1063.02 262 1099.02 310 1120.02 362 c 128
 1141.02 414 1151.02 478 1151.02 553 c 0
 1152.02 720 1083.02 840 943.021 913 c 1
 876.021 946 805.021 962 728.021 961 c 0
 623.021 961 527.021 932 442.022 876 c 128
 357.022 820 292.022 745 249.022 651 c 1
 204.022 557 181.022 458 181.022 355 c 128
 181.022 252 202.022 164 244.022 90 c 128
 286.022 16 346.022 -39 423.022 -78 c 128
 500.021 -117 586.021 -137 681.021 -137 c 2
 702.021 -137 l 1
 745.021 -136 793.021 -130 844.021 -117 c 128
 895.021 -104 939.021 -88 977.021 -67 c 0
 1021.02 -44 1048.02 -29 1058.02 -21 c 1
 1094.02 -75 l 1
 1085.02 -80 l 1
 1024.02 -139 953.021 -178 871.021 -199 c 128
 789.021 -220 721.021 -230 667.021 -230 c 2
 653.021 -230 l 2
 547.021 -230 446.022 -210 350.022 -170 c 128
 254.022 -130 179.022 -72 122.022 3 c 1
 56.0225 93 23.0225 202 24.0225 331 c 128
 25.0225 460 56.0225 581 119.022 692 c 128
 182.022 803 270.022 890 381.022 955 c 128
 492.022 1020 617.021 1052 754.021 1052 c 2
 763.021 1052 l 1
 861.021 1049 949.021 1029 1029.02 991 c 128
 1109.02 953 1172.02 899 1218.02 828 c 128
 1264.02 757 1286.02 679 1287.02 594 c 1
 1287.02 583 l 2
 1287.02 498 1266.02 416 1225.02 340 c 128
 1184.02 264 1128.02 200 1056.02 148 c 128
 984.021 96 907.021 64 825.021 52 c 1
 821.021 50 813.021 50 799.021 51 c 1
 766.021 54 l 1
 746.021 59 731.021 68 719.021 83 c 128
EndSplineSet
Colour: ffffff
EndChar

StartChar: A
Encoding: 34 65 33
Width: 1277
VWidth: 1655
GlyphClass: 2
Flags: HMW
LayerCount: 2
Fore
SplineSet
116.219 -27.8848 m 0
 34.6343 -27.8848 -40.1938 26.4869 -46 101 c 1
 375.529 253 536.079 692 678 1241 c 1
 869 1271 l 1
 1037 132 l 1
 1215 81 l 1
 1192 0 l 1
 636 0 l 1
 659 72 l 1
 847 108 l 1
 724 1062 l 1
 710 1062 l 1
 633.991 743.515 420 -27.8848 116.219 -27.8848 c 0
518 533.765 m 17
 824 519.882 l 1
 834 454.373 l 1
 494 437.196 l 9
 518 533.765 l 17
EndSplineSet
Colour: ffffff
EndChar

StartChar: B
Encoding: 35 66 34
Width: 1053
VWidth: 1655
GlyphClass: 2
Flags: HMW
LayerCount: 2
Fore
SplineSet
1019.15 355.872 m 0
 1019.15 125.408 706.554 -16.9332 399.508 -16.9332 c 0
 301.505 -16.9332 208.873 -11.676 112 0 c 1
 268 1121 l 1
 34 1128 l 1
 53 1205 l 1
 231.321 1256.2 416.77 1280.67 576.104 1280.67 c 0
 804.367 1280.67 975 1184.23 975 1005 c 0
 975 800.61 843.581 674.559 737 639 c 1
 737 623.479 l 1
 924 592 1019.15 512.304 1019.15 355.872 c 0
376 575 m 1
 313 121 l 1
 387.214 91.6191 447.17 83.7277 525.094 83.7277 c 0
 695.91 83.7277 812.603 189.664 812.603 315.289 c 0
 812.603 440 733.383 529.886 577 551.323 c 1
 376 575 l 1
649.203 631.985 m 1
 730.002 690.288 782 780.106 782 920 c 0
 782 1105.7 621.731 1219.77 458 1204 c 5
 387 648 l 1
 649.203 631.985 l 1
EndSplineSet
Colour: ffffff
EndChar

StartChar: C
Encoding: 36 67 35
Width: 991
VWidth: 1655
GlyphClass: 2
Flags: HMW
LayerCount: 2
Back
SplineSet
799.832 -32 m 1
 824 161 l 25
 843 340 l 1
 826.34 340 l 1
 732.606 138.418 597.241 -33 376 -33 c 0
 144.532 -33 20 158.975 20 444 c 0
 20 915.719 342.689 1263.74 845.451 1263.74 c 4
 910.092 1263.74 977.709 1257.98 1048 1246 c 5
 968 835 l 5
 882 848 l 5
 850 1111 l 5
 784.415 1125.46 725.961 1132.06 673.866 1132.06 c 4
 275.589 1132.06 249 746.008 249 532 c 0
 249 279 309.469 87 440 87 c 0
 566.451 87 744.221 257.748 820 448.108 c 1
 820 463 l 1
 594 456 l 1
 613 532 l 1
 728.104 562.242 843.854 579.227 967.155 579.227 c 0
 1018.15 579.227 1070.29 576.882 1124 572 c 1
 1104 497 l 1
 989 465 l 1
 968 299 l 17
 986 23 l 1
 983 6 l 1
 799.832 -32 l 1
EndSplineSet
Fore
SplineSet
957 1246 m 1
 887 815 l 1
 791 828 l 1
 759 1101 l 1
 710.441 1111.52 666.038 1116.58 625.541 1116.58 c 0
 362.195 1116.58 264.01 902.444 262 581 c 0
 262 343.886 323 135 489 135 c 0
 611 135 808.557 244.913 895 370 c 1
 957 328 l 1
 873.991 177.413 630.757 -30 402 -30 c 128
 140 -30 34 237 34 496 c 0
 34 862.006 338.072 1261.65 797.13 1261.65 c 0
 848.546 1261.65 901.906 1256.64 957 1246 c 1
EndSplineSet
Colour: ffffff
EndChar

StartChar: D
Encoding: 37 68 36
Width: 1244
VWidth: 1655
GlyphClass: 2
Flags: HMW
LayerCount: 2
Fore
SplineSet
321 106 m 1
 748.648 106 1007 262.977 1007 672 c 128
 1007 987.994 776.69 1197.07 448 1171 c 1
 321 106 l 1
109 0 m 1
 251 1068 l 1
 34 1105 l 1
 55 1176 l 1
 220.439 1235.56 420.565 1275.35 610.243 1275.35 c 0
 926.052 1275.35 1210 1141.88 1210 752 c 0
 1210 163.5 726.357 -33 109 0 c 1
EndSplineSet
Colour: ffffff
EndChar

StartChar: E
Encoding: 38 69 37
Width: 1257
VWidth: 1655
GlyphClass: 2
Flags: HMW
LayerCount: 2
Fore
SplineSet
1084 0 m 1
 716 2 509 3 466 3 c 1
 234 -3 l 1
 275 134 l 1
 400 1094 l 1
 173 1117 l 1
 193 1192 l 1
 271 1208 381 1220 526 1233 c 128
 671 1246 804 1252 926 1252 c 1
 1223 1246 l 1
 1143 835 l 1
 1057 848 l 1
 1025 1111 l 1
 997 1117 l 1
 902 1136 779 1145 628 1143 c 2
 595 1143 l 1
 540 680 l 1
 995 714 l 1
 961 569 l 1
 528 578 l 1
 466 98 l 1
 683 108 l 2
 805 115 889 122 934 132 c 1
 957 169 983 222 1014 292 c 128
 1045 362 1064 415 1074 451 c 1
 1161 440 l 1
 1161 434 l 2
 1161 345 1154 262 1140 182 c 128
 1126 102 1108 41 1084 0 c 1
EndSplineSet
Colour: ffffff
EndChar

StartChar: F
Encoding: 39 70 38
Width: 1257
VWidth: 1655
GlyphClass: 2
Flags: HMW
LayerCount: 2
Fore
SplineSet
926 1252 m 5
 1223 1246 l 5
 1143 818 l 5
 1048 832 l 5
 1020 1102 l 5
 988 1107 l 5
 895 1123 785 1134 657 1142 c 5
 595 1143 l 5
 540 637 l 5
 995 670 l 5
 961 519 l 5
 528 546 l 5
 472 109 l 5
 722 80 l 5
 702 -2 l 5
 235 -2 l 5
 275 134 l 5
 400 1094 l 5
 173 1117 l 5
 193 1192 l 5
 271 1208 382 1220 526 1233 c 132
 670 1246 804 1252 926 1252 c 5
EndSplineSet
Colour: ffffff
EndChar

StartChar: G
Encoding: 40 71 39
Width: 1172
VWidth: 1655
GlyphClass: 2
Flags: HMW
LayerCount: 2
Back
SplineSet
856 0 m 5
 816 310 l 5
 799.34 310 l 5
 709.978 124.631 580.925 -33 370 -33 c 4
 138.532 -33 14 158.974 14 444 c 4
 14 976.369 425 1351.18 1042 1246 c 5
 962 835 l 5
 876 848 l 5
 844 1111 l 5
 277 1236 243 774 243 532 c 4
 243 279 303.468 87 434 87 c 4
 557.124 87 730.215 257.748 804 448.108 c 5
 804 463 l 5
 578 456 l 5
 597 532 l 5
 715.354 562.242 834.373 579.227 961.155 579.227 c 4
 1012.15 579.227 1064.3 576.881 1118 572 c 5
 1098 497 l 5
 969 465 l 5
 982 46 l 5
 856 0 l 5
EndSplineSet
Fore
SplineSet
813.832 -32 m 1
 838 161 l 25
 857 340 l 1
 840.34 340 l 1
 746.606 138.418 611.241 -33 390 -33 c 0
 158.532 -33 34 158.975 34 444 c 0
 34 915.719 356.689 1263.74 859.451 1263.74 c 0
 924.092 1263.74 991.709 1257.98 1062 1246 c 1
 982 835 l 1
 876 848 l 1
 864 1105 l 1
 790.969 1127.55 725.879 1137.84 667.87 1137.84 c 0
 288.338 1137.84 263 748.07 263 532 c 0
 263 290.371 323.469 107 454 107 c 0
 580.451 107 758.221 268.291 834 448.108 c 1
 834 463 l 1
 608 456 l 1
 627 532 l 1
 742.104 562.242 857.854 579.227 981.155 579.227 c 0
 1032.15 579.227 1084.29 576.882 1138 572 c 1
 1118 497 l 1
 1003 465 l 1
 982 299 l 17
 1000 23 l 1
 997 6 l 1
 813.832 -32 l 1
EndSplineSet
Colour: ffff00
EndChar

StartChar: H
Encoding: 41 72 40
Width: 1574
VWidth: 1655
GlyphClass: 2
Flags: HMW
LayerCount: 2
Fore
SplineSet
1174 1113 m 1
 946 1122 l 1
 964 1197 l 1
 1156.93 1237.72 1341.47 1250.76 1545 1239 c 1
 1527 1163 l 1
 1362 1109 l 1
 1246 129 l 1
 1457 81 l 1
 1436 0 l 1
 1011 0 l 1
 1050 133 l 1
 1111 600 l 1
 523 567 l 1
 466 106 l 1
 697 81 l 1
 673 0 l 1
 74 0 l 1
 92 78 l 1
 275 129 l 1
 398 1090 l 1
 162 1123 l 1
 181 1199 l 1
 359.221 1236.12 463.817 1242.86 638 1239 c 1
 593 1112 l 1
 538 680 l 1
 1119 687 l 1
 1174 1113 l 1
EndSplineSet
Colour: ffffff
EndChar

StartChar: I
Encoding: 42 73 41
Width: 846
VWidth: 1655
GlyphClass: 2
Flags: HMW
LayerCount: 2
Fore
SplineSet
680 0 m 1
 64 0 l 1
 82 78 l 1
 275 129 l 1
 398 1090 l 1
 162 1123 l 1
 181 1199 l 1
 332.19 1230 489.509 1246 655 1246 c 0
 689.784 1246 731.847 1244 782 1239 c 1
 762 1164 l 1
 593 1142 l 1
 466 106 l 1
 704 81 l 1
 680 0 l 1
EndSplineSet
Colour: ffffff
EndChar

StartChar: J
Encoding: 43 74 42
Width: 1050
VWidth: 1655
GlyphClass: 2
Flags: HMW
LayerCount: 2
Fore
SplineSet
226.446 -375 m 128
 93.642 -375 24 -297.298 24 -208.19 c 0
 24 -163.189 40.8848 -115.28 75.4463 -73 c 1
 179.501 -147.868 270.638 -194 373.446 -194 c 0
 404.06 -194 427.819 -180.699 438.446 -148 c 0
 471.399 -28 514.446 302 547.446 589 c 2
 604.446 1087 l 1
 359.446 1117 l 1
 375.446 1194 l 1
 565.264 1237.15 787.988 1262.86 1016.45 1243 c 1
 997.446 1166 l 1
 802.446 1142 l 1
 707.446 385 l 2
 686.446 214 637.6 -38.5771 561.95 -175 c 0
 465.446 -328 350.253 -375 226.446 -375 c 128
EndSplineSet
Colour: ffffff
EndChar

StartChar: K
Encoding: 44 75 43
Width: 1358
VWidth: 1655
GlyphClass: 2
Flags: HMW
LayerCount: 2
Back
SplineSet
450 106 m 1
 634 72 l 1
 615 0 l 1
 34 0 l 1
 52 75 l 1
 266 127 l 1
 401 1122 l 1
 180 1135 l 1
 194 1212 l 1
 287.678 1235.34 574.712 1286 693 1286 c 128
 905.472 1286 1104 1203.85 1104 997 c 0
 1104 771.606 864 628 760 585 c 1
 760 575 l 1
 847.656 426.195 1098.91 145.694 1162.69 145.694 c 4
 1214.76 145.694 1283.64 213.585 1304 250 c 5
 1348 210 l 5
 1316 126.715 1228 -22.8877 1073.93 -22.8877 c 4
 857.674 -22.8877 693.289 316 585 547 c 1
 596 577 l 1
 750.973 632.886 896.346 744 896.346 935.162 c 0
 896.346 1083.94 776.715 1206.71 595 1195 c 1
 450 106 l 1
  Spiro
    450 106 v
    634 72 v
    615 0 v
    34 0 v
    52 75 v
    266 127 v
    401 1122 v
    180 1135 v
    194 1212 v
    338.536 1241.53 o
    532.065 1272.03 o
    693 1286 o
    893.805 1257.1 o
    1044.77 1163.73 o
    1104 997 o
    1038.04 799.734 o
    895.255 660.73 o
    760 585 v
    760 575 v
    889.029 397.754 o
    1049.57 223.787 o
    1162.69 145.694 o
    1217.89 164.61 o
    1269.93 206.82 o
    1304 250 v
    1348 210 v
    1297.03 112.71 o
    1206.24 18.9072 o
    1073.93 -22.8877 o
    875.302 73.3514 o
    711.686 296.838 o
    585 547 v
    596 577 v
    742.611 652.119 o
    852.999 769.904 o
    896.346 935.162 o
    858.674 1071.13 o
    753.755 1165.97 o
    595 1195 v
    0 0 z
  EndSpiro
EndSplineSet
Fore
SplineSet
1189.69 130.694 m 0
 1083.52 130.694 880.022 485.194 783.23 660.826 c 1
 893.52 710.555 1223.11 912.946 1223.11 1123.83 c 0
 1223.11 1218.37 1142.91 1276.55 1044.26 1270.56 c 1
 1011.8 954.821 871.07 753.802 618 649 c 1
 605 615 l 1
 764.415 206.832 892.701 -42.8877 1103.93 -42.8877 c 1
 1246 -42.8877 1346 106.715 1378 190 c 1
 1331 235 l 1
 1310.64 198.585 1258.26 130.694 1189.69 130.694 c 0
620 0 m 1
 34 0 l 1
 52 78 l 1
 275 129 l 1
 398 1090 l 1
 172 1123 l 1
 191 1199 l 1
 317.501 1241.24 469.275 1257.02 622 1239 c 1
 587 1097 l 1
 466 110 l 1
 644 85 l 1
 620 0 l 1
EndSplineSet
Colour: ffff00
EndChar

StartChar: L
Encoding: 45 76 44
Width: 1197
VWidth: 1655
GlyphClass: 2
Flags: HMW
LayerCount: 2
Fore
SplineSet
1084 0 m 1
 716 2 509 3 466 3 c 1
 227 -4 l 1
 278 154 l 1
 401 1094 l 1
 174 1117 l 1
 194 1192 l 1
 312 1228 458 1246 632 1246 c 0
 670 1246 716 1245 771 1241 c 128
 826 1237 855 1236 861 1236 c 1
 847 1155 l 1
 600 1132 l 1
 466 106 l 1
 683 116 l 1
 781 122 860 129 919 139 c 1
 960 183 1010 293 1069 470 c 1
 1161 456 l 1
 1161 448 1161 441 1163 434 c 1
 1163 408 l 2
 1163 335 1155 259 1140 179 c 128
 1125 99 1107 39 1084 0 c 1
EndSplineSet
Colour: ffffff
EndChar

StartChar: M
Encoding: 46 77 45
Width: 1751
VWidth: 1655
GlyphClass: 2
Flags: HMW
LayerCount: 2
Fore
SplineSet
1597 279 m 1
 1645 244 l 1
 1611.37 115.958 1497.16 -29.0703 1329.5 -29.0703 c 0
 1245.6 -29.0703 1207 0.921383 1207 69 c 0
 1207 141.423 1218 208.157 1232 343 c 2
 1306.72 999 l 1
 1297 999 l 1
 1175.03 663.124 997.306 297.585 830 52 c 1
 702 33 l 1
 535.33 724 l 1
 476 999 l 1
 465 999 l 1
 480.185 648 479.129 -31 119 -31 c 0
 35.757 -31 -17.7805 30.2317 -36 94 c 1
 218.683 202.083 353.251 467.684 353.251 896.524 c 0
 353.251 1024.69 343.766 1156.74 333 1251 c 1
 585 1280 l 1
 669 985 l 1
 873 313 l 1
 1088 744 1141.83 920.62 1220 1230 c 1
 1272.8 1237.17 1466.47 1246 1554 1246 c 128
 1604 1246 1658 1243 1717 1236 c 1
 1694 1158 l 1
 1477 1101 l 1
 1416 287 l 2
 1411.43 234.584 1403.81 146.729 1445.94 146.729 c 0
 1494 146.729 1570 224 1597 279 c 1
EndSplineSet
Colour: ffffff
EndChar

StartChar: N
Encoding: 47 78 46
Width: 1561
VWidth: 1655
GlyphClass: 2
Flags: HMW
LayerCount: 2
Fore
SplineSet
1037 -31 m 1
 482 999 l 1
 479 999 l 1
 460 486 l 1
 448.735 249.433 398.438 -31 177 -31 c 1
 118 -25 77 1 52 49 c 1
 43 69 38 87 34 103 c 1
 115 140 180.532 185.022 223 242 c 0
 343 403 367 791 379 1071 c 1
 153 1125 l 1
 175 1201 l 1
 342.528 1235.23 427 1244 584 1246 c 1
 672 1078 l 1
 1107 274 l 1
 1178 1106 l 1
 951 1122 l 1
 971 1197 l 1
 1139.21 1233.85 1224.04 1245 1384 1245 c 128
 1431 1245 1479 1243 1527 1239 c 1
 1506 1163 l 1
 1301 1109 l 1
 1197 2 l 1
 1037 -31 l 1
EndSplineSet
Colour: ffffff
EndChar

StartChar: O
Encoding: 48 79 47
Width: 1134
VWidth: 1655
GlyphClass: 2
Flags: HMW
LayerCount: 2
Fore
SplineSet
243 639 m 132
 243 395.097 338.526 120 586 120 c 4
 798.408 120 893 376.643 893 625 c 4
 893 875.887 787.023 1130 531 1130 c 132
 315.269 1130 243 879.592 243 639 c 132
1100 744 m 5
 1098 596 1063 457 995 325 c 5
 889.599 125.149 742.921 -28 478 -28 c 132
 200.373 -28 34 222.419 34 505 c 4
 34 906.486 261.087 1275 657 1275 c 4
 942.477 1275 1100 1029.2 1100 744 c 5
  Spiro
    1100 744 v
    1087.02 599.068 o
    1051.95 459.271 o
    995 325 v
    910.869 194.079 o
    812.451 92.6173 o
    701 21 o
    631.701 -6.34859 o
    557.294 -22.6404 o
    478 -28 o
    398.078 -19.9791 o
    321.926 4.32875 o
    250 45 o
    185.688 98.9779 o
    132.323 163.366 o
    90 238 o
    59.0619 321.136 o
    40.2837 410.536 o
    34 505 o
    53.5 703 o
    112 886 o
    171.23 995.49 o
    245.118 1090.16 o
    333 1169 o
    432.452 1227.99 o
    540.89 1263.32 o
    657 1275 o
    744.324 1266.31 o
    825.003 1240 o
    899 1196 o
    963.534 1138.73 o
    1015.12 1072.6 o
    1053 998 o
    1078.94 917.711 o
    1094.71 834.286 o
    1100 748 [
    0 0 z
  EndSpiro
EndSplineSet
Colour: ffffff
EndChar

StartChar: P
Encoding: 49 80 48
Width: 1114
VWidth: 1655
GlyphClass: 2
Flags: HMW
LayerCount: 2
Back
SplineSet
450 106 m 1
 634 72 l 1
 615 0 l 1
 34 0 l 1
 52 75 l 1
 266 127 l 1
 401 1122 l 1
 180 1135 l 1
 194 1212 l 1
 287.678 1235.34 574.712 1286 693 1286 c 128
 931.32 1286 1154 1203.85 1154 997 c 4
 1154 733.31 879.116 565.306 760 515 c 1
 760 505 l 1
 847.656 380.458 1098.91 145.694 1162.69 145.694 c 0
 1214.76 145.694 1283.64 213.585 1304 250 c 1
 1348 210 l 1
 1316 126.715 1228 -22.8877 1073.93 -22.8877 c 0
 857.674 -22.8877 693.289 274.374 585 477 c 1
 596 507 l 1
 776.772 573.809 946.347 706.639 946.347 935.162 c 4
 946.347 1083.94 806.865 1206.71 595 1195 c 1
 450 106 l 1
EndSplineSet
Fore
SplineSet
506 514 m 5
 664 545.554 870 671.77 870 901 c 132
 870 1086.51 724 1209.84 519 1192 c 5
 373 116 l 5
 631 84 l 5
 607 0 l 5
 152 0 l 5
 186 132 l 5
 311 1116 l 5
 95 1139 l 5
 111 1208 l 5
 304.495 1257.1 489.149 1281.29 663 1282 c 4
 906.757 1282 1074 1185.6 1074 963 c 4
 1074 704 784 492 522 441 c 5
 506 514 l 5
EndSplineSet
Colour: ffffff
EndChar

StartChar: Q
Encoding: 50 81 49
Width: 1152
VWidth: 1655
GlyphClass: 2
Flags: HMW
LayerCount: 2
Back
SplineSet
199 -253 m 5
 383 -287 l 5
 364 -359 l 5
 -217 -359 l 5
 -199 -284 l 5
 15 -232 l 5
 150 763 l 5
 -71 776 l 5
 -57 853 l 5
 36.6776 876.34 323.712 927 442 927 c 132
 654.472 927 853 844.853 853 638 c 4
 853 412.606 613 269 509 226 c 5
 509 216 l 5
 596.656 67.1949 847.914 -213.306 911.689 -213.306 c 4
 963.756 -213.306 1032.64 -145.415 1053 -109 c 5
 1097 -149 l 5
 1065 -232.285 977 -381.888 822.93 -381.888 c 4
 606.674 -381.888 442.289 -43 334 188 c 5
 345 218 l 5
 499.973 273.886 645.347 385 645.347 576.162 c 4
 645.347 724.941 525.715 847.712 344 836 c 5
 199 -253 l 5
EndSplineSet
Fore
SplineSet
651 1275 m 0
 935 1275 1086 1026 1086 736 c 0
 1086 396.734 904 112 682 26 c 1
 735.678 -106.78 840.259 -209 918 -209 c 0
 967.31 -209 1024.3 -152.183 1058 -106 c 1
 1100 -156 l 1
 1025 -292.858 899 -383 815 -385 c 0
 677.125 -388.524 548 -307.638 543 -21 c 1
 252.589 -80 34 225.993 34 534 c 0
 34 904 261 1275 651 1275 c 0
235 651 m 1
 235 380.381 330.838 92 644 92 c 129
 764 156 885 328.111 885 602 c 0
 885 872 789.659 1132 528 1132 c 0
 312.696 1132 232.192 897 235 651 c 1
EndSplineSet
Colour: ffffff
EndChar

StartChar: R
Encoding: 51 82 50
Width: 1291
VWidth: 1655
GlyphClass: 2
Flags: HMW
LayerCount: 2
Back
SplineSet
823 401 m 5
 970.206 504.677 1058.66 631.581 1058.66 700.086 c 4
 1058.66 729.681 1047.34 748 1023 748 c 4
 939 748 759 495 726 405 c 5
 720.292 153.973 704.119 -86.8311 511 -13 c 5
 505 0 l 5
 588 440 l 5
 675 1175 l 5
 540 1203 l 5
 550 1276 l 5
 837 1299 l 5
 853 1278 l 5
 795 832 l 5
 730 551 l 5
 743 546 l 5
 777.824 600.613 963 906 1113 906 c 4
 1153.98 906 1207.1 851.235 1207.1 765.239 c 4
 1207.1 675.643 1143.9 551.89 936 421 c 5
 964 317.072 1046 123 1096 123 c 4
 1124 123 1198 164 1245 246 c 5
 1287 216 l 5
 1249 103 1132 -13 1029 -13 c 4
 872 -13 835 260.738 812 383 c 5
 823 401 l 5
EndSplineSet
Fore
SplineSet
430 106 m 1
 614 72 l 1
 595 0 l 1
 204 -4 l 1
 249 147 l 1
 401 1122 l 1
 180 1135 l 1
 194 1212 l 1
 287.678 1235.34 574.712 1286 693 1286 c 128
 905.472 1286 1104 1203.85 1104 997 c 0
 1104 771.606 864 628 760 585 c 1
 760 575 l 1
 847.656 426.195 1098.91 145.694 1162.69 145.694 c 0
 1214.76 145.694 1283.64 213.585 1304 250 c 1
 1348 210 l 1
 1316 126.715 1228 -22.8877 1073.93 -22.8877 c 0
 857.674 -22.8877 693.289 316 585 547 c 1
 596 577 l 1
 750.973 632.886 896.346 744 896.346 935.162 c 0
 896.346 1083.94 776.715 1206.71 595 1195 c 1
 430 106 l 1
EndSplineSet
Colour: ffffff
EndChar

StartChar: S
Encoding: 52 83 51
Width: 955
VWidth: 1655
GlyphClass: 2
Flags: HMW
LayerCount: 2
Fore
SplineSet
232 393 m 1
 229.964 113 l 1
 253.978 84.5887 337.374 67.6094 412.188 67.6094 c 0
 545.183 67.6094 647 151.078 647 262 c 128
 647 496 133 552 133 896 c 0
 133 1114.05 371.341 1278 607 1278 c 0
 727.328 1278 832.759 1254.9 921 1208 c 1
 826 832 l 1
 738 851 l 1
 741 1111 l 1
 712.855 1147.06 643.141 1184 562 1184 c 0
 434.688 1184 325 1105.38 325 995 c 0
 325 712 849 636 849 348 c 0
 849 151.352 645.123 -33.6328 351.441 -33.6328 c 0
 220.855 -33.6328 98.1533 2.29959 44 42 c 129
 144 384.183 l 1
 232 393 l 1
EndSplineSet
Colour: ffffff
EndChar

StartChar: T
Encoding: 53 84 52
Width: 1104
VWidth: 1655
GlyphClass: 2
Flags: HMW
LayerCount: 2
Fore
SplineSet
474 1123 m 1
 350.548 1139.47 285.52 1144 226 1138 c 1
 130 818 l 1
 35 832 l 1
 35 1224 l 1
 219.845 1240 428.178 1249 660 1252 c 2
 771 1252 l 1
 1136 1246 l 1
 1055 818 l 1
 960 832 l 1
 930 1117 l 1
 836 1133 751 1141 676 1143 c 1
 552 113 l 1
 822 84 l 1
 804 2 l 1
 115 2 l 1
 138 84 l 1
 355 138 l 1
 474 1123 l 1
EndSplineSet
Colour: ffffff
EndChar

StartChar: U
Encoding: 54 85 53
Width: 1481
VWidth: 1655
GlyphClass: 2
Flags: HMW
LayerCount: 2
Fore
SplineSet
309 1087 m 1
 94 1123 l 1
 116 1201 l 1
 247.549 1230 381.549 1245 518 1245 c 1
 552 1243 l 1
 505 1078 l 1
 452.907 716 l 2
 379.453 193 424.921 123 554 123 c 0
 720.918 123 904.926 327.066 989.676 523.418 c 1
 1047 1111 l 1
 822 1120 l 1
 840 1197 l 1
 1002.09 1225.98 1173.37 1240 1355 1240 c 0
 1363 1240 1400 1239.75 1467 1239 c 1
 1447 1163 l 1
 1240 1096 l 1
 1176 520 l 1
 1191 30 l 1
 1188 12 l 1
 968 -38 l 1
 1020 400 l 1
 1006.84 399.736 l 1
 870.088 100 663.083 -34 455 -34 c 0
 155.35 -34 198.157 232.961 265.488 799 c 2
 309 1087 l 1
EndSplineSet
Colour: ffffff
EndChar

StartChar: V
Encoding: 55 86 54
Width: 1131
VWidth: 1655
GlyphClass: 2
Flags: HMW
LayerCount: 2
Fore
SplineSet
745 1201 m 5
 787 1243 836 1264 892 1264 c 4
 973 1264 1032 1226 1071 1150 c 4
 1089 1117 1097 1075 1097 1024 c 4
 1097 1019 1096 999 1094 962 c 5
 1081 836 1041 698 973 547 c 132
 905 396 825 261 732 142 c 5
 683 83 642 37 609 5 c 5
 465 -26 l 5
 256 1081 l 5
 34 1122 l 5
 54 1197 l 5
 189 1228 319 1244 444 1246 c 5
 631 188 l 5
 639 188 l 5
 676 227 712 273 747 327 c 5
 820 442 867 572 890 716 c 4
 895 743 897 777 897 817 c 4
 897 904 881 985 848 1058 c 5
 819 1118 785 1166 745 1201 c 5
EndSplineSet
Colour: ffffff
EndChar

StartChar: W
Encoding: 56 87 55
Width: 1598
VWidth: 1655
GlyphClass: 2
Flags: HMW
LayerCount: 2
Fore
SplineSet
861 -28 m 1
 832 621 l 1
 822 621 l 1
 763 455 693 301 611 158 c 0
 589 121 558 70 517 5 c 1
 343 -26 l 1
 251 1081 l 1
 34 1122 l 1
 61 1197 l 1
 201 1228 333 1244 458 1246 c 1
 525 237 l 1
 535 237 l 1
 635 382 715 553 776 752 c 0
 799 829 822 912 843 999 c 1
 992 1034 l 1
 1044 195 l 1
 1052 195 l 1
 1188 339 1276 510 1318 709 c 1
 1331 776 1337 835 1337 888 c 0
 1337 996 1314 1102 1269 1207 c 1
 1312 1238 1359 1253 1409 1252 c 2
 1415 1252 l 1
 1494 1246 1541 1206 1557 1130 c 0
 1562 1110 1564 1081 1564 1041 c 128
 1564 1001 1558 951 1544 892 c 1
 1520 773 1470 648 1393 517 c 1
 1324 395 1241 276 1144 162 c 1
 1121 131 1074 78 1003 3 c 1
 861 -28 l 1
EndSplineSet
Colour: ffffff
EndChar

StartChar: X
Encoding: 57 88 56
Width: 1353
VWidth: 1655
GlyphClass: 2
Flags: HMW
LayerCount: 2
Fore
SplineSet
361.125 1071 m 1
 119.125 1122 l 1
 138.125 1197 l 1
 241.125 1220 318.125 1233 368.125 1237 c 128
 418.125 1241 467.125 1244 513.125 1246 c 1
 746.125 729 l 1
 761.125 770 775.125 803 789.125 829 c 1
 817.125 891 854.125 960 901.125 1036 c 128
 948.125 1112 989.125 1163 1024.12 1192 c 0
 1074.12 1232 1125.12 1252 1175.12 1252 c 128
 1243.98 1252 1305.12 1199.99 1317.12 1140 c 128
 1319.12 1130 1319.12 1114 1319.12 1092 c 128
 1319.12 1070 1312.12 1045 1296.12 1019 c 1
 1269.12 1026 1242.12 1029 1216.12 1029 c 1
 1170.12 1026 l 1
 1052.12 1010 949.125 934 863.125 797 c 1
 836.125 750 812.125 698 789.125 639 c 1
 917.125 357 l 2
 956.125 272 991.125 214 1020.12 184 c 0
 1036.12 168 1052.12 161 1071.12 162 c 128
 1090.12 163 1106.12 169 1122.12 184 c 1
 1153.12 207 1185.12 245 1219.12 298 c 1
 1268.12 264 l 1
 1256.12 219 1241.12 181 1222.12 151 c 0
 1174.12 75 1116.12 24 1047.12 -2 c 1
 1021.12 -11 997.125 -15 976.125 -14 c 0
 927.125 -14 885.125 4 850.125 39 c 0
 832.125 57 819.125 73 810.125 88 c 128
 801.125 103 779.125 147 746.125 220 c 1
 608.125 529 l 1
 573.125 435 522.125 329 455.125 211 c 1
 405.125 126 359.125 68 316.125 35 c 1
 277.125 4 235.125 -11 192.125 -10 c 1
 167.125 -8 l 1
 132.125 -2 103.125 13 80.125 39 c 0
 49.125 73 35.125 107 34.125 142 c 128
 33.125 177 38.125 205 49.125 228 c 1
 69.125 226 90.125 225 113.125 225 c 1
 175.125 228 l 1
 307.125 242 408.125 314 481.125 446 c 0
 504.125 487 531.125 546 563.125 623 c 1
 361.125 1071 l 1
EndSplineSet
Colour: ffffff
EndChar

StartChar: Y
Encoding: 58 89 57
Width: 1133
VWidth: 1655
GlyphClass: 2
Flags: HMW
LayerCount: 2
Fore
SplineSet
569 359 m 1
 540 98 l 1
 753 73 l 1
 735 0 l 1
 142 0 l 1
 156.736 72 l 1
 356 128 l 1
 385 423 l 1
 434.848 757.695 315.712 1071.64 34 1111 c 1
 52.6079 1202.18 119.67 1255.36 217 1262 c 1
 482.267 1262 540 950.902 540 664 c 1
 556 664 l 1
 579 763 613 863 658 962 c 1
 741 1153 842 1249 959 1249 c 0
 1038.65 1249 1128.58 1176.55 1095 1087 c 1
 995.267 1081.89 891.297 1045.13 825 995 c 1
 665.235 865.828 600.934 625.874 569 359 c 1
EndSplineSet
Colour: ffffff
EndChar

StartChar: Z
Encoding: 59 90 58
Width: 1145
VWidth: 1655
GlyphClass: 2
Flags: HMW
LayerCount: 2
Fore
SplineSet
188 1258 m 5
 1111 1228 l 5
 1102 1151 l 5
 256 94 l 5
 466 103 l 5
 617 112 739 123 832 139 c 5
 878 212 918 362 934 453 c 5
 1025 440 l 5
 1025 428 1025 418 1027 409 c 5
 1027 237.907 1011.68 99.0441 987 -10 c 5
 324 0 l 5
 240 0 l 5
 34 -20 l 5
 19 73 l 5
 883 1152 l 5
 349 1135 l 5
 274 884 l 5
 172 910 l 5
 188 1258 l 5
EndSplineSet
Colour: ffffff
EndChar

StartChar: bracketleft
Encoding: 60 91 59
Width: 642
VWidth: 1655
GlyphClass: 2
Flags: HMW
LayerCount: 2
Fore
SplineSet
403 -378 m 1
 42 -380 l 1
 245 1266 l 1
 600 1266 l 1
 600 1175 l 1
 383 1154 l 1
 208 -263 l 1
 426 -282 l 1
 403 -378 l 1
EndSplineSet
Colour: ffffff
EndChar

StartChar: backslash
Encoding: 61 92 60
Width: 480
VWidth: 1655
GlyphClass: 2
Flags: HMW
LayerCount: 2
Fore
SplineSet
175 1275 m 1
 438 -380 l 1
 309 -372 l 1
 42 1283 l 1
 175 1275 l 1
EndSplineSet
Colour: ffffff
EndChar

StartChar: bracketright
Encoding: 62 93 61
Width: 645
VWidth: 1655
GlyphClass: 2
Flags: HMW
LayerCount: 2
Fore
SplineSet
42 -378 m 1
 44 -282 l 1
 264 -263 l 1
 438 1154 l 1
 225 1175 l 1
 248 1266 l 1
 603 1266 l 1
 403 -380 l 1
 42 -378 l 1
EndSplineSet
Colour: ffffff
EndChar

StartChar: asciicircum
Encoding: 63 94 62
Width: 718
VWidth: 1655
GlyphClass: 2
Flags: HMW
LayerCount: 2
Fore
SplineSet
431 1224 m 1
 673 808 l 1
 611 771 l 1
 378 1052 l 1
 369 1052 l 1
 91 776 l 1
 45 809 l 1
 378 1212 l 1
 431 1224 l 1
EndSplineSet
Colour: ffffff
EndChar

StartChar: underscore
Encoding: 64 95 63
Width: 966
VWidth: 1655
GlyphClass: 2
Flags: HMW
LayerCount: 2
Fore
SplineSet
78 -28 m 1
 912 -28 l 1
 888 -134 l 1
 53 -134 l 1
 78 -28 l 1
EndSplineSet
Colour: ffffff
EndChar

StartChar: grave
Encoding: 65 96 64
Width: 372
VWidth: 1655
GlyphClass: 2
Flags: HMW
LayerCount: 2
Fore
SplineSet
65 1626 m 1
 179 1663 l 1
 307 1336 l 1
 251 1303 l 1
 65 1626 l 1
EndSplineSet
Colour: ffffff
EndChar

StartChar: a
Encoding: 66 97 65
Width: 922
VWidth: 1655
GlyphClass: 2
Flags: HMW
LayerCount: 2
Back
SplineSet
496 528 m 1
 500 665 513 760 539 816 c 128
 565 872 607 900 666 900 c 0
 668 900 682 899 708 896 c 1
 722 869 l 1
 640 484 l 1
 618 252 l 2
 616 224 615 199 615 176 c 0
 615 127 627 103 652 104 c 0
 665 104 685 121 714 154 c 128
 743 187 768 222 789 259 c 1
 837 221 l 1
 810 148 767 85 711 31 c 128
 655 -23 597 -51 537 -51 c 0
 485 -51 459 -16 460 54 c 0
 460 84 464 119 473 159 c 0
 483 200 488 228 491 245 c 0
 499 280 502 298 501 299 c 1
 490 305 l 1
 460 214 415 135 356 71 c 128
 297 7 241 -25 188 -25 c 128
 135 -25 95 -11 69 16 c 128
 43 43 30 78 30 122 c 128
 30 166 33 210 39 257 c 1
 83 619 l 2
 87 648 88 672 88 691 c 0
 88 731 77 751 54 751 c 128
 31 751 4 739 -28 716 c 128
 -60 693 -86 663 -106 626 c 1
 -149 656 l 1
 -89 816 12 896 155 896 c 0
 220 896 253 854 253 771 c 0
 253 760 246 695 232 577 c 2
 209 384 l 2
 199 301 195 247 194 223 c 0
 194 174 213 150 250 151 c 0
 355 151 437 277 496 528 c 1
EndSplineSet
Fore
SplineSet
794 900 m 1
 818 881 l 1
 726 491 l 1
 696 253 l 2
 687.858 189.491 688 116 733 116 c 0
 785.835 116 860.578 231.893 886 275 c 1
 927 240 l 1
 869.118 94.5117 807.392 -31 635 -31 c 0
 495.95 -31 539.652 175.79 568 287 c 1
 555 287 l 1
 520 203 474 131 417 70 c 128
 360 9 304 -21 249 -21 c 128
 108.948 -21 83 86.3643 83 225 c 128
 83 484 272.642 895 531 895 c 128
 585.25 895 626.583 873.333 655 830 c 1
 664 830 l 1
 695.2 876.667 735.067 900 794 900 c 1
254 288 m 0
 254 202.213 269.113 132 319 132 c 0
 368 132 423 183 486 285 c 128
 526.463 350.512 559.089 425.512 584.141 510 c 1
 599 670 l 1
 580.567 715.14 506.564 760 461 760 c 128
 301.989 760 254 449.577 254 288 c 0
EndSplineSet
Colour: ffffff
EndChar

StartChar: b
Encoding: 67 98 66
Width: 827
VWidth: 1655
GlyphClass: 2
Flags: HMW
LayerCount: 2
Back
SplineSet
442 762 m 4
 397 762 349 714 298 618 c 132
 247 522 214 400 196 249 c 5
 183 153 l 5
 214 108 269 86 346 88 c 4
 404 88 455 120 499 184 c 132
 543 248 565 355 565 505 c 4
 565 581 555 643 534 691 c 132
 513 739 483 762 442 762 c 4
318 1245 m 5
 269 845 l 5
 219 592 l 5
 228 592 l 5
 248 677 284 748 336 806 c 132
 388 864 447 893 511 893 c 132
 575 893 629 859 670 792 c 132
 711 725 732 639 732 535 c 132
 732 431 712 335 672 250 c 132
 632 165 574 99 500 50 c 132
 426 1 341 -24 244 -24 c 132
 147 -24 72 0 17 49 c 5
 149 1142 l 5
 13 1170 l 5
 24 1243 l 5
 303 1266 l 5
 318 1245 l 5
10 0 m 5
 21 79 l 5
 175 116 l 5
 175 1147 l 5
 15 1201 l 5
 27 1277 l 5
 316 1299 l 5
 341 1275 l 5
 341 850 l 5
 325 744 l 5
 335 744 l 5
 418 836 516 900 629 900 c 4
 767 900 872 842 872 599 c 6
 872 114 l 5
 1017 79 l 5
 1005 0 l 5
 556 0 l 5
 568 74 l 5
 703 114 l 5
 706 580 l 6
 706 722 613 764 534 764 c 4
 477 764 411 748 341 675 c 5
 341 116 l 5
 487 80 l 5
 475 0 l 5
 10 0 l 5
EndSplineSet
Fore
SplineSet
492 762 m 0
 348.638 762 266.822 423.675 246 249 c 1
 233 153 l 1
 264 108 319 86 396 88 c 1
 564.075 88 615 291.005 615 505 c 0
 615 619.589 591.735 762 492 762 c 0
370 1278 m 1
 319 845 l 1
 269 592 l 1
 278 592 l 1
 309.969 727.867 408.729 893 561 893 c 128
 713.672 893 782 703.961 782 535 c 128
 782 223.642 602.237 -24 294 -24 c 128
 197 -24 122 -0 67 49 c 1
 105 318 l 1
 201 1175 l 1
 65 1203 l 1
 76 1276 l 1
 355 1299 l 1
 370 1278 l 1
EndSplineSet
Colour: ffffff
EndChar

StartChar: c
Encoding: 68 99 67
Width: 685
VWidth: 1655
GlyphClass: 2
Flags: HMW
LayerCount: 2
Fore
SplineSet
551 652 m 1
 528.94 719.133 456.428 771.219 392.952 771.219 c 0
 266.974 771.219 233 541.031 233 392 c 0
 233 230.669 254.238 98 360 98 c 0
 465.622 98 567.979 210 605 267 c 1
 641 235 l 1
 603.674 129 434.11 -31 320 -31 c 0
 142.024 -31 73 135.991 73 332 c 0
 73 596.939 280 893 487 893 c 128
 580.274 893 650 839.258 650 759 c 128
 650 708 594 660 551 652 c 1
EndSplineSet
Colour: ffffff
EndChar

StartChar: d
Encoding: 69 100 68
Width: 882
VWidth: 1655
GlyphClass: 2
Flags: HMW
LayerCount: 2
Back
SplineSet
168 287 m 2
 168 224 171 179 178 151 c 128
 185 123 200 109 223 109 c 0
 264 109 304 136 346 188 c 128
 388 240 424 310 455 398 c 128
 486 486 507 579 517 678 c 1
 486 743 442 776 385 775 c 0
 344 775 306 752 271 705 c 128
 236 658 210 600 193 529 c 128
 176 458 168 384 168 305 c 2
 168 287 l 2
608 284 m 1
 601 242 597 209 598 185 c 128
 599 161 602 145 609 136 c 128
 616 127 627 123 643 123 c 128
 659 123 682 139 713 170 c 0
 745 201 770 234 790 270 c 1
 830 242 l 1
 778 64 680 -25 534 -24 c 0
 478 -24 450 17 450 98 c 0
 450 146 458 200 476 259 c 1
 463 263 l 1
 430 172 388 102 338 51 c 128
 288 0 234 -26 176 -26 c 128
 118 -26 75 -3 48 41 c 128
 21 85 8 146 8 225 c 128
 8 304 26 394 63 494 c 128
 100 594 151 684 217 763 c 128
 283 842 356 882 434 882 c 0
 486 882 517 872 527 851 c 1
 541 855 l 1
 561 1142 l 5
 427 1170 l 5
 437 1243 l 5
 712 1269 l 5
 731 1245 l 5
 608 284 l 1
EndSplineSet
Fore
SplineSet
788 1275 m 1
 665 284 l 2
 657 220 653.666 123 700 123 c 128
 748.709 123 825.204 230.768 847 270 c 1
 887 242 l 1
 835 64 737 -24 591 -24 c 0
 476.4 -24 503.133 161.103 533 259 c 1
 520 263 l 1
 472.105 130.926 383.374 -26 233 -26 c 128
 103.979 -26 65 86.5264 65 225 c 128
 65 476.188 240.262 882 491 882 c 0
 543 882 574 872 584 851 c 1
 598 855 l 1
 618 1172 l 1
 484 1200 l 1
 494 1273 l 1
 769 1299 l 1
 788 1275 l 1
280 109 m 0
 395.676 109 472.888 286.972 512 398 c 128
 543 486 564 579 574 678 c 1
 543 743 496 775 442 775 c 0
 275.652 775 225 478 225 305 c 0
 225 193 226 109 280 109 c 0
EndSplineSet
Colour: ffffff
EndChar

StartChar: e
Encoding: 70 101 69
Width: 686
VWidth: 1655
GlyphClass: 2
Flags: HMW
LayerCount: 2
Fore
SplineSet
233.26 350 m 1
 237.26 184.987 290.26 103 395.26 103 c 0
 472.26 103 541.26 157.713 601.26 266 c 5
 638.26 234 l 5
 596.142 101.292 474.528 -31 314.26 -31 c 128
 147.071 -31 73.2598 115.553 73.2598 293 c 128
 73.2598 560.583 250.339 897 470.26 897 c 0
 568.101 897 641 803.649 641 700.432 c 0
 641 486 454.26 399 233.26 350 c 1
394.26 760 m 0
 313.76 760 246.677 644.053 233.26 414 c 1
 352.26 453 477.181 516 477.181 644.957 c 0
 477.181 707.597 450.927 760 394.26 760 c 0
EndSplineSet
Colour: ffffff
EndChar

StartChar: f
Encoding: 71 102 70
Width: 530
VWidth: 1655
GlyphClass: 2
Flags: HMW
LayerCount: 2
Back
SplineSet
409 1238 m 132
 426 1218 434 1193 434 1163 c 132
 434 1133 423 1104 401 1079 c 132
 379 1054 353 1041 325 1041 c 132
 297 1041 276 1049 259 1068 c 132
 242 1087 234 1111 234 1140 c 132
 234 1169 242.735 1198 261 1226 c 132
 286.176 1254 312.446 1268 342 1268 c 132
 369 1268 392 1258 409 1238 c 132
345 254 m 5
 341 225 340 201 340 181 c 4
 340 142 351 123 374 123 c 132
 397 123 424 134 456 157 c 132
 488 180 514 209 534 246 c 5
 576 217 l 5
 516 57 420 -23 288 -23 c 4
 247 -23 217 -10 200 15 c 132
 183 40 175 71 175 108 c 132
 175 145 179 208 188 296 c 5
 224 611 l 6
 250.259 840.77 152.561 747.619 53 599 c 5
 5 631 l 5
 48.0264 743.759 161.278 906 299 906 c 4
 425.723 906 389 745 373 569 c 6
 345 254 l 5
EndSplineSet
Fore
SplineSet
-186 -132 m 1
 -126.567 -196 -66.2334 -228 -5 -228 c 0
 96.0083 -228 132.104 -119.895 149.526 -1 c 0
 182.053 222.502 203 572.888 209 737 c 1
 94 738 l 1
 106 800 l 1
 214 864 l 1
 235.718 1103.42 381.438 1329 642 1329 c 0
 761 1329 833.273 1281.15 833.273 1196.66 c 0
 833.273 1136.41 781.373 1095.23 742 1081 c 1
 702.215 1163 614.032 1212.93 531.768 1212.93 c 0
 389 1212.93 377.678 1016.16 373 839 c 1
 607 830 l 1
 588 732 l 1
 371 733 l 1
 359.636 257.68 302 -379.014 -110 -381 c 0
 -192.755 -381.397 -245 -331.574 -245 -242 c 0
 -239.851 -200.811 -212.543 -156.982 -186 -132 c 1
EndSplineSet
Colour: ffffff
EndChar

StartChar: g
Encoding: 72 103 71
Width: 819
VWidth: 1655
GlyphClass: 2
Flags: HMW
LayerCount: 2
Back
SplineSet
58 360 m 132
 58 621.322 191.454 895 447 895 c 132
 623.977 895 732 716 732 526 c 132
 732 264.391 598.426 -26 327 -26 c 132
 146.702 -26 58 146 58 360 c 132
222 460 m 4
 222 272 277.811 90 397 90 c 132
 526.371 90 570 230 570 424 c 4
 570 581.558 505.667 784 377 784 c 132
 263.747 784 222 642 222 460 c 4
EndSplineSet
Fore
SplineSet
543 377 m 1
 561 685 l 1
 538.086 733.219 502.445 772 438 772 c 128
 266.241 772 235.595 470.453 234 305 c 0
 234 226.947 244.853 129 288 129 c 128
 369.223 129 459.472 241.307 561 494 c 1
 579.339 470.656 588.157 463.976 596 459 c 1
 533.396 219.952 386.069 -26 246 -26 c 128
 116.426 -26 82 111.118 82 244 c 128
 82 485.736 257.782 897 467 897 c 0
 520.945 897 560.578 862.521 587 792 c 1
 597 792 l 1
 630.773 864.706 704.28 908.329 746 895 c 1
 764 880 l 1
 695 412 l 17
 843 -137 479.694 -378.023 273 -378.023 c 0
 114.847 -378.023 15 -341.39 15 -275 c 0
 15 -203.359 77 -155.121 137 -148 c 1
 162.096 -213 259.968 -247 334 -247 c 0
 520.735 -247 579.451 -83.709 579.451 99.8926 c 0
 579.451 193.278 564.261 291.919 543 377 c 1
EndSplineSet
Colour: ffffff
EndChar

StartChar: h
Encoding: 73 104 72
Width: 889
VWidth: 1655
GlyphClass: 2
Flags: HMW
LayerCount: 2
Back
SplineSet
336 364 m 5
 329.003 133.088 318.069 -47.7976 104 -24 c 5
 90 3 l 5
 192 388 l 5
 211 567 232 768 180 768 c 4
 138.314 768 63.4918 649.105 43 613 c 5
 -5 651 l 5
 36.9156 764.327 154.106 923 295 923 c 4
 415 923 358 651.314 331 553 c 5
 342 547 l 5
 384.914 659.424 537.205 897 666 897 c 132
 778.823 897 823.146 829.09 823.146 713.126 c 4
 823.146 571 706.721 286 706.721 156.993 c 4
 706.721 133.391 713.037 121 730 121 c 132
 806.745 121 861.84 195.437 889 246 c 5
 932 216 l 5
 873.382 56 774.707 -24 635 -24 c 4
 557.051 -24 532.279 3.25322 532.279 74.6055 c 4
 532.279 202 650.969 442 650.969 644.743 c 4
 650.969 695.722 632.334 721 594 721 c 4
 503.297 721 397.878 601.684 336 364 c 5
EndSplineSet
Fore
SplineSet
253 1180 m 1
 117 1208 l 1
 127 1281 l 1
 414 1304 l 1
 430 1283 l 1
 360 825 l 1
 297 564 l 1
 309 561 l 1
 382.14 731.036 515.7 898 627 898 c 128
 743.819 898 776.696 818.184 776.696 707.854 c 0
 776.696 520.505 661.542 265 661.542 168.56 c 0
 661.542 144.324 668.426 123 694 123 c 128
 758.568 123 825.924 195.91 853 246 c 1
 894 217 l 1
 841.209 80.7646 764.815 -23 593 -23 c 0
 516.116 -23 495.788 18.5566 495.788 74.8428 c 0
 495.788 186.991 606.819 455.082 606.819 636.39 c 0
 606.819 695.325 591.442 716 560 716 c 0
 438 716 344.746 541.983 304 386 c 1
 296.917 141.599 283.009 -42.1592 70 -19 c 1
 55 8 l 1
 155 434 l 1
 253 1180 l 1
EndSplineSet
Colour: ffffff
EndChar

StartChar: i
Encoding: 74 105 73
Width: 591
VWidth: 1655
GlyphClass: 2
Flags: HMW
LayerCount: 2
Fore
SplineSet
494 1163 m 132
 494 1104.39 442.939 1041 385 1041 c 132
 328.332 1041 294 1083.24 294 1140 c 132
 294 1203.43 342.23 1268 402 1268 c 132
 458.661 1268 494 1220.91 494 1163 c 132
342.717 187.354 m 0
 342.717 152.77 349.137 123 376 123 c 128
 440.468 123 507.02 189.565 534 236 c 1
 576 207 l 1
 516 53.667 420 -23 288 -23 c 0
 195.765 -23 173.159 44.8193 173.159 129.938 c 0
 173.159 253 268.33 490.497 268.33 676.479 c 0
 268.33 728.158 256.93 749.552 238.188 749.552 c 0
 200.63 749.552 137.154 683.172 73 599 c 1
 25 631 l 1
 72.417 743.759 197.225 906 349 906 c 0
 418.314 906 436.493 853.326 436.493 775.301 c 0
 436.493 588.646 342.717 379.456 342.717 187.354 c 0
EndSplineSet
Colour: ffffff
EndChar

StartChar: j
Encoding: 75 106 74
Width: 508
VWidth: 1655
GlyphClass: 2
Flags: HMW
LayerCount: 2
Back
SplineSet
429 1163 m 132
 429 1104.39 377.939 1041 320 1041 c 132
 263.332 1041 229 1083.24 229 1140 c 132
 229 1203.43 277.23 1268 337 1268 c 132
 393.661 1268 429 1220.91 429 1163 c 132
327.717 187.354 m 4
 327.717 152.77 334.137 123 361 123 c 132
 429.548 123 500.312 195.456 529 246 c 5
 571 217 l 5
 508.917 57 409.583 -23 273 -23 c 4
 180.765 -23 158.159 44.8193 158.159 129.938 c 4
 158.159 253 233.33 490.497 233.33 676.479 c 4
 233.33 728.158 221.93 749.552 203.188 749.552 c 4
 167.903 749.552 108.271 683.172 48 599 c 5
 0 631 l 5
 45.9531 743.759 166.909 906 314 906 c 4
 383.314 906 401.493 853.326 401.493 775.301 c 4
 401.493 588.647 327.717 379.456 327.717 187.354 c 4
EndSplineSet
Fore
SplineSet
455 1163 m 128
 455 1104.39 403.939 1041 346 1041 c 128
 289.332 1041 255 1083.24 255 1140 c 128
 255 1203.43 303.23 1268 363 1268 c 128
 419.661 1268 455 1220.91 455 1163 c 128
-145 -132 m 1
 -82.3174 -196 -19.6328 -228 44 -228 c 0
 169 -228 153 -94 187.831 182 c 0
 204.497 314.064 265.111 609.483 265.111 681.359 c 0
 265.111 720.079 254.99 752 225 752 c 0
 178.068 752 101.855 620.711 89 595 c 1
 38 631 l 1
 79.7354 743.685 192.683 909 335 909 c 128
 419.198 909 441.891 844.498 441.891 764.942 c 0
 441.891 705.503 389.415 457.78 349 210 c 0
 337.274 129.919 331.724 64.1611 322.658 -14 c 0
 309.008 -116.081 263.252 -192.748 234 -230 c 128
 177.016 -317.345 58.2275 -381 -59 -381 c 1
 -146.902 -373.572 -204 -331.374 -204 -242 c 1
 -198.851 -200.811 -171.543 -156.982 -145 -132 c 1
EndSplineSet
Colour: ffffff
EndChar

StartChar: k
Encoding: 76 107 75
Width: 827
VWidth: 1655
GlyphClass: 2
Flags: HMW
LayerCount: 2
Back
SplineSet
194 885 m 5
 226 1175 l 5
 90 1203 l 5
 101 1276 l 5
 380 1299 l 5
 395 1278 l 5
 318 623 l 5
 278 253 l 6
 276 230 275 208 275 188 c 4
 275 143 286 121 309 121 c 132
 332 121 359 133 391 156 c 132
 423 179 449 209 470 246 c 5
 512 216 l 5
 452 56 351 -24 207 -24 c 4
 138 -24 104 24 104 120 c 4
 104 158 109 216 120 295 c 5
 194 885 l 5
EndSplineSet
Fore
SplineSet
383 401 m 5
 530.206 504.677 618.664 631.581 618.664 700.086 c 4
 618.664 729.681 607.343 748 583 748 c 4
 499 748 319 495 286 405 c 5
 280.292 153.973 264.119 -86.8311 71 -13 c 5
 65 0 l 5
 148 440 l 5
 235 1175 l 5
 100 1203 l 5
 110 1276 l 5
 397 1299 l 5
 413 1278 l 5
 355 832 l 5
 290 551 l 5
 303 546 l 5
 337.824 600.613 523 906 673 906 c 4
 713.981 906 767.1 851.235 767.1 765.239 c 4
 767.1 675.643 703.9 551.89 496 421 c 5
 524 317.072 606 123 656 123 c 4
 684 123 758 164 805 246 c 5
 847 216 l 5
 809 103 692 -13 589 -13 c 4
 432 -13 395 260.738 372 383 c 5
 383 401 l 5
EndSplineSet
Colour: ffffff
EndChar

StartChar: l
Encoding: 77 108 76
Width: 475
VWidth: 1655
GlyphClass: 2
Flags: HMW
LayerCount: 2
Back
SplineSet
409 1238 m 132
 426 1218 434 1193 434 1163 c 132
 434 1133 423 1104 401 1079 c 132
 379 1054 353 1041 325 1041 c 132
 297 1041 276 1049 259 1068 c 132
 242 1087 234 1111 234 1140 c 132
 234 1169 242.735 1198 261 1226 c 132
 286.176 1254 312.446 1268 342 1268 c 132
 369 1268 392 1258 409 1238 c 132
345 254 m 5
 341 225 340 201 340 181 c 4
 340 142 351 123 374 123 c 132
 397 123 424 134 456 157 c 132
 488 180 514 209 534 246 c 5
 576 217 l 5
 516 57 420 -23 288 -23 c 4
 247 -23 217 -10 200 15 c 132
 183 40 175 71 175 108 c 132
 175 145 179 208 188 296 c 5
 224 611 l 6
 250.259 840.77 152.561 747.619 53 599 c 5
 5 631 l 5
 48.0264 743.759 161.278 906 299 906 c 4
 425.723 906 389 745 373 569 c 6
 345 254 l 5
EndSplineSet
Fore
SplineSet
169 885 m 5
 201 1175 l 1
 65 1203 l 1
 76 1276 l 1
 363 1299 l 1
 378 1278 l 1
 293 623 l 1
 256 253 l 2
 251.647 202.942 245.641 121 287 121 c 128
 352.475 121 419.462 195.718 448 246 c 1
 490 216 l 1
 430 56 329 -24 185 -24 c 0
 53.0391 -24 81 154 98 295 c 2
 169 885 l 5
EndSplineSet
Colour: ffffff
EndChar

StartChar: m
Encoding: 78 109 77
Width: 1372
VWidth: 1655
GlyphClass: 2
Flags: HMW
LayerCount: 2
Back
SplineSet
756 364 m 1
 749.003 133.088 738.069 -47.7976 524 -24 c 1
 510 3 l 1
 612 388 l 1
 631 567 652 768 600 768 c 0
 558.314 768 483.492 649.105 463 613 c 1
 415 651 l 1
 456.916 764.327 574.106 923 715 923 c 0
 835 923 778 651.314 751 553 c 1
 762 547 l 1
 804.914 659.424 957.205 897 1086 897 c 132
 1198.82 897 1243.15 829.09 1243.15 713.126 c 4
 1243.15 571 1126.72 286 1126.72 156.993 c 4
 1126.72 133.391 1133.04 121 1150 121 c 132
 1226.75 121 1281.84 195.437 1309 246 c 5
 1352 216 l 5
 1293.38 56 1194.71 -24 1055 -24 c 4
 977.051 -24 952.279 3.25323 952.279 74.6055 c 0
 952.279 202 1070.97 442 1070.97 644.743 c 4
 1070.97 695.722 1052.33 721 1014 721 c 4
 923.297 721 817.878 601.684 756 364 c 1
EndSplineSet
Fore
SplineSet
1095.97 644.743 m 0
 1095.97 695.722 1077.33 721 1039 721 c 0
 905.821 723.038 819.38 520.72 776 343 c 1
 768.939 122.471 761.366 -44.8965 549 -30 c 1
 533 -2 l 1
 632 378 l 1
 650.212 500.929 699.405 712 597 712 c 0
 475 712 400.314 513.939 361 344 c 1
 353.931 122.744 343.275 -39.9785 129 -19 c 1
 115 8 l 1
 217 378 l 1
 222.812 441.204 271.47 761.319 205.941 761.319 c 0
 165.705 761.319 102.783 670.417 68 605 c 1
 20 641 l 1
 62.2021 759.297 177.797 923 320 923 c 0
 424 923 382 665.878 356 562 c 1
 367 560 l 1
 410.637 686.299 526.075 888 669 888 c 128
 819.015 888 826 762 798 618 c 1
 808 613 l 1
 888.433 802.675 989.8 897 1111 897 c 128
 1223.82 897 1268.15 829.09 1268.15 713.126 c 0
 1268.15 571 1151.72 286 1151.72 156.993 c 0
 1151.72 133.391 1158.04 121 1175 121 c 128
 1251.75 121 1306.84 195.437 1334 246 c 1
 1377 216 l 1
 1318.38 56 1219.71 -24 1080 -24 c 0
 991.155 -24 974 11.9863 974 61 c 0
 974 223 1095.97 427 1095.97 644.743 c 0
EndSplineSet
Colour: ffffff
EndChar

StartChar: n
Encoding: 79 110 78
Width: 952
VWidth: 1655
GlyphClass: 2
Flags: HMW
LayerCount: 2
Fore
SplineSet
361 364 m 5
 354.003 133.088 343.069 -47.7979 129 -24 c 5
 115 3 l 5
 217 388 l 5
 236 567 257 768 205 768 c 4
 163.314 768 88.4922 649.105 68 613 c 5
 20 651 l 5
 61.916 764.327 179.106 923 320 923 c 4
 440 923 383 651.314 356 553 c 5
 367 547 l 5
 409.914 659.424 562.205 897 691 897 c 132
 803.823 897 848.146 829.09 848.146 713.126 c 4
 848.146 571 731.721 286 731.721 156.993 c 4
 731.721 133.391 738.037 121 755 121 c 132
 831.745 121 886.84 195.437 914 246 c 5
 957 216 l 5
 898.382 56 799.707 -24 660 -24 c 4
 582.051 -24 557.279 3.25293 557.279 74.6055 c 4
 557.279 202 675.969 442 675.969 644.743 c 4
 675.969 695.722 657.334 721 619 721 c 4
 528.297 721 422.878 601.684 361 364 c 5
EndSplineSet
Colour: ffffff
EndChar

StartChar: o
Encoding: 80 111 79
Width: 792
VWidth: 1655
GlyphClass: 2
Flags: HMW
LayerCount: 2
Fore
SplineSet
73 360 m 132
 73 621.322 206.454 895 462 895 c 132
 638.977 895 747 716 747 526 c 132
 747 264.391 613.426 -26 342 -26 c 132
 161.702 -26 73 146 73 360 c 132
237 460 m 4
 237 272 292.811 90 412 90 c 132
 541.371 90 585 230 585 424 c 4
 585 581.558 520.667 784 392 784 c 132
 278.747 784 237 642 237 460 c 4
EndSplineSet
Colour: ffffff
EndChar

StartChar: p
Encoding: 81 112 80
Width: 879
VWidth: 1655
GlyphClass: 2
Flags: HMW
LayerCount: 2
Back
SplineSet
326 204 m 5
 316.698 -32.8959 286.465 -197.167 226 -294 c 132
 200 -350 158 -378 99 -378 c 4
 97 -378 83 -377 57 -374 c 5
 43 -347 l 5
 182 248 l 5
 214 620 l 2
 216 648 217 673 217 696 c 0
 217 745 205 769 180 768 c 0
 167 768 147 751 118 718 c 128
 89 685 64 650 43 613 c 1
 -5 651 l 1
 22 724 65 787 121 841 c 128
 177 895 235 923 295 923 c 0
 347 923 373 888 372 818 c 0
 372 788 368 753 359 713 c 0
 349 672 344 644 341 627 c 0
 333 592 330 574 331 573 c 1
 342 567 l 1
 372 658 417 737 476 801 c 128
 535 865 591 897 644 897 c 128
 697 897 737 883 763 856 c 128
 789 829 802 794 802 750 c 128
 802 706 799 662 793 615 c 1
 749 253 l 2
 745 224 744 200 744 181 c 0
 744 141 755 121 778 121 c 128
 801 121 828 133 860 156 c 128
 892 179 918 209 938 246 c 1
 981 216 l 1
 921 56 820 -24 677 -24 c 0
 612 -24 579 18 579 101 c 0
 579 112 586 177 600 295 c 2
 623 488 l 2
 633 571 637 625 638 649 c 0
 638 698 619 722 582 721 c 0
 472.732 721 387.398 548.21 326 204 c 5
EndSplineSet
Fore
SplineSet
287 112 m 1
 313.632 306.35 358.789 459.3 419 572 c 128
 471 670 523 719 575 719 c 0
 653.271 719 660 622.581 660 524 c 0
 660 243.536 591.367 91.6221 358 62 c 1
 365 -12 l 1
 662.766 -12 834 218.779 834 540 c 128
 834 697.034 777.227 877 639 877 c 128
 491.069 877 396.709 681.829 346 553 c 1
 336 555 l 1
 336 557 337 561 339 570 c 128
 358.597 658.185 436.059 915 297 915 c 0
 154.068 915 42.5576 748.977 1 632 c 1
 47 595 l 1
 67.5068 632.107 142.021 754 184 754 c 0
 233.189 754 225.677 664.902 216 602 c 2
 149 131 l 17
 28 -347 l 1
 42 -374 l 1
 244.787 -402.78 287 -258.205 287 112 c 1
EndSplineSet
Colour: ffffff
EndChar

StartChar: q
Encoding: 82 113 81
Width: 839
VWidth: 1655
GlyphClass: 2
Flags: HMW
LayerCount: 2
Fore
SplineSet
634 -108 m 2
 625 -214 631 -239 672 -239 c 0
 737 -239 805 -178 832 -136 c 1
 864 -185 l 1
 800 -318 697 -385 556 -385 c 0
 485 -385 443 -320 443 -254 c 0
 443 -122.223 493.617 95.3623 543 268 c 1
 530 268 l 1
 415 54 339 -26 237 -26 c 0
 114.927 -26 83 111 83 244 c 0
 83 486 259 897 468 897 c 0
 526 897 568 863 596 792 c 1
 606 792 l 1
 642 865 722 908 767 895 c 1
 785 880 l 1
 651 103 l 1
 634 -108 l 2
574 505 m 1
 570 685 l 1
 546 733 508 772 439 772 c 0
 267 772 237 470 235 305 c 0
 235 227 246 129 289 129 c 0
 355 129 468.604 245.277 574 505 c 1
EndSplineSet
Colour: ffffff
EndChar

StartChar: r
Encoding: 83 114 82
Width: 737
VWidth: 1655
GlyphClass: 2
Flags: HMW
LayerCount: 2
Back
SplineSet
293 1180 m 5
 157 1208 l 5
 167 1281 l 5
 454 1304 l 5
 470 1283 l 5
 400 825 l 5
 337 564 l 5
 349 561 l 5
 418 727 544 890 649 890 c 132
 780.646 890 817.696 813.542 817.696 707.854 c 4
 817.696 520.505 701.542 265 701.542 168.56 c 4
 701.542 144.325 708.426 123 734 123 c 132
 798.568 123 865.924 195.91 893 246 c 5
 934 217 l 5
 881.209 80.7647 804.815 -23 633 -23 c 4
 556.116 -23 535.788 18.5564 535.788 74.8428 c 4
 535.788 186.991 646.819 455.082 646.819 636.39 c 4
 646.819 695.326 631.443 716 600 716 c 4
 438.756 716 384.746 520.89 344 346 c 5
 336.917 125.737 323.009 -39.8721 110 -19 c 5
 95 8 l 5
 195 434 l 5
 293 1180 l 5
EndSplineSet
Fore
SplineSet
377 345 m 129
 389 154 395.253 -42 168 -14 c 1
 154 13 l 1
 227 388 l 1
 228.136 431.034 233.611 551.448 233.611 640.982 c 0
 233.611 700.778 223.782 746.801 192.356 746.801 c 0
 154.958 746.801 78.8398 642.712 68 619 c 1
 20 655 l 1
 60.7637 757.682 155.946 899 289 899 c 0
 393.144 899 392 793 380 693 c 2
 347 430 l 1
 361 427 l 1
 419.649 607 463.162 866 606 866 c 0
 676.879 866 726 820.178 726 755 c 0
 726 695.247 701.049 649.979 680 641 c 1
 680 641 653.525 669 563 669 c 128
 507.959 669 449.122 557.694 377 345 c 129
EndSplineSet
Colour: ffffff
EndChar

StartChar: s
Encoding: 84 115 83
Width: 667
VWidth: 1655
GlyphClass: 2
Flags: HMW
LayerCount: 2
Fore
SplineSet
87 610 m 0
 87 768.838 255.959 897 439 897 c 0
 528.688 897 622 855.189 622 763 c 0
 622 710.481 590 672.449 526 648 c 1
 487.014 713.258 433.978 788 342 788 c 128
 269.974 788 214 743.562 214 686 c 0
 214 514 609.261 425.857 605 239 c 128
 601.301 66.6191 434.439 -35 257 -35 c 128
 162.204 -35 45 13.8525 45 99 c 128
 45 169.578 96.4912 225.302 160 233 c 1
 187.348 154.522 248.895 77 360 77 c 128
 417.809 77 458 105.923 458 171 c 0
 450.041 334.406 87 358 87 610 c 0
EndSplineSet
Colour: ffffff
EndChar

StartChar: t
Encoding: 85 116 84
Width: 641
VWidth: 1655
GlyphClass: 2
Flags: HMW
LayerCount: 2
Back
SplineSet
-186 -132 m 1
 -126.567 -196 -66.2334 -228 -5 -228 c 0
 120 -228 140.805 -73.1948 153.716 65 c 0
 173.538 270.911 179.87 557.681 189 722 c 1
 74 723 l 1
 86 815 l 1
 194 829 l 1
 215.718 1086.44 361.438 1329 622 1329 c 0
 734.419 1324.13 816 1251.78 816 1165 c 0
 816 1106.34 767.987 1066.35 712 1041 c 1
 662.93 1143.18 585.781 1210.39 510.389 1210.39 c 0
 361.873 1210.39 358.06 1023.31 353 824 c 1
 587 815 l 1
 568 717 l 1
 351 718 l 1
 340.108 249.08 344 -381 -110 -381 c 0
 -192.756 -381 -245 -331.574 -245 -242 c 0
 -239.851 -200.811 -212.543 -156.982 -186 -132 c 1
EndSplineSet
Fore
SplineSet
527 263 m 1
 564 227 l 1
 518.212 108.448 421.526 -23 242 -23 c 0
 42 -23 126 268.705 202 732 c 1
 90 735 l 1
 105 800 l 1
 218 851 l 1
 281 1032 l 1
 404 1051 l 1
 415 1038 l 1
 379 829 l 1
 584 822 l 1
 568 732 l 1
 356 727 l 1
 321 522.145 302.963 410.841 289.723 248 c 0
 284.61 185.384 290.059 126.564 335 125.799 c 0
 390.629 124.852 471.749 181.818 527 263 c 1
EndSplineSet
Colour: ffffff
EndChar

StartChar: u
Encoding: 86 117 85
Width: 976
VWidth: 1655
GlyphClass: 2
Flags: HMW
LayerCount: 2
Fore
SplineSet
632 507 m 1
 635.372 724.675 665 923.467 860 895 c 1
 876 867 l 1
 776 484 l 1
 759 284 l 2
 751.963 212.225 730.128 123 794 123 c 128
 842.767 123 917.961 230.329 940 270 c 1
 981 242 l 1
 929 64 818 -24 686 -24 c 0
 563.691 -24 594.723 165.384 625 283 c 1
 614 285 l 1
 555.57 147.44 404.981 -26 266 -26 c 128
 167.746 -26 136.719 35.1221 136.719 116.13 c 0
 136.719 247 245.456 508 245.456 672.951 c 0
 245.456 707.846 237.942 736.828 211 738 c 0
 180 738 132 689 68 592 c 1
 20 623 l 1
 62.8896 735.4 176.993 899 314 899 c 0
 403.539 899 429.093 844.69 429.093 770.309 c 0
 429.093 646 317.979 364 317.979 216.477 c 0
 317.979 180.227 330.95 150 377 150 c 0
 485 150 589.929 347.114 632 507 c 1
EndSplineSet
Colour: ffffff
EndChar

StartChar: v
Encoding: 87 118 86
Width: 878
VWidth: 1655
GlyphClass: 2
Flags: HMW
LayerCount: 2
Fore
SplineSet
361 400 m 2
 339.265 239.952 351.132 91 472 91 c 128
 626.117 91 681 378.888 681 545 c 0
 681 667 639 768 555 845 c 1
 586 879 622.988 896 666 896 c 128
 749 896 803 790.931 803 688 c 0
 803 389.45 674.118 -21 385 -21 c 0
 224.932 -21 172.358 123.904 202 349 c 2
 234 592 l 2
 246.147 684.244 249.819 735 207 735 c 128
 198.137 735 149 705 63 579 c 1
 15 611 l 1
 60.957 722.188 178.26 887 317 887 c 1
 372 887 399 840 399 744 c 0
 399 719 390 631 372 481 c 2
 361 400 l 2
EndSplineSet
Colour: ffffff
EndChar

StartChar: w
Encoding: 88 119 87
Width: 1224
VWidth: 1655
GlyphClass: 2
Flags: HMW
LayerCount: 2
Fore
SplineSet
233 618 m 2
 246 675 270.424 760 229 760 c 0
 206 760 150 709 61 607 c 1
 20 637 l 1
 76.0205 744.686 205.616 913 341 913 c 0
 403.558 913 423.64 876.628 423.64 822.849 c 0
 423.64 678 312 442 312 249 c 0
 312 161 346 117 413 116 c 1
 542 116 590.921 296.592 611 484 c 1
 601.629 676.097 594.806 859.024 787 835 c 1
 798 817 l 1
 739 456 l 1
 732 300 725.482 106 844 106 c 0
 987.105 106 1032 370.832 1032 534 c 0
 1032 654.286 980.216 781.213 932 858 c 1
 969 886 1004 900 1039 900 c 128
 1124.3 900 1154 774.214 1154 676 c 128
 1154 384.688 1014 -24 743 -24 c 0
 634.033 -24 604 56.9082 604 193 c 1
 591 195 l 1
 551.322 75.9668 457.335 -26 310 -26 c 0
 202 -26 148 42 148 178 c 0
 148 225 153.085 268.209 172 351 c 2
 233 618 l 2
EndSplineSet
Colour: ffffff
EndChar

StartChar: x
Encoding: 89 120 88
Width: 946
VWidth: 1655
GlyphClass: 2
Flags: HMW
LayerCount: 2
Fore
SplineSet
437 312 m 1
 336 83.3926 239 -31.9404 146 -34 c 0
 113 -34 88 -24 71 -4 c 128
 54 16 45 41 45 70 c 0
 45 127 61 170 93 197 c 1
 122 171 156 158 195 158 c 0
 268 158 337 239 402 401 c 1
 377.286 502 308.801 731 229 731 c 0
 207 731 171 685 122 592 c 1
 75 629 l 1
 137 798 220 882 325 882 c 0
 449.39 882 504.122 674 529 542 c 1
 573 641.161 619 721.798 668 785 c 128
 717 843 758 871 793 871 c 128
 828 871 854 863 873 846 c 128
 892 829 901 810 901 786 c 0
 901 733 886 690 855 657 c 1
 835 675 803 683 756 683 c 0
 685 683 618 614 557 474 c 1
 571 394 641.445 113 698 113 c 128
 716 113 736 124 760 146 c 128
 784 168 807 198 829 237 c 1
 872 207 l 1
 815 54 728 -23 611 -23 c 0
 500.921 -23 457 190 437 312 c 1
EndSplineSet
Colour: ffffff
EndChar

StartChar: y
Encoding: 90 121 89
Width: 902
VWidth: 1655
GlyphClass: 2
Flags: HMW
LayerCount: 2
Fore
SplineSet
74 662 m 1
 25 699 l 1
 60.5059 779.862 159.636 902 280 902 c 128
 486.952 902 478 318 460 154 c 1
 469 154 l 1
 600.27 278.186 663 419.07 663 585 c 128
 663 714 583 813 528 848 c 1
 550.986 876.29 604.283 906 654 906 c 0
 748.412 906 819 822 819 677 c 0
 819 435 662.027 231.521 456 56 c 1
 434.395 -138.09 321.003 -381 123 -381 c 128
 33.2676 -381 -43 -339.494 -43 -254 c 0
 -35.0811 -193.545 -17.7373 -173.45 32 -141 c 1
 79.6221 -189 127.236 -212 173 -212 c 128
 291.389 -212 320.569 -168.925 320.569 -42.8711 c 0
 320.569 171 284.881 748 200 748 c 128
 148.776 748 97.4082 689.956 74 662 c 1
EndSplineSet
Colour: ffffff
EndChar

StartChar: z
Encoding: 91 122 90
Width: 828
VWidth: 1655
GlyphClass: 2
Flags: HMW
LayerCount: 2
Fore
SplineSet
619 858 m 0
 691.92 858 753.216 866 805 883 c 1
 823 855 l 1
 479 414 l 5
 275 113 l 1
 369.399 143.251 456.205 56 534 56 c 0
 579.819 56 601.738 86.0225 604 129 c 128
 606.253 171.803 582.609 269.623 571 303 c 1
 603 319 632 327 658 327 c 0
 718.706 327 759 289.897 759 227 c 0
 759 102.251 637.667 -13 499 -13 c 0
 428.741 -13 310.953 16 188 16 c 128
 145 16 100 10 54 -2 c 1
 35 26 l 1
 319 395 l 5
 583 765 l 1
 483.285 749.048 412.127 815 325 815 c 0
 282 815 259 776 255 699 c 0
 255 657.05 256.776 621.528 264 583 c 1
 183.193 552.697 87 595.498 87 681 c 128
 87 792.396 212 877 348 877 c 0
 432.377 877 518.903 859.43 619 858 c 0
EndSplineSet
Colour: ffffff
EndChar

StartChar: braceleft
Encoding: 92 123 91
Width: 717
VWidth: 1655
GlyphClass: 2
Flags: HMW
LayerCount: 2
Fore
SplineSet
482 -280 m 1
 478 -381 l 1
 373 -381 l 2
 302 -381 251 -361 221 -321 c 128
 191 -281 176 -220 176 -139 c 0
 176 -108 180 -53 189 25 c 128
 198 103 201 160 201 199 c 0
 201 311 165 373 94 385 c 2
 42 393 l 1
 55 492 l 1
 106 500 l 2
 151 508 187 531 215 572 c 128
 243 613 261 662 271 721 c 0
 294 874 316 993 337 1080 c 0
 352 1136 380 1181 420 1215 c 128
 460 1249 511 1266 574 1266 c 2
 675 1266 l 1
 654 1164 l 1
 572 1158 l 2
 519 1153 485 1076 471 925 c 0
 466 880 464 853 462 843 c 128
 460 833 459 818 456 797 c 128
 453 776 451 762 449 752 c 128
 447 742 445 729 441 711 c 128
 437 693 434 680 430 669 c 128
 426 658 421 646 415 630 c 0
 380 532 322 471 241 448 c 1
 239 442 l 1
 327 415 371 331 372 191 c 0
 372 155 368 95 358 11 c 128
 348 -73 344 -129 344 -158 c 0
 344 -232 365 -271 408 -275 c 2
 482 -280 l 1
EndSplineSet
Colour: ffffff
EndChar

StartChar: bar
Encoding: 93 124 92
Width: 388
VWidth: 1655
GlyphClass: 2
Flags: HMW
LayerCount: 2
Fore
SplineSet
155 -355 m 1
 42 -343 l 1
 234 1229 l 1
 346 1218 l 1
 155 -355 l 1
EndSplineSet
Colour: ffffff
EndChar

StartChar: braceright
Encoding: 94 125 93
Width: 723
VWidth: 1655
GlyphClass: 2
Flags: HMW
LayerCount: 2
Fore
SplineSet
351 686 m 2
 351 706 l 2
 351 753 355 816 366 894 c 128
 377 972 382 1024 382 1053 c 0
 382 1120 364 1155 327 1158 c 2
 245 1164 l 1
 250 1266 l 1
 351 1266 l 2
 421 1266 471 1246 502 1205 c 128
 533 1164 548 1104 548 1026 c 0
 548 985 544 926 535 850 c 128
 526 774 523 722 523 693 c 0
 523 578 560 514 633 500 c 2
 680 492 l 1
 668 393 l 1
 615 385 l 2
 572 377 536 354 509 314 c 128
 482 274 465 224 457 165 c 0
 434 11 411 -109 388 -195 c 0
 372 -252 345 -296 303 -330 c 128
 261 -364 208 -381 145 -381 c 2
 42 -381 l 1
 64 -280 l 1
 138 -275 l 1
 197 -270 234 -192 252 -40 c 1
 270 107 285 200 301 239 c 128
 317 278 331 311 347 336 c 0
 382 390 427 425 484 442 c 1
 484 448 l 1
 395 473 351 552 351 686 c 2
EndSplineSet
Colour: ffffff
EndChar

StartChar: asciitilde
Encoding: 95 126 94
Width: 910
VWidth: 1655
GlyphClass: 2
Flags: HMW
LayerCount: 2
Fore
SplineSet
46 416 m 1
 48 423 51 430 56 440 c 0
 88 514 129 566 179 595 c 0
 202 609 225 616 249 616 c 2
 255 616 l 1
 257 614 259 614 263 615 c 2
 705 571 l 1
 710 571 l 2
 731 571 756 586 785 616 c 2
 800 631 l 1
 865 631 l 1
 858 611 847 589 831 562 c 128
 815 535 799 513 783 495 c 128
 767 477 749 462 726 448 c 128
 703 434 679 427 656 427 c 2
 640 427 l 1
 196 472 l 1
 191 472 l 2
 167 472 141 455 113 421 c 1
 99 402 l 1
 46 416 l 1
EndSplineSet
Colour: ffffff
EndChar

StartChar: exclamdown
Encoding: 97 161 96
Width: 391
VWidth: 1655
GlyphClass: 2
Flags: HMW
LayerCount: 2
Fore
SplineSet
306.767 -296 m 1
 275.767 -318 239.767 -329 198.767 -328 c 128
 157.767 -327 124.767 -316 98.7666 -293 c 128
 72.7666 -270 55.7666 -236 47.7666 -191 c 1
 42.7666 -171 40.7666 -149 42.7666 -123 c 0
 42.7666 -48 60.7666 81 95.7666 263 c 1
 171.767 623 l 1
 242.767 636 l 1
 231.767 467 l 2
 225.767 381 223.767 275 223.767 150 c 2
 223.767 88 l 1
 228.767 -61 255.767 -189 306.767 -296 c 1
177.767 755 m 128
 166.767 761 156.767 770 145.767 783 c 128
 134.767 796 130.767 807 127.767 818 c 128
 124.767 829 123.767 836 123.767 841 c 128
 123.767 846 125.767 861 131.767 888 c 128
 137.767 915 151.767 939 174.767 962 c 128
 197.767 985 224.767 996 254.767 996 c 1
 281.767 994 301.767 985 317.767 969 c 128
 333.767 953 341.767 937 344.767 919 c 128
 347.767 901 348.767 892 348.767 890 c 128
 348.767 888 347.767 876 342.767 853 c 128
 337.767 830 324.767 808 301.767 785 c 128
 278.767 762 255.767 749 231.767 748 c 128
 207.767 747 188.767 749 177.767 755 c 128
EndSplineSet
Colour: ffffff
EndChar

StartChar: cent
Encoding: 98 162 97
Width: 702
VWidth: 0
GlyphClass: 2
Flags: HMW
LayerCount: 2
Fore
SplineSet
366 92 m 3
 449 92 499 122 549 157 c 1
 573 106 l 1
 512 30 402 -30 305 -30 c 3
 143 -30 42 92 42 307 c 0
 42 674 320 900 492 900 c 3
 599 900 660 842 660 756 c 27
 660 687 595 649 521 642 c 1
 516 710 498 806 442 806 c 3
 345 806 214 621 214 330 c 0
 214 191 259 92 366 92 c 3
447.595 1114 m 1
 596.275 1131 l 1
 530.011 863 l 1
 439.011 863 l 1
 447.595 1114 l 1
175.05 -266 m 1
 243 0 l 1
 332 0 l 1
 325.573 -250 l 1
 175.05 -266 l 1
EndSplineSet
Colour: ffffff
EndChar

StartChar: sterling
Encoding: 99 163 98
Width: 1130
VWidth: 1655
GlyphClass: 2
Flags: HMW
LayerCount: 2
Fore
SplineSet
964 877 m 1
 884 890 l 1
 866 1099 l 1
 839 1115 813 1122 786 1122 c 0
 707 1122 651 1092 620 1032 c 1
 586 971 557 857 532 690 c 1
 525 643 l 1
 744 655 l 1
 721 557 l 1
 514 543 l 1
 507 505 l 1
 480 309 442 173 395 98 c 1
 848 94 l 1
 1006 341 l 1
 1088 323 l 1
 1011 0 l 1
 42 0 l 1
 61 73 l 1
 226 118 l 1
 255 183 283 294 308 451 c 1
 318 537 l 1
 142 527 l 1
 168 627 l 1
 335 636 l 1
 354 770 l 1
 377 918 428 1031 509 1108 c 128
 590 1185 691 1224 809 1224 c 0
 899 1224 974 1211 1034 1186 c 1
 964 877 l 1
EndSplineSet
Colour: ffffff
EndChar

StartChar: currency
Encoding: 100 164 99
Width: 745
VWidth: 1655
GlyphClass: 2
Flags: HMW
LayerCount: 2
Fore
SplineSet
525 512 m 0
 525 557 513 592 488 618 c 128
 463 644 429 657 385 657 c 128
 341 657 303 641 272 609 c 0
 233 570 214 523 214 468 c 128
 214 413 225 373 249 347 c 128
 273 321 307 308 350 308 c 0
 393 307 431 323 464 354 c 0
 505 393 525 445 525 512 c 0
630 514 m 0
 630 442 609 382 567 334 c 1
 650 251 l 1
 553 170 l 1
 487 259 l 1
 431 228 381 212 335 212 c 128
 289 212 245 226 203 253 c 1
 116 165 l 1
 44 249 l 1
 135 325 l 1
 117 358 109 403 109 460 c 128
 109 517 128 568 165 615 c 1
 89 699 l 1
 182 780 l 1
 244 695 l 1
 297 734 352 753 407 752 c 0
 462 752 509 736 550 704 c 1
 639 781 l 1
 701 696 l 1
 609 623 l 1
 623 593 630 557 630 514 c 0
EndSplineSet
Colour: ffffff
EndChar

StartChar: yen
Encoding: 101 165 100
Width: 1128
VWidth: 1655
GlyphClass: 2
Flags: HMW
LayerCount: 2
Fore
SplineSet
383 484 m 1
 76 484 l 1
 99 583 l 1
 366 583 l 1
 185 1133 l 1
 57 1176 l 1
 78 1252 l 1
 543 1252 l 1
 520 1176 l 1
 382 1137 l 1
 539 641 l 1
 820 1133 l 1
 666 1176 l 1
 687 1252 l 1
 1086 1252 l 1
 1066 1176 l 1
 938 1137 l 1
 613 583 l 1
 915 583 l 1
 892 484 l 1
 574 484 l 1
 554 339 l 1
 882 339 l 1
 859 242 l 1
 544 242 l 1
 527 113 l 1
 687 78 l 1
 668 0 l 1
 163 0 l 1
 183 72 l 1
 341 120 l 1
 354 242 l 1
 42 242 l 1
 67 339 l 1
 366 339 l 1
 383 484 l 1
EndSplineSet
Colour: ffffff
EndChar

StartChar: brokenbar
Encoding: 102 166 101
Width: 383
VWidth: 1655
GlyphClass: 2
Flags: HMW
LayerCount: 2
Fore
SplineSet
42 -343 m 1
 136 423 l 1
 243 411 l 1
 149 -355 l 1
 42 -343 l 1
148 529 m 1
 234 1229 l 1
 341 1218 l 1
 249 517 l 1
 148 529 l 1
EndSplineSet
Colour: ffffff
EndChar

StartChar: section
Encoding: 103 167 102
Width: 998
VWidth: 1655
GlyphClass: 2
Flags: HMW
LayerCount: 2
Fore
SplineSet
891.393 832 m 1
 803.393 851 l 1
 796.393 1101 l 1
 764.393 1144 724.393 1170 677.393 1179 c 1
 664.393 1183 651.393 1184 637.393 1184 c 0
 591.393 1184 550.393 1169 512.393 1139 c 128
 474.393 1109 454.393 1068 450.393 1016 c 1
 450.393 1005 l 2
 450.393 956 463.393 914 488.393 878 c 128
 513.393 842 557.393 799 619.393 749 c 128
 681.393 699 730.393 658 767.393 623 c 128
 804.393 588 835.393 552 862.393 513 c 128
 889.393 474 906.393 429 913.393 376 c 1
 915.393 371 916.393 353 915.393 322 c 128
 914.393 291 906.393 258 889.393 225 c 1
 569.393 493 l 1
 464.393 577 386.393 650 335.393 712 c 128
 284.393 774 258.393 839 258.393 906 c 0
 258.393 911 258.393 914 259.393 918 c 1
 259.393 928 l 1
 263.393 969 274.393 1007 294.393 1043 c 0
 329.393 1109 379.393 1163 446.393 1206 c 128
 513.393 1249 583.393 1272 658.393 1278 c 1
 682.393 1278 l 2
 787.393 1278 879.393 1245 956.393 1178 c 1
 891.393 832 l 1
300.393 46 m 1
 280.393 -7 270.393 -56 271.393 -99 c 0
 271.393 -166 293.393 -214 338.393 -241 c 1
 367.393 -264 403.393 -276 446.393 -277 c 128
 489.393 -278 528.393 -266 563.393 -244 c 128
 598.393 -222 622.393 -191 637.393 -150 c 1
 645.393 -131 649.393 -110 647.393 -86 c 0
 647.393 -29 626.393 22 584.393 67 c 1
 572.393 81 531.393 117 458.393 176 c 128
 385.393 235 326.393 291 279.393 346 c 1
 247.393 386 225.393 421 212.393 452 c 128
 199.393 483 194.393 508 194.393 528 c 128
 194.393 548 194.393 558 195.393 561 c 1
 195.393 574 l 1
 199.393 607 207.393 641 222.393 676 c 1
 531.393 414 687.393 281 691.393 277 c 0
 740.393 232 777.393 191 802.393 152 c 128
 827.393 113 841.393 68 846.393 19 c 1
 848.393 14 848.393 4 848.393 -12 c 0
 848.393 -95 817.393 -170 754.393 -237 c 0
 708.393 -286 653.393 -322 589.393 -345 c 128
 525.393 -368 464.393 -380 406.393 -380 c 0
 302.393 -380 217.393 -356 150.393 -307 c 1
 121.393 -288 97.3926 -263 77.3926 -231 c 128
 57.3926 -199 47.3926 -172 44.3926 -149 c 1
 42.3926 -145 41.3926 -137 42.3926 -123 c 128
 43.3926 -109 45.3926 -92 50.3926 -72 c 1
 67.3926 -20 102.393 17 155.393 39 c 1
 178.393 50 203.393 55 229.393 56 c 128
 255.393 57 279.393 53 300.393 46 c 1
EndSplineSet
Colour: ffffff
EndChar

StartChar: dieresis
Encoding: 104 168 103
Width: 562
VWidth: 1655
GlyphClass: 2
Flags: HMW
LayerCount: 2
Fore
SplineSet
471 1490 m 128
 488 1475 496 1457 496 1435 c 128
 496 1413 488 1393 471 1378 c 128
 454 1363 434 1356 411 1356 c 128
 388 1356 370 1363 353 1378 c 128
 336 1393 328 1412 328 1435 c 128
 328 1458 336 1475 353 1490 c 128
 370 1505 388 1512 411 1512 c 128
 434 1512 454 1505 471 1490 c 128
209 1490 m 128
 226 1475 233 1457 233 1434 c 128
 233 1411 226 1393 209 1378 c 128
 192 1363 172 1356 149 1356 c 128
 126 1356 108 1363 91 1378 c 128
 74 1393 66 1412 66 1435 c 128
 66 1458 74 1475 91 1490 c 128
 108 1505 126 1512 149 1512 c 128
 172 1512 192 1505 209 1490 c 128
EndSplineSet
Colour: ffffff
EndChar

StartChar: copyright
Encoding: 105 169 104
Width: 1339
VWidth: 1655
GlyphClass: 2
Flags: HMW
LayerCount: 2
Fore
SplineSet
525 421 m 128
 574 366 640 338 722 338 c 128
 804 338 874 361 932 408 c 1
 941 399 950 383 960 360 c 1
 883 286 788 249 676 249 c 0
 608 249 546 264 491 294 c 128
 436 324 391 367 357 425 c 128
 323 483 307 548 307 623 c 0
 307 771 365 886 481 971 c 1
 545 1016 621 1039 709 1038 c 128
 797 1037 868 1016 922 975 c 1
 906 780 l 1
 853 786 l 1
 831 916 l 1
 803 951 753 968 680 967 c 128
 607 966 550 940 510 886 c 128
 470 832 451 756 451 655 c 128
 451 554 476 476 525 421 c 128
655 -28 m 128
 567 -28 484 -11 408 22 c 128
 332 55 267 101 214 158 c 128
 161 215 119 284 89 364 c 128
 59 444 43 531 43 622 c 128
 43 713 60 800 94 882 c 128
 128 964 172 1035 229 1093 c 128
 286 1151 353 1198 429 1233 c 128
 505 1268 587 1285 677 1285 c 128
 767 1285 853 1267 934 1232 c 128
 1015 1197 1082 1149 1136 1087 c 1
 1244 958 1298 804 1297 625 c 0
 1297 539 1281 455 1247 375 c 128
 1213 295 1168 226 1112 167 c 128
 1056 108 987 62 907 26 c 128
 827 -10 743 -28 655 -28 c 128
229 908 m 128
 185 824 164 730 164 627 c 128
 164 524 185 430 228 346 c 128
 271 262 329 196 405 149 c 128
 481 102 560 78 643 78 c 128
 726 78 800 91 863 118 c 128
 926 145 981 182 1027 230 c 128
 1073 278 1109 335 1136 402 c 128
 1163 469 1177 540 1177 615 c 0
 1177 767 1136 898 1055 1008 c 0
 1014 1063 959 1106 891 1137 c 128
 823 1168 745 1184 658 1184 c 128
 571 1184 488 1159 411 1109 c 128
 334 1059 273 992 229 908 c 128
EndSplineSet
Colour: ffffff
EndChar

StartChar: ordfeminine
Encoding: 106 170 105
Width: 751
VWidth: 0
GlyphClass: 2
Flags: HMW
LayerCount: 2
Fore
SplineSet
460.787 932 m 1
 466.172 966 l 2
 482.777 1074 489.919 1169.6 387.97 1169.6 c 0
 317.919 1169.6 297.113 1114 263.21 977.6 c 1
 182.306 970 140.673 1004 140.673 1066 c 0
 140.673 1168 342.237 1254 459.537 1254 c 0
 610.837 1254 657.091 1177 630.588 1008.4 c 2
 589.345 748 l 2
 577.688 674.4 593.306 648 666.615 634.8 c 2
 707.975 627.6 l 1
 687.137 565.8 l 1
 640.458 529 614.369 519.6 564.22 519.6 c 0
 456.19 519.6 422.447 582.606 431.349 638.8 c 1
 421.999 638.8 l 1
 392.333 596.4 328.86 514.8 189.459 514.8 c 0
 108.734 514.8 45 573.613 45 654.585 c 0
 45 796.262 173.046 932 460.787 932 c 1
222.12 700.979 m 0
 222.12 665.387 240.447 631.2 294.611 631.2 c 0
 354.111 631.2 392.417 679.8 425.155 709.4 c 1
 450.506 874.4 l 1
 291.878 846.688 222.12 793.795 222.12 700.979 c 0
EndSplineSet
Colour: ffffff
EndChar

StartChar: guillemotleft
Encoding: 107 171 106
Width: 695
VWidth: 0
GlyphClass: 2
Flags: HMW
LayerCount: 2
Fore
SplineSet
293 469 m 5
 617 821 l 5
 652 761 l 5
 439 461 l 5
 556 140 l 5
 493 78 l 5
 292 449 l 5
 293 469 l 5
46 469 m 5
 369 821 l 5
 404 761 l 5
 191 461 l 5
 308 140 l 5
 245 78 l 5
 44 449 l 5
 46 469 l 5
EndSplineSet
Colour: ffffff
EndChar

StartChar: logicalnot
Encoding: 108 172 107
Width: 866
VWidth: 0
GlyphClass: 2
Flags: HMW
LayerCount: 2
Fore
SplineSet
75 664 m 1
 820 664 l 1
 772 350 l 1
 663 332 l 1
 699 558 l 1
 47 558 l 1
 75 664 l 1
EndSplineSet
Colour: ffffff
EndChar

StartChar: softhyphen
Encoding: 109 173 108
Width: 539
VWidth: 0
GlyphClass: 2
Flags: HMW
LayerCount: 2
Fore
SplineSet
73 522 m 1
 491 581 l 1
 465 466 l 1
 47 406 l 1
 73 522 l 1
EndSplineSet
Colour: ffffff
EndChar

StartChar: registered
Encoding: 110 174 109
Width: 1060
VWidth: 0
GlyphClass: 2
Flags: HMW
LayerCount: 2
Fore
SplineSet
243.15 776.9 m 1
 249.9 824.601 l 1
 330 852.95 l 1
 330 1248.5 l 1
 248.55 1265.6 l 1
 253.5 1319.15 l 1
 319.2 1329.5 432.6 1341.2 499.2 1341.2 c 0
 651.75 1341.2 744 1304.3 744 1193.6 c 0
 744 1123.4 685.15 1051.3 618.55 1027.9 c 1
 617.9 1026 l 5
 695.5 935.2 l 2
 745.9 877 764.979 862.651 815.2 839.4 c 2
 831.4 831.9 l 1
 821.05 776.9 l 1
 801.7 770.601 770.5 766.101 739 766.101 c 0
 648.1 766.101 606.404 822.362 556.5 917.5 c 2
 512.7 1001 l 1
 456.9 1001 l 1
 456.9 857 l 1
 531.15 830.45 l 1
 526.2 776.9 l 1
 243.15 776.9 l 1
456.9 1068.5 m 1
 535.65 1068.5 l 1
 575.25 1085.6 607.2 1117.1 607.2 1170.2 c 0
 607.2 1232.75 564 1271.8 491.1 1271.8 c 0
 473.1 1271.8 459.6 1270.45 456.9 1270.45 c 1
 456.9 1068.5 l 1
43 1022.5 m 0
 43 1344 254 1522.5 522 1522.5 c 0
 798 1522.5 1017 1352 1017 1026.5 c 0
 1017 716 794 540.5 512 540.5 c 0
 250 540.5 43 724 43 1022.5 c 0
131 1036.5 m 0
 131 776 302 616.5 520 616.5 c 0
 748 616.5 929 784 929 1016.5 c 0
 929 1280 748 1446.5 522 1446.5 c 0
 300 1446.5 131 1300 131 1036.5 c 0
EndSplineSet
Colour: ffffff
EndChar

StartChar: macron
Encoding: 111 175 110
Width: 577
VWidth: 1655
GlyphClass: 2
Flags: HMW
LayerCount: 2
Fore
SplineSet
79 1450 m 1
 511 1450 l 1
 498 1351 l 1
 66 1351 l 1
 79 1450 l 1
EndSplineSet
Colour: ffffff
EndChar

StartChar: degree
Encoding: 112 176 111
Width: 424
VWidth: 1655
GlyphClass: 2
Flags: HMW
LayerCount: 2
Fore
SplineSet
334 1243 m 128
 362 1213 375 1173 375 1125 c 128
 375 1077 359 1036 328 1002 c 128
 297 968 257 951 209 951 c 128
 161 951 123 966 94 996 c 128
 65 1026 51 1065 51 1114 c 128
 51 1163 68 1203 101 1237 c 128
 134 1271 175 1288 222 1288 c 128
 269 1288 306 1273 334 1243 c 128
145 1210 m 128
 130 1189 123 1160 123 1126 c 128
 123 1092 131 1062 148 1037 c 128
 165 1012 188 999 217 999 c 0
 276 999 305 1037 306 1113 c 0
 306 1150 297 1181 279 1205 c 128
 261 1229 238 1241 210 1241 c 128
 182 1241 160 1231 145 1210 c 128
EndSplineSet
Colour: ffffff
EndChar

StartChar: plusminus
Encoding: 113 177 112
Width: 749
VWidth: 0
GlyphClass: 2
Flags: HMW
LayerCount: 2
Fore
SplineSet
59.5273 117 m 1
 671.419 124 l 1
 654.891 20 l 1
 43 13 l 1
 59.5273 117 l 1
EndSplineSet
Refer: 11 43 S 1 0 -4.47035e-07 1 118.23 81 2
Colour: ffffff
EndChar

StartChar: two.superior
Encoding: 114 178 113
Width: 720
VWidth: 0
GlyphClass: 2
Flags: HMW
LayerCount: 2
Fore
SplineSet
69.9463 638 m 1
 244.427 761 l 1
 381.842 860.438 470.742 928.414 470.742 1056.71 c 0
 470.742 1109.26 451.824 1153 380.514 1153 c 0
 331.514 1153 287.396 1127 267.328 1095 c 1
 224.896 966 l 1
 157.688 971 l 1
 169.614 1141 l 1
 222.809 1218 359.986 1257 460.986 1257 c 0
 598.925 1257 675.277 1201.73 675.277 1104.38 c 0
 675.277 922.489 485.202 804.898 302.132 696 c 2
 228.164 652 l 1
 498.164 652 l 1
 601.396 805 l 1
 655.071 784 l 1
 596 531 l 1
 45 531 l 1
 69.9463 638 l 1
EndSplineSet
Colour: ffffff
EndChar

StartChar: three.superior
Encoding: 115 179 114
Width: 692
VWidth: 0
GlyphClass: 2
Flags: HMW
LayerCount: 2
Fore
SplineSet
44 563 m 1
 105.517 762 l 1
 179.251 754 l 1
 165.869 619 l 1
 180.543 598 215.534 579 258.534 579 c 0
 352.181 579 432.836 639.22 432.836 733.142 c 0
 432.836 797.666 361.164 849 248.298 849 c 1
 241.642 908 l 1
 296.352 924.291 453.06 975.102 453.06 1092.15 c 0
 453.06 1141.95 425.868 1189 363.148 1189 c 0
 332.148 1189 300.673 1186 276.664 1167 c 1
 227.798 1010 l 1
 152.748 1016 l 1
 167.831 1187 l 1
 205.801 1231 328.402 1279 431.402 1279 c 0
 556.11 1279 647.648 1231.21 647.648 1140.37 c 0
 647.648 1018.9 539.814 955.477 436.651 927 c 1
 435.543 920 l 1
 563.426 906.55 626.93 852.098 626.93 766.735 c 0
 626.93 604.157 434.867 495 241.229 495 c 0
 146.229 495 57.3477 521 44 563 c 1
EndSplineSet
Colour: ffffff
EndChar

StartChar: acute
Encoding: 116 180 115
Width: 360
VWidth: 1655
GlyphClass: 2
Flags: HMW
LayerCount: 2
Fore
SplineSet
295 1633 m 1
 115 1322 l 1
 65 1352 l 1
 184 1671 l 1
 295 1633 l 1
EndSplineSet
Colour: ffffff
EndChar

StartChar: micro
Encoding: 117 181 116
Width: 996
VWidth: 1655
GlyphClass: 2
Flags: HMW
LayerCount: 2
Fore
SplineSet
204 738 m 1
 73 792 l 1
 96 874 l 1
 368 895 l 1
 388 871 l 1
 320 317 l 2
 318 299 317 282 316 264 c 0
 316 159 361 107 451 106 c 0
 478 106 499 108 514 114 c 128
 529 120 539 123 546 125 c 128
 553 127 563 132 575 140 c 128
 587 148 594 152 598 154 c 0
 625 170 641 180 648 188 c 1
 714 734 l 1
 559 775 l 1
 580 867 l 1
 880 895 l 1
 896 871 l 1
 818 214 l 1
 815 178 l 1
 815 144 823 122 842 111 c 128
 861 100 883 94 910 88 c 1
 954 78 l 1
 934 -7 l 1
 877 -20 827 -26 783 -26 c 128
 739 -26 705 -15 683 7 c 128
 661 29 650 59 650 98 c 0
 650 103 650 106 652 108 c 1
 652 121 l 2
 652 123 652 123 653 125 c 1
 653 129 l 1
 641 129 l 1
 534 26 431 -26 332 -26 c 0
 270 -26 226 -4 200 39 c 1
 194 39 l 1
 194 -16 l 2
 194 -51 194 -74 192 -86 c 2
 172 -390 l 1
 42 -364 l 1
 105 -2 149 284 174 495 c 2
 204 738 l 1
EndSplineSet
Colour: ffffff
EndChar

StartChar: paragraph
Encoding: 118 182 117
Width: 1345
VWidth: 0
GlyphClass: 2
Flags: HMW
LayerCount: 2
Fore
SplineSet
558.112 1245 m 2
 904.114 1245 l 1
 706.924 0 l 1
 300.924 0 l 1
 319.645 74 l 1
 568.088 121 l 1
 731.383 1152 l 1
 691.541 1153 634.699 1154 624.699 1154 c 0
 392.019 1154 254.166 1039.23 254.166 816.553 c 0
 254.166 675.835 333.32 546 522.402 546 c 9
 488.88 448 l 1
 251.015 448 43 551.091 43 785.08 c 0
 43 1071.96 298.218 1245 558.112 1245 c 2
785.924 0 m 1
 983.114 1245 l 1
 1303.11 1245 l 1
 1281.91 1168 l 1
 1105.89 1130 l 1
 944.984 114 l 1
 1120.59 80 l 1
 1097.92 0 l 1
 785.924 0 l 1
EndSplineSet
Colour: ffffff
EndChar

StartChar: periodcentered
Encoding: 119 183 118
Width: 337
VWidth: 1655
GlyphClass: 2
Flags: HMW
LayerCount: 2
Fore
SplineSet
84 419 m 128
 60 444 48 473 48 507 c 128
 48 541 60 568 83 589 c 128
 106 610 135 620 168 620 c 128
 201 620 229 608 253 586 c 128
 277 564 289 537 289 504 c 128
 289 471 277 443 253 418 c 128
 229 393 201 381 168 381 c 128
 135 381 108 394 84 419 c 128
EndSplineSet
Colour: ffffff
EndChar

StartChar: cedilla
Encoding: 120 184 119
Width: 316
VWidth: 1655
GlyphClass: 2
Flags: HMW
LayerCount: 2
Fore
SplineSet
178 -75 m 1
 237 -126 266 -174 265 -221 c 0
 265 -290 200 -343 70 -381 c 1
 50 -323 l 1
 106 -303 134 -276 134 -242 c 0
 134 -215 110 -179 63 -134 c 1
 158 3 l 1
 232 3 l 1
 178 -75 l 1
EndSplineSet
Colour: ffffff
EndChar

StartChar: one.superior
Encoding: 121 185 120
Width: 591
VWidth: 0
GlyphClass: 2
Flags: HMW
LayerCount: 2
Fore
SplineSet
45 531 m 5
 60.7188 605 l 5
 217.679 630 l 5
 295.604 1122 l 5
 150.604 1122 l 5
 166.8 1199 l 5
 476.085 1245 l 5
 495.085 1245 l 5
 397.204 627 l 5
 547.145 614 l 5
 528 531 l 5
 45 531 l 5
EndSplineSet
Colour: ffffff
EndChar

StartChar: ordmasculine
Encoding: 122 186 121
Width: 809
VWidth: 0
GlyphClass: 2
Flags: HMW
LayerCount: 2
Fore
SplineSet
481.199 1258 m 0
 663.466 1258 765.084 1144.33 765.084 969.448 c 0
 765.084 697.528 561.487 514 342.961 514 c 0
 146.206 514 45 634.545 45 802.837 c 0
 45 1090.28 276.548 1258 481.199 1258 c 0
220.628 810.639 m 0
 220.628 691.238 248.446 593.6 374.152 593.6 c 0
 531.234 593.6 587.444 784.34 587.444 948.204 c 0
 587.444 1067.75 552.084 1175 432.195 1175 c 0
 269.511 1175 220.628 984.086 220.628 810.639 c 0
EndSplineSet
Colour: ffffff
EndChar

StartChar: onequarter
Encoding: 124 188 123
Width: 1394
VWidth: 0
GlyphClass: 2
Flags: HMW
LayerCount: 2
Fore
SplineSet
746 270 m 1
 1230 737 l 1
 1285 726 l 1
 1265 641 1247 542 1229 430 c 2
 1204 272 l 1
 1352 272 l 1
 1328 175 l 1
 1189 175 l 1
 1174 83 l 1
 1293 65 l 1
 1276 0 l 1
 862 0 l 1
 875 58 l 1
 1016 85 l 1
 1031 178 l 1
 744 178 l 1
 746 270 l 1
853 272 m 1
 1043 272 l 1
 1081 508 l 1
 853 272 l 1
42 531 m 1
 58 605 l 1
 215 630 l 1
 293 1122 l 1
 148 1122 l 1
 164 1199 l 1
 473 1245 l 1
 492 1245 l 1
 395 627 l 1
 544 614 l 1
 525 531 l 1
 42 531 l 1
168 -10 m 1
 669 588 l 1
 1159 1210 l 1
 1334 1207 l 1
 1328 1178 l 1
 834 591 l 1
 364 -32 l 1
 168 -10 l 1
EndSplineSet
Colour: ffffff
EndChar

StartChar: onehalf
Encoding: 125 189 124
Width: 1467
VWidth: 0
GlyphClass: 2
Flags: HMW
LayerCount: 2
Fore
SplineSet
819 109 m 1
 994 232 l 2
 1028 256 1053 276 1071 290 c 128
 1089 304 1110 320 1132 341 c 128
 1154 362 1170 381 1181 398 c 128
 1192 415 1201 433 1209 456 c 128
 1217 479 1220 503 1220 528 c 0
 1220 592 1190 624 1130 624 c 0
 1106 624 1084 618 1063 607 c 128
 1042 596 1027 583 1016 566 c 1
 974 437 l 1
 907 442 l 1
 919 612 l 1
 944 648 985 676 1042 697 c 128
 1099 718 1155 728 1210 728 c 0
 1279 728 1332 715 1369 688 c 128
 1406 661 1425 624 1425 575 c 0
 1425 550 1421 526 1413 501 c 128
 1405 476 1395 454 1383 434 c 128
 1371 414 1356 394 1335 372 c 128
 1314 350 1294 333 1276 317 c 128
 1258 301 1234 284 1205 264 c 128
 1176 244 1150 228 1130 215 c 128
 1110 202 1085 187 1052 167 c 2
 977 123 l 1
 1247 123 l 1
 1351 276 l 1
 1404 255 l 1
 1345 2 l 1
 795 2 l 1
 819 109 l 1
42 531 m 1
 58 605 l 1
 215 630 l 1
 293 1122 l 1
 148 1122 l 1
 164 1199 l 1
 473 1245 l 1
 492 1245 l 1
 395 627 l 1
 544 614 l 1
 525 531 l 1
 42 531 l 1
148 -10 m 1
 649 588 l 1
 1139 1210 l 1
 1314 1207 l 1
 1308 1178 l 1
 814 591 l 1
 344 -32 l 1
 148 -10 l 1
EndSplineSet
Colour: ffffff
EndChar

StartChar: threequarters
Encoding: 126 190 125
Width: 1370
VWidth: 0
GlyphClass: 2
Flags: HMW
LayerCount: 2
Fore
SplineSet
42 546 m 5
 103 745 l 5
 177 737 l 5
 163 602 l 5
 171 591 183 582 200 574 c 132
 217 566 235 562 256 562 c 4
 304 562 346 576 380 605 c 132
 414 634 430 670 430 716 c 4
 430 749 414 777 380 799 c 132
 346 821 301 832 246 832 c 5
 239 891 l 5
 255 896 269 900 283 905 c 132
 297 910 314 918 336 929 c 132
 358 940 378 951 393 964 c 132
 408 977 421 992 433 1012 c 132
 445 1032 450 1053 450 1075 c 4
 450 1102 443 1125 428 1144 c 132
 413 1163 390 1172 360 1172 c 4
 321 1172 293 1165 274 1150 c 5
 225 993 l 5
 150 999 l 5
 165 1170 l 5
 185 1193 222 1214 275 1233 c 132
 328 1252 379 1262 429 1262 c 4
 493 1262 545 1250 585 1226 c 132
 625 1202 645 1167 645 1123 c 4
 645 1094 639 1067 627 1043 c 132
 615 1019 599 998 578 981 c 132
 557 964 535 951 511 939 c 132
 487 927 462 918 434 910 c 5
 433 903 l 5
 496 896 544 880 576 854 c 132
 608 828 625 793 625 750 c 4
 625 698 606 650 568 608 c 132
 530 566 482 534 424 512 c 132
 366 490 303 478 238 478 c 4
 189 478 146 484 108 497 c 132
 70 510 49 525 42 546 c 5
157 -10 m 5
 659 588 l 5
 1149 1210 l 5
 1324 1207 l 5
 1318 1178 l 5
 824 591 l 5
 354 -32 l 5
 157 -10 l 5
722 270 m 5
 1206 737 l 5
 1261 726 l 5
 1241 641 1223 542 1205 430 c 6
 1180 272 l 5
 1328 272 l 5
 1304 175 l 5
 1165 175 l 5
 1150 83 l 5
 1269 65 l 5
 1252 0 l 5
 838 0 l 5
 851 58 l 5
 992 85 l 5
 1007 178 l 5
 720 178 l 5
 722 270 l 5
829 272 m 5
 1019 272 l 5
 1057 508 l 5
 829 272 l 5
EndSplineSet
Colour: ffffff
EndChar

StartChar: questiondown
Encoding: 127 191 126
Width: 635
VWidth: 1655
GlyphClass: 2
Flags: HMW
LayerCount: 2
Fore
SplineSet
389 778 m 1
 379 791 375 802 372 813 c 128
 369 824 368 831 368 836 c 128
 368 841 370 857 376 884 c 128
 382 911 396 937 419 959 c 128
 442 981 468 992 499 992 c 1
 526 990 546 981 561 964 c 128
 576 947 585 932 588 914 c 128
 591 896 593 887 593 885 c 128
 593 883 591 871 586 848 c 128
 581 825 568 803 545 780 c 128
 522 757 499 745 475 744 c 128
 451 743 435 745 424 750 c 128
 413 755 402 764 389 778 c 1
513 453 m 1
 518 401 l 1
 518 361 506 326 483 295 c 128
 460 264 438 241 414 225 c 128
 390 209 359 195 322 180 c 128
 285 165 257 152 239 141 c 128
 221 130 202 113 183 91 c 128
 164 69 153 43 149 14 c 1
 149 7 l 1
 147 3 147 1 148 -3 c 0
 148 -56 172 -101 220 -136 c 1
 240 -149 262 -156 285 -160 c 1
 295 -160 l 1
 297 -162 302 -162 310 -162 c 128
 318 -162 335 -159 361 -151 c 0
 420 -135 463 -114 489 -89 c 1
 500 -94 510 -101 520 -113 c 1
 538 -133 546 -151 546 -169 c 128
 546 -187 546 -196 544 -200 c 1
 536 -248 505 -285 450 -311 c 0
 418 -327 384 -334 349 -334 c 2
 327 -334 l 1
 268 -330 217 -312 173 -278 c 128
 129 -244 96 -199 74 -146 c 128
 52 -93 42 -44 42 -1 c 128
 42 42 44 73 49 93 c 0
 62 156 95 211 149 258 c 1
 180 283 202 299 217 305 c 0
 240 315 254 319 259 321 c 128
 264 323 269 325 276 328 c 128
 283 331 286 331 288 332 c 128
 290 333 293 334 299 337 c 128
 305 340 307 341 310 343 c 128
 314 345 314 345 321 349 c 128
 326 352 329 353 332 355 c 128
 335 357 338 359 342 362 c 0
 352 370 361 380 372 392 c 0
 390 412 399 443 399 484 c 2
 399 505 l 1
 397 512 397 517 397 521 c 128
 397 525 396 542 393 571 c 1
 469 587 l 1
 493 528 507 484 513 453 c 1
EndSplineSet
Colour: ffffff
EndChar

StartChar: Agrave
Encoding: 128 192 127
Width: 1323
VWidth: 1655
GlyphClass: 2
Flags: HMW
LayerCount: 2
Fore
SplineSet
837 505 m 1
 749 1062 l 1
 745 1062 l 1
 648 724 l 1
 619 627 599 564 589 536 c 1
 837 505 l 1
891 1271 m 1
 1101 132 l 1
 1279 81 l 1
 1256 0 l 1
 680 0 l 1
 703 72 l 1
 901 108 l 1
 850 430 l 1
 558 446 l 1
 509 310 468 215 435 157 c 128
 402 99 372 56 344 29 c 128
 316 2 281 -16 242 -24 c 1
 224 -26 215 -27 211 -28 c 0
 173 -28 138 -16 106 8 c 128
 74 32 51 62 38 101 c 1
 88 120 133 142 172 168 c 1
 241 213 305 274 364 349 c 0
 441 450 514 596 583 786 c 1
 638 947 682 1098 713 1241 c 1
 891 1271 l 1
612 1655 m 1
 726 1693 l 1
 855 1365 l 1
 798 1332 l 1
 612 1655 l 1
EndSplineSet
Colour: ffffff
EndChar

StartChar: Aacute
Encoding: 129 193 128
Width: 1323
VWidth: 1655
GlyphClass: 2
Flags: HMW
LayerCount: 2
Fore
SplineSet
837 505 m 1
 749 1062 l 1
 745 1062 l 1
 648 724 l 1
 619 627 599 564 589 536 c 1
 837 505 l 1
891 1271 m 1
 1101 132 l 1
 1279 81 l 1
 1256 0 l 1
 680 0 l 1
 703 72 l 1
 901 108 l 1
 850 430 l 1
 558 446 l 1
 509 310 468 215 435 157 c 128
 402 99 372 56 344 29 c 128
 316 2 281 -16 242 -24 c 1
 224 -26 215 -27 211 -28 c 0
 173 -28 138 -16 106 8 c 128
 74 32 51 62 38 101 c 1
 88 120 133 142 172 168 c 1
 241 213 305 274 364 349 c 0
 441 450 514 596 583 786 c 1
 638 947 682 1098 713 1241 c 1
 891 1271 l 1
1033 1661 m 1
 854 1351 l 1
 803 1382 l 1
 924 1701 l 1
 1033 1661 l 1
EndSplineSet
Colour: ffffff
EndChar

StartChar: Acircumflex
Encoding: 130 194 129
Width: 1323
VWidth: 1655
GlyphClass: 2
Flags: HMW
LayerCount: 2
Fore
SplineSet
837 505 m 1
 749 1062 l 1
 745 1062 l 1
 648 724 l 1
 619 627 599 564 589 536 c 1
 837 505 l 1
891 1271 m 1
 1101 132 l 1
 1279 81 l 1
 1256 0 l 1
 680 0 l 1
 703 72 l 1
 901 108 l 1
 850 430 l 1
 558 446 l 1
 509 310 468 215 435 157 c 128
 402 99 372 56 344 29 c 128
 316 2 281 -16 242 -24 c 1
 224 -26 215 -27 211 -28 c 0
 173 -28 138 -16 106 8 c 128
 74 32 51 62 38 101 c 1
 88 120 133 142 172 168 c 1
 241 213 305 274 364 349 c 0
 441 450 514 596 583 786 c 1
 638 947 682 1098 713 1241 c 1
 891 1271 l 1
834 1577 m 1
 1009 1396 l 1
 961 1361 l 1
 800 1468 l 1
 790 1468 l 1
 652 1359 l 1
 615 1388 l 1
 781 1564 l 1
 834 1577 l 1
EndSplineSet
Colour: ffffff
EndChar

StartChar: Atilde
Encoding: 131 195 130
Width: 1323
VWidth: 1655
GlyphClass: 2
Flags: HMW
LayerCount: 2
Fore
SplineSet
837 505 m 1
 749 1062 l 1
 745 1062 l 1
 648 724 l 1
 619 627 599 564 589 536 c 1
 837 505 l 1
891 1271 m 1
 1101 132 l 1
 1279 81 l 1
 1256 0 l 1
 680 0 l 1
 703 72 l 1
 901 108 l 1
 850 430 l 1
 558 446 l 1
 509 310 468 215 435 157 c 128
 402 99 372 56 344 29 c 128
 316 2 281 -16 242 -24 c 1
 224 -26 215 -27 211 -28 c 0
 173 -28 138 -16 106 8 c 128
 74 32 51 62 38 101 c 1
 88 120 133 142 172 168 c 1
 241 213 305 274 364 349 c 0
 441 450 514 596 583 786 c 1
 638 947 682 1098 713 1241 c 1
 891 1271 l 1
680 1419 m 2
 663 1419 644 1403 622 1372 c 1
 584 1380 l 1
 586 1387 589 1397 593 1411 c 128
 597 1425 605 1441 619 1462 c 0
 644 1501 672 1521 705 1522 c 2
 712 1522 l 1
 714 1520 716 1520 718 1520 c 2
 936 1490 l 1
 940 1490 l 2
 954 1490 972 1504 994 1531 c 1
 1042 1529 l 1
 1011 1435 968 1388 914 1388 c 2
 903 1388 l 1
 684 1419 l 1
 680 1419 l 2
EndSplineSet
Colour: ffffff
EndChar

StartChar: Adieresis
Encoding: 132 196 131
Width: 1323
VWidth: 1655
GlyphClass: 2
Flags: HMW
LayerCount: 2
Fore
SplineSet
837 505 m 1
 749 1062 l 1
 745 1062 l 1
 648 724 l 1
 619 627 599 564 589 536 c 1
 837 505 l 1
891 1271 m 1
 1101 132 l 1
 1279 81 l 1
 1256 0 l 1
 680 0 l 1
 703 72 l 1
 901 108 l 1
 850 430 l 1
 558 446 l 1
 509 310 468 215 435 157 c 128
 402 99 372 56 344 29 c 128
 316 2 281 -16 242 -24 c 1
 224 -26 215 -27 211 -28 c 0
 173 -28 138 -16 106 8 c 128
 74 32 51 62 38 101 c 1
 88 120 133 142 172 168 c 1
 241 213 305 274 364 349 c 0
 441 450 514 596 583 786 c 1
 638 947 682 1098 713 1241 c 1
 891 1271 l 1
1003 1519 m 128
 1020 1504 1028 1486 1028 1464 c 128
 1028 1442 1020 1424 1003 1408 c 128
 986 1392 966 1385 943 1385 c 128
 920 1385 900 1392 884 1408 c 128
 868 1424 860 1443 860 1465 c 128
 860 1488 868 1504 884 1519 c 128
 900 1534 920 1541 943 1541 c 128
 966 1541 986 1534 1003 1519 c 128
741 1519 m 128
 758 1504 765 1486 765 1464 c 128
 765 1442 758 1423 741 1408 c 128
 724 1393 704 1385 681 1385 c 128
 658 1385 640 1392 623 1408 c 128
 606 1424 598 1443 598 1465 c 128
 598 1488 606 1504 623 1519 c 128
 640 1534 658 1541 681 1541 c 128
 704 1541 724 1534 741 1519 c 128
EndSplineSet
Colour: ffffff
EndChar

StartChar: Aring
Encoding: 133 197 132
Width: 1323
VWidth: 1655
GlyphClass: 2
Flags: HMW
LayerCount: 2
Fore
SplineSet
837 505 m 1
 749 1062 l 1
 745 1062 l 1
 648 724 l 1
 619 627 599 564 589 536 c 1
 837 505 l 1
891 1271 m 1
 1101 132 l 1
 1279 81 l 1
 1256 0 l 1
 680 0 l 1
 703 72 l 1
 901 108 l 1
 850 430 l 1
 558 446 l 1
 509 310 468 215 435 157 c 128
 402 99 372 56 344 29 c 128
 316 2 281 -16 242 -24 c 1
 224 -26 215 -27 211 -28 c 0
 173 -28 138 -16 106 8 c 128
 74 32 51 62 38 101 c 1
 88 120 133 142 172 168 c 1
 241 213 305 274 364 349 c 0
 441 450 514 596 583 786 c 1
 638 947 682 1098 713 1241 c 1
 891 1271 l 1
747 1615 m 128
 731 1594 724 1568 724 1535 c 128
 724 1502 732 1473 750 1448 c 128
 768 1423 790 1410 817 1410 c 0
 873 1411 901 1448 903 1523 c 0
 903 1558 895 1587 877 1611 c 128
 859 1635 837 1647 810 1647 c 128
 783 1647 763 1636 747 1615 c 128
930 1649 m 128
 958 1619 973 1582 973 1535 c 128
 973 1488 957 1448 925 1414 c 128
 893 1380 854 1363 808 1363 c 128
 762 1363 724 1378 696 1408 c 128
 668 1438 654 1476 654 1523 c 128
 654 1570 670 1609 703 1643 c 128
 736 1677 775 1694 820 1694 c 128
 865 1694 902 1679 930 1649 c 128
EndSplineSet
Colour: ffffff
EndChar

StartChar: AE
Encoding: 134 198 133
Width: 1518
VWidth: 1655
GlyphClass: 2
Flags: HMW
LayerCount: 2
Fore
SplineSet
769 507 m 1
 749 1064 l 1
 743 1064 l 1
 649 726 l 1
 633 671 613 607 588 534 c 1
 769 507 l 1
1464 430 m 1
 1469 412 1471 375 1471 317 c 0
 1471 187 1451 81 1411 0 c 1
 1384 0 l 2
 1353 0 1328 0 1307 2 c 1
 1082 2 l 2
 1029 2 990 2 966 3 c 1
 794 3 l 1
 541 -3 l 1
 564 80 l 1
 781 134 l 1
 771 432 l 1
 559 444 l 1
 508 307 465 208 430 146 c 1
 397 91 367 52 341 26 c 128
 315 0 287 -16 259 -21 c 128
 231 -26 216 -28 212 -28 c 0
 175 -28 140 -16 107 8 c 128
 74 32 52 63 38 101 c 1
 88 120 133 142 173 168 c 1
 239 210 302 270 363 349 c 1
 472 495 575 733 670 1066 c 1
 686 1119 700 1178 712 1241 c 1
 1455 1280 l 1
 1415 862 l 1
 1328 869 l 1
 1272 1125 l 1
 1242 1128 l 1
 1169 1135 1073 1139 954 1142 c 1
 922 1143 l 1
 942 681 l 1
 1309 698 l 1
 1270 557 l 1
 947 578 l 1
 975 101 l 1
 1060 108 l 2
 1174 120 1241 127 1262 132 c 1
 1282 157 1305 203 1330 270 c 128
 1355 337 1370 391 1377 434 c 1
 1464 430 l 1
EndSplineSet
Colour: ffffff
EndChar

StartChar: Ccedilla
Encoding: 135 199 134
Width: 1021
VWidth: 1655
GlyphClass: 2
Flags: HMW
LayerCount: 2
Fore
SplineSet
560 -75 m 1
 619 -126 648 -174 647 -221 c 0
 647 -290 582 -343 452 -381 c 1
 432 -323 l 1
 488 -303 516 -276 517 -242 c 0
 517 -215 493 -179 445 -134 c 1
 519 -30 l 1
 496 -30 l 2
 457 -30 415 -24 370 -12 c 1
 277 17 201 71 140 151 c 128
 79 231 47 332 41 455 c 1
 41 471 l 1
 39 477 39 482 39 488 c 0
 39 707 110 899 252 1064 c 1
 362 1192 492 1255 642 1254 c 0
 790 1254 893 1197 952 1085 c 1
 970 1055 978 1021 977 982 c 2
 977 971 l 1
 976 932 964 897 940 865 c 128
 916 833 889 814 860 806 c 128
 831 798 809 794 792 794 c 128
 775 794 759 796 743 802 c 1
 752 847 756 885 756 917 c 128
 756 949 754 978 749 1005 c 0
 739 1058 705 1097 646 1123 c 1
 623 1132 594 1136 557 1134 c 128
 520 1132 481 1117 439 1087 c 128
 397 1057 363 1018 338 971 c 0
 295 894 270 785 261 641 c 0
 259 604 258 583 258 578 c 0
 258 405 302 278 390 196 c 0
 442 148 503 124 572 125 c 0
 614 125 654 133 693 149 c 128
 732 165 767 190 800 223 c 128
 833 256 856 285 872 310 c 1
 914 248 l 1
 900 213 880 177 851 142 c 0
 790 69 714 19 625 -10 c 0
 614 -14 606 -15 600 -16 c 1
 560 -75 l 1
EndSplineSet
Colour: ffffff
EndChar

StartChar: Egrave
Encoding: 136 200 135
Width: 1271
VWidth: 1655
GlyphClass: 2
Flags: HMW
LayerCount: 2
Fore
SplineSet
1088 0 m 1
 720 2 513 3 470 3 c 1
 38 -3 l 1
 61 80 l 1
 279 134 l 1
 404 1094 l 1
 177 1117 l 1
 197 1194 l 1
 270 1209 378 1221 523 1233 c 128
 668 1245 804 1250 930 1250 c 2
 1003 1250 l 1
 1227 1246 l 1
 1147 835 l 1
 1061 848 l 1
 1029 1111 l 1
 1001 1117 l 1
 900 1136 777 1145 632 1143 c 2
 599 1143 l 1
 544 680 l 1
 999 712 l 1
 965 569 l 1
 532 578 l 1
 470 99 l 1
 687 108 l 1
 809 115 893 122 938 132 c 1
 961 169 987 222 1018 292 c 128
 1049 362 1068 415 1078 451 c 1
 1165 440 l 1
 1165 434 l 2
 1165 345 1158 262 1144 182 c 128
 1130 102 1112 41 1088 0 c 1
629 1655 m 1
 742 1693 l 1
 871 1365 l 1
 815 1332 l 1
 629 1655 l 1
EndSplineSet
Colour: ffffff
EndChar

StartChar: Eacute
Encoding: 137 201 136
Width: 1271
VWidth: 1655
GlyphClass: 2
Flags: HMW
LayerCount: 2
Fore
SplineSet
1088 0 m 1
 720 2 513 3 470 3 c 1
 38 -3 l 1
 61 80 l 1
 279 134 l 1
 404 1094 l 1
 177 1117 l 1
 197 1194 l 1
 270 1209 378 1221 523 1233 c 128
 668 1245 804 1250 930 1250 c 2
 1003 1250 l 1
 1227 1246 l 1
 1147 835 l 1
 1061 848 l 1
 1029 1111 l 1
 1001 1117 l 1
 900 1136 777 1145 632 1143 c 2
 599 1143 l 1
 544 680 l 1
 999 712 l 1
 965 569 l 1
 532 578 l 1
 470 99 l 1
 687 108 l 1
 809 115 893 122 938 132 c 1
 961 169 987 222 1018 292 c 128
 1049 362 1068 415 1078 451 c 1
 1165 440 l 1
 1165 434 l 2
 1165 345 1158 262 1144 182 c 128
 1130 102 1112 41 1088 0 c 1
1049 1661 m 1
 869 1351 l 1
 820 1382 l 1
 939 1701 l 1
 1049 1661 l 1
EndSplineSet
Colour: ffffff
EndChar

StartChar: Ecircumflex
Encoding: 138 202 137
Width: 1271
VWidth: 1655
GlyphClass: 2
Flags: HMW
LayerCount: 2
Fore
SplineSet
1088 0 m 1
 720 2 513 3 470 3 c 1
 38 -3 l 1
 61 80 l 1
 279 134 l 1
 404 1094 l 1
 177 1117 l 1
 197 1194 l 1
 270 1209 378 1221 523 1233 c 128
 668 1245 804 1250 930 1250 c 2
 1003 1250 l 1
 1227 1246 l 1
 1147 835 l 1
 1061 848 l 1
 1029 1111 l 1
 1001 1117 l 1
 900 1136 777 1145 632 1143 c 2
 599 1143 l 1
 544 680 l 1
 999 712 l 1
 965 569 l 1
 532 578 l 1
 470 99 l 1
 687 108 l 1
 809 115 893 122 938 132 c 1
 961 169 987 222 1018 292 c 128
 1049 362 1068 415 1078 451 c 1
 1165 440 l 1
 1165 434 l 2
 1165 345 1158 262 1144 182 c 128
 1130 102 1112 41 1088 0 c 1
850 1577 m 1
 1025 1396 l 1
 976 1361 l 1
 816 1468 l 1
 806 1468 l 1
 669 1359 l 1
 632 1388 l 1
 796 1564 l 1
 850 1577 l 1
EndSplineSet
Colour: ffffff
EndChar

StartChar: Edieresis
Encoding: 139 203 138
Width: 1271
VWidth: 1655
GlyphClass: 2
Flags: HMW
LayerCount: 2
Fore
SplineSet
1088 0 m 1
 720 2 513 3 470 3 c 1
 38 -3 l 1
 61 80 l 1
 279 134 l 1
 404 1094 l 1
 177 1117 l 1
 197 1194 l 1
 270 1209 378 1221 523 1233 c 128
 668 1245 804 1250 930 1250 c 2
 1003 1250 l 1
 1227 1246 l 1
 1147 835 l 1
 1061 848 l 1
 1029 1111 l 1
 1001 1117 l 1
 900 1136 777 1145 632 1143 c 2
 599 1143 l 1
 544 680 l 1
 999 712 l 1
 965 569 l 1
 532 578 l 1
 470 99 l 1
 687 108 l 1
 809 115 893 122 938 132 c 1
 961 169 987 222 1018 292 c 128
 1049 362 1068 415 1078 451 c 1
 1165 440 l 1
 1165 434 l 2
 1165 345 1158 262 1144 182 c 128
 1130 102 1112 41 1088 0 c 1
1019 1519 m 128
 1037 1504 1045 1486 1045 1464 c 128
 1045 1442 1037 1424 1019 1408 c 128
 1001 1392 982 1385 959 1385 c 128
 936 1385 917 1392 900 1408 c 128
 883 1424 876 1443 876 1465 c 128
 876 1488 883 1504 900 1519 c 128
 917 1534 936 1541 959 1541 c 128
 982 1541 1001 1534 1019 1519 c 128
755 1519 m 128
 772 1504 780 1486 780 1464 c 128
 780 1442 772 1423 755 1408 c 128
 738 1393 720 1385 697 1385 c 128
 674 1385 654 1392 637 1408 c 128
 620 1424 613 1443 613 1465 c 128
 613 1488 620 1504 637 1519 c 128
 654 1534 674 1541 697 1541 c 128
 720 1541 738 1534 755 1519 c 128
EndSplineSet
Colour: ffffff
EndChar

StartChar: Igrave
Encoding: 140 204 139
Width: 859
VWidth: 1655
GlyphClass: 2
Flags: HMW
LayerCount: 2
Fore
SplineSet
664 0 m 1
 38 0 l 1
 56 78 l 1
 279 129 l 1
 402 1090 l 1
 176 1123 l 1
 195 1199 l 1
 343 1230 497 1246 659 1246 c 0
 700 1246 752 1244 815 1239 c 1
 796 1164 l 1
 597 1142 l 1
 470 106 l 1
 688 81 l 1
 664 0 l 1
340 1650 m 1
 454 1687 l 1
 583 1361 l 1
 527 1327 l 1
 340 1650 l 1
EndSplineSet
Colour: ffffff
EndChar

StartChar: Iacute
Encoding: 141 205 140
Width: 859
VWidth: 1655
GlyphClass: 2
Flags: HMW
LayerCount: 2
Fore
SplineSet
664 0 m 1
 38 0 l 1
 56 78 l 1
 279 129 l 1
 402 1090 l 1
 176 1123 l 1
 195 1199 l 1
 343 1230 497 1246 659 1246 c 0
 700 1246 752 1244 815 1239 c 1
 796 1164 l 1
 597 1142 l 1
 470 106 l 1
 688 81 l 1
 664 0 l 1
761 1657 m 1
 581 1345 l 1
 532 1377 l 1
 651 1696 l 1
 761 1657 l 1
EndSplineSet
Colour: ffffff
EndChar

StartChar: Icircumflex
Encoding: 142 206 141
Width: 859
VWidth: 1655
GlyphClass: 2
Flags: HMW
LayerCount: 2
Fore
SplineSet
664 0 m 1
 38 0 l 1
 56 78 l 1
 279 129 l 1
 402 1090 l 1
 176 1123 l 1
 195 1199 l 1
 343 1230 497 1246 659 1246 c 0
 700 1246 752 1244 815 1239 c 1
 796 1164 l 1
 597 1142 l 1
 470 106 l 1
 688 81 l 1
 664 0 l 1
562 1572 m 1
 737 1391 l 1
 688 1356 l 1
 529 1463 l 1
 519 1463 l 1
 381 1354 l 1
 343 1383 l 1
 509 1559 l 1
 562 1572 l 1
EndSplineSet
Colour: ffffff
EndChar

StartChar: Idieresis
Encoding: 143 207 142
Width: 860
VWidth: 1655
GlyphClass: 2
Flags: HMW
LayerCount: 2
Fore
SplineSet
664 0 m 1
 38 0 l 1
 56 78 l 1
 279 129 l 1
 402 1090 l 1
 176 1123 l 1
 195 1199 l 1
 343 1230 497 1246 659 1246 c 0
 702 1246 754 1244 816 1239 c 1
 796 1164 l 1
 597 1142 l 1
 470 106 l 1
 688 81 l 1
 664 0 l 1
731 1514 m 128
 748 1499 756 1481 756 1459 c 128
 756 1437 748 1419 731 1403 c 128
 714 1387 694 1380 671 1380 c 128
 648 1380 629 1387 612 1403 c 128
 595 1419 588 1438 588 1460 c 128
 588 1483 595 1499 612 1514 c 128
 629 1529 648 1536 671 1536 c 128
 694 1536 714 1529 731 1514 c 128
468 1514 m 128
 485 1499 493 1481 493 1459 c 128
 493 1437 485 1418 468 1403 c 128
 451 1388 431 1380 408 1380 c 128
 385 1380 366 1387 350 1403 c 128
 334 1419 326 1438 326 1460 c 128
 326 1483 334 1499 350 1514 c 128
 366 1529 385 1536 408 1536 c 128
 431 1536 451 1529 468 1514 c 128
EndSplineSet
Colour: ffffff
EndChar

StartChar: Eth
Encoding: 144 208 143
Width: 1457
VWidth: 1655
GlyphClass: 2
Flags: HMW
LayerCount: 2
Fore
SplineSet
518 551 m 1
 464 106 l 1
 474 106 l 1
 478 104 488 104 509 104 c 128
 530 104 568 107 625 113 c 0
 765 126 882 160 976 218 c 128
 1070 276 1136 353 1173 450 c 1
 1198 515 1210 589 1210 672 c 0
 1210 755 1192 832 1157 904 c 1
 1132 957 1098 1001 1056 1037 c 128
 1014 1073 955 1104 879 1132 c 128
 803 1160 743 1174 698 1175 c 128
 653 1176 617 1175 591 1171 c 1
 529 649 l 1
 780 660 l 1
 752 561 l 1
 518 551 l 1
38 0 m 1
 58 77 l 1
 267 129 l 1
 323 541 l 1
 157 536 l 1
 183 634 l 1
 337 641 l 1
 394 1068 l 1
 177 1085 l 1
 198 1158 l 1
 363 1220 554 1251 771 1250 c 0
 811 1250 836 1250 847 1249 c 1
 1027 1240 1161 1200 1250 1127 c 1
 1290 1094 1323 1055 1349 1009 c 0
 1392 932 1414 846 1413 752 c 0
 1413 727 1412 704 1408 681 c 1
 1390 507 1314 358 1180 234 c 0
 1055 119 898 47 710 18 c 0
 631 6 517 0 366 0 c 2
 38 0 l 1
EndSplineSet
Colour: ffffff
EndChar

StartChar: Ntilde
Encoding: 145 209 144
Width: 1575
VWidth: 1655
GlyphClass: 2
Flags: HMW
LayerCount: 2
Fore
SplineSet
1041 -31 m 1
 486 999 l 1
 483 999 l 1
 464 486 l 2
 459 381 451 298 437 239 c 128
 423 180 396 124 357 70 c 1
 304 3 248 -31 188 -31 c 2
 181 -31 l 1
 122 -25 81 1 56 49 c 1
 47 69 42 87 38 103 c 1
 117 140 180 186 227 242 c 1
 321 359 371 567 379 864 c 1
 381 984 382 1053 383 1071 c 1
 157 1125 l 1
 179 1201 l 1
 272 1220 346 1230 403 1235 c 128
 460 1240 521 1243 588 1246 c 1
 676 1078 l 1
 1111 274 l 1
 1182 1106 l 1
 955 1122 l 1
 975 1197 l 1
 1078 1220 1162 1233 1224 1238 c 128
 1286 1243 1341 1245 1388 1245 c 128
 1435 1245 1483 1243 1531 1239 c 1
 1510 1163 l 1
 1305 1109 l 1
 1201 2 l 1
 1041 -31 l 1
728 1419 m 2
 711 1419 692 1403 669 1372 c 1
 632 1380 l 1
 634 1387 636 1397 640 1411 c 128
 644 1425 652 1441 666 1462 c 0
 691 1501 719 1521 751 1522 c 2
 757 1522 l 1
 759 1520 760 1520 764 1520 c 2
 982 1490 l 1
 986 1490 l 2
 1000 1490 1018 1504 1041 1531 c 1
 1088 1529 l 1
 1057 1435 1014 1388 959 1388 c 2
 950 1388 l 1
 731 1419 l 1
 728 1419 l 2
EndSplineSet
Colour: ffffff
EndChar

StartChar: Ograve
Encoding: 146 210 145
Width: 1149
VWidth: 1655
GlyphClass: 2
Flags: HMW
LayerCount: 2
Fore
SplineSet
247 651 m 0
 247 495 277 368 337 269 c 128
 397 170 476 120 572 120 c 128
 668 120 746 167 807 260 c 128
 868 353 898 475 898 625 c 0
 898 720 885 805 858 881 c 128
 831 957 790 1018 737 1063 c 128
 684 1108 623 1130 556 1130 c 128
 489 1130 432 1108 385 1064 c 1
 292 975 246 838 247 651 c 0
1105 744 m 1
 1103 596 1068 457 1000 325 c 1
 923 179 824 78 706 21 c 0
 639 -12 565 -28 483 -28 c 128
 401 -28 325 -4 255 45 c 128
 185 94 132 158 95 238 c 128
 58 318 39 408 39 505 c 0
 39 642 65 769 117 886 c 128
 169 1003 243 1098 338 1169 c 128
 433 1240 542 1275 662 1275 c 0
 753 1275 833 1249 904 1196 c 128
 975 1143 1027 1077 1058 998 c 128
 1089 919 1105 836 1105 748 c 2
 1105 744 l 1
445 1655 m 1
 558 1693 l 1
 688 1365 l 1
 631 1332 l 1
 445 1655 l 1
EndSplineSet
Colour: ffffff
EndChar

StartChar: Oacute
Encoding: 147 211 146
Width: 1149
VWidth: 1655
GlyphClass: 2
Flags: HMW
LayerCount: 2
Fore
SplineSet
247 651 m 0
 247 495 277 368 337 269 c 128
 397 170 476 120 572 120 c 128
 668 120 746 167 807 260 c 128
 868 353 898 475 898 625 c 0
 898 720 885 805 858 881 c 128
 831 957 790 1018 737 1063 c 128
 684 1108 623 1130 556 1130 c 128
 489 1130 432 1108 385 1064 c 1
 292 975 246 838 247 651 c 0
1105 744 m 1
 1103 596 1068 457 1000 325 c 1
 923 179 824 78 706 21 c 0
 639 -12 565 -28 483 -28 c 128
 401 -28 325 -4 255 45 c 128
 185 94 132 158 95 238 c 128
 58 318 39 408 39 505 c 0
 39 642 65 769 117 886 c 128
 169 1003 243 1098 338 1169 c 128
 433 1240 542 1275 662 1275 c 0
 753 1275 833 1249 904 1196 c 128
 975 1143 1027 1077 1058 998 c 128
 1089 919 1105 836 1105 748 c 2
 1105 744 l 1
866 1661 m 1
 686 1351 l 1
 636 1382 l 1
 755 1701 l 1
 866 1661 l 1
EndSplineSet
Colour: ffffff
EndChar

StartChar: Ocircumflex
Encoding: 148 212 147
Width: 1149
VWidth: 1655
GlyphClass: 2
Flags: HMW
LayerCount: 2
Fore
SplineSet
247 651 m 0
 247 495 277 368 337 269 c 128
 397 170 476 120 572 120 c 128
 668 120 746 167 807 260 c 128
 868 353 898 475 898 625 c 0
 898 720 885 805 858 881 c 128
 831 957 790 1018 737 1063 c 128
 684 1108 623 1130 556 1130 c 128
 489 1130 432 1108 385 1064 c 1
 292 975 246 838 247 651 c 0
1105 744 m 1
 1103 596 1068 457 1000 325 c 1
 923 179 824 78 706 21 c 0
 639 -12 565 -28 483 -28 c 128
 401 -28 325 -4 255 45 c 128
 185 94 132 158 95 238 c 128
 58 318 39 408 39 505 c 0
 39 642 65 769 117 886 c 128
 169 1003 243 1098 338 1169 c 128
 433 1240 542 1275 662 1275 c 0
 753 1275 833 1249 904 1196 c 128
 975 1143 1027 1077 1058 998 c 128
 1089 919 1105 836 1105 748 c 2
 1105 744 l 1
667 1577 m 1
 842 1396 l 1
 793 1361 l 1
 633 1468 l 1
 623 1468 l 1
 486 1359 l 1
 449 1388 l 1
 614 1564 l 1
 667 1577 l 1
EndSplineSet
Colour: ffffff
EndChar

StartChar: Otilde
Encoding: 149 213 148
Width: 1149
VWidth: 1655
GlyphClass: 2
Flags: HMW
LayerCount: 2
Fore
SplineSet
247 651 m 0
 247 495 277 368 337 269 c 128
 397 170 476 120 572 120 c 128
 668 120 746 167 807 260 c 128
 868 353 898 475 898 625 c 0
 898 720 885 805 858 881 c 128
 831 957 790 1018 737 1063 c 128
 684 1108 623 1130 556 1130 c 128
 489 1130 432 1108 385 1064 c 1
 292 975 246 838 247 651 c 0
1105 744 m 1
 1103 596 1068 457 1000 325 c 1
 923 179 824 78 706 21 c 0
 639 -12 565 -28 483 -28 c 128
 401 -28 325 -4 255 45 c 128
 185 94 132 158 95 238 c 128
 58 318 39 408 39 505 c 0
 39 642 65 769 117 886 c 128
 169 1003 243 1098 338 1169 c 128
 433 1240 542 1275 662 1275 c 0
 753 1275 833 1249 904 1196 c 128
 975 1143 1027 1077 1058 998 c 128
 1089 919 1105 836 1105 748 c 2
 1105 744 l 1
514 1419 m 2
 497 1419 478 1403 455 1372 c 1
 417 1380 l 1
 419 1387 422 1397 426 1411 c 128
 430 1425 438 1441 452 1462 c 0
 477 1501 505 1521 538 1522 c 2
 545 1522 l 1
 547 1520 548 1520 550 1520 c 2
 769 1490 l 1
 772 1490 l 2
 786 1490 804 1504 827 1531 c 1
 874 1529 l 1
 843 1435 800 1388 747 1388 c 2
 735 1388 l 1
 517 1419 l 1
 514 1419 l 2
EndSplineSet
Colour: ffffff
EndChar

StartChar: Odieresis
Encoding: 150 214 149
Width: 1149
VWidth: 1655
GlyphClass: 2
Flags: HMW
LayerCount: 2
Fore
SplineSet
247 651 m 0
 247 495 277 368 337 269 c 128
 397 170 476 120 572 120 c 128
 668 120 746 167 807 260 c 128
 868 353 898 475 898 625 c 0
 898 720 885 805 858 881 c 128
 831 957 790 1018 737 1063 c 128
 684 1108 623 1130 556 1130 c 128
 489 1130 432 1108 385 1064 c 1
 292 975 246 838 247 651 c 0
1105 744 m 1
 1103 596 1068 457 1000 325 c 1
 923 179 824 78 706 21 c 0
 639 -12 565 -28 483 -28 c 128
 401 -28 325 -4 255 45 c 128
 185 94 132 158 95 238 c 128
 58 318 39 408 39 505 c 0
 39 642 65 769 117 886 c 128
 169 1003 243 1098 338 1169 c 128
 433 1240 542 1275 662 1275 c 0
 753 1275 833 1249 904 1196 c 128
 975 1143 1027 1077 1058 998 c 128
 1089 919 1105 836 1105 748 c 2
 1105 744 l 1
836 1519 m 128
 853 1504 861 1486 861 1464 c 128
 861 1442 853 1424 836 1408 c 128
 819 1392 799 1385 776 1385 c 128
 753 1385 735 1392 718 1408 c 128
 701 1424 693 1443 693 1465 c 128
 693 1488 701 1504 718 1519 c 128
 735 1534 753 1541 776 1541 c 128
 799 1541 819 1534 836 1519 c 128
572 1519 m 128
 589 1504 597 1486 597 1464 c 128
 597 1442 589 1423 572 1408 c 128
 555 1393 536 1385 513 1385 c 128
 490 1385 471 1392 455 1408 c 128
 439 1424 431 1443 431 1465 c 128
 431 1488 439 1504 455 1519 c 128
 471 1534 490 1541 513 1541 c 128
 536 1541 555 1534 572 1519 c 128
EndSplineSet
Colour: ffffff
EndChar

StartChar: multiply
Encoding: 151 215 150
Width: 576
VWidth: 1655
GlyphClass: 2
Flags: HMW
LayerCount: 2
Fore
SplineSet
275 380 m 1
 93 223 l 1
 38 305 l 1
 209 453 l 1
 76 607 l 1
 165 672 l 1
 297 520 l 1
 479 678 l 1
 532 595 l 1
 360 448 l 1
 496 291 l 1
 407 227 l 1
 275 380 l 1
EndSplineSet
Colour: ffffff
EndChar

StartChar: Oslash
Encoding: 152 216 151
Width: 1150
VWidth: 1655
GlyphClass: 2
Flags: HMW
LayerCount: 2
Fore
SplineSet
385 205 m 5
 439 148 501 119 572 120 c 0
 669 120 747 167 808 260 c 128
 869 353 899 474 899 623 c 128
 899 772 867 895 803 992 c 5
 667.479 730.513 542.562 471.382 385 205 c 5
248 651 m 0
 248 496 278 370 337 272 c 1
 750 1053 l 1
 693 1104 629 1130 560 1130 c 128
 491 1130 433 1108 386 1064 c 1
 293 975 247 838 248 651 c 0
856 1296 m 1
 998 1304 l 1
 931 1176 l 1
 987 1128 1031 1066 1061 989 c 128
 1091 912 1106 832 1106 748 c 2
 1106 744 l 1
 1104 596 1069 457 1001 325 c 1
 924 179 825 78 707 21 c 0
 640 -12 572 -28 501 -28 c 128
 430 -28 366 -14 309 14 c 1
 259 -73 l 1
 116 -81 l 1
 208 84 l 1
 91.2803 211.753 40 327 40 521 c 128
 40 648 66 769 118 886 c 128
 170 1003 244 1098 339 1169 c 128
 434 1240 543 1275 663 1275 c 0
 721 1275 775 1264 826 1243 c 1
 856 1296 l 1
EndSplineSet
Colour: ffffff
EndChar

StartChar: Ugrave
Encoding: 153 217 152
Width: 1495
VWidth: 1655
GlyphClass: 2
Flags: HMW
LayerCount: 2
Fore
SplineSet
260 1087 m 1
 38 1123 l 1
 60 1199 l 1
 170 1219 266 1231 348 1237 c 128
 430 1243 500 1245 560 1245 c 128
 620 1245 658 1245 676 1243 c 1
 658 1166 l 1
 459 1138 l 1
 411 745 l 2
 411 743 411 735 409 721 c 128
 407 707 405 682 400 647 c 128
 395 612 394 585 392 566 c 128
 390 547 390 521 390 488 c 128
 390 455 391 428 394 405 c 0
 397 382 401 357 408 330 c 0
 423 274 454 227 502 188 c 1
 552 145 611 123 680 123 c 0
 810 123 904 179 961 290 c 1
 988 343 1008 425 1024 534 c 2
 1098 1111 l 1
 873 1120 l 1
 891 1197 l 1
 1032 1228 1178 1243 1331 1243 c 0
 1342 1243 1382 1242 1451 1239 c 1
 1431 1163 l 1
 1224 1096 l 1
 1139 517 l 2
 1110 325 1059 191 984 114 c 0
 949 77 900 43 838 12 c 128
 776 -19 702 -34 617 -34 c 2
 609 -34 l 1
 481 -28 381 11 310 83 c 0
 229 164 189 277 188 425 c 0
 188 460 196 552 214 702 c 2
 260 1087 l 1
581 1655 m 1
 695 1693 l 1
 824 1365 l 1
 768 1332 l 1
 581 1655 l 1
EndSplineSet
Colour: ffffff
EndChar

StartChar: Uacute
Encoding: 154 218 153
Width: 1495
VWidth: 1655
GlyphClass: 2
Flags: HMW
LayerCount: 2
Fore
SplineSet
260 1087 m 1
 38 1123 l 1
 60 1199 l 1
 170 1219 266 1231 348 1237 c 128
 430 1243 500 1245 560 1245 c 128
 620 1245 658 1245 676 1243 c 1
 658 1166 l 1
 459 1138 l 1
 411 745 l 2
 411 743 411 735 409 721 c 128
 407 707 405 682 400 647 c 128
 395 612 394 585 392 566 c 128
 390 547 390 521 390 488 c 128
 390 455 391 428 394 405 c 0
 397 382 401 357 408 330 c 0
 423 274 454 227 502 188 c 1
 552 145 611 123 680 123 c 0
 810 123 904 179 961 290 c 1
 988 343 1008 425 1024 534 c 2
 1098 1111 l 1
 873 1120 l 1
 891 1197 l 1
 1032 1228 1178 1243 1331 1243 c 0
 1342 1243 1382 1242 1451 1239 c 1
 1431 1163 l 1
 1224 1096 l 1
 1139 517 l 2
 1110 325 1059 191 984 114 c 0
 949 77 900 43 838 12 c 128
 776 -19 702 -34 617 -34 c 2
 609 -34 l 1
 481 -28 381 11 310 83 c 0
 229 164 189 277 188 425 c 0
 188 460 196 552 214 702 c 2
 260 1087 l 1
1003 1661 m 1
 822 1351 l 1
 773 1382 l 1
 892 1701 l 1
 1003 1661 l 1
EndSplineSet
Colour: ffffff
EndChar

StartChar: Ucircumflex
Encoding: 155 219 154
Width: 1495
VWidth: 1655
GlyphClass: 2
Flags: HMW
LayerCount: 2
Fore
SplineSet
260 1087 m 1
 38 1123 l 1
 60 1199 l 1
 170 1219 266 1231 348 1237 c 128
 430 1243 500 1245 560 1245 c 128
 620 1245 658 1245 676 1243 c 1
 658 1166 l 1
 459 1138 l 1
 411 745 l 2
 411 743 411 735 409 721 c 128
 407 707 405 682 400 647 c 128
 395 612 394 585 392 566 c 128
 390 547 390 521 390 488 c 128
 390 455 391 428 394 405 c 0
 397 382 401 357 408 330 c 0
 423 274 454 227 502 188 c 1
 552 145 611 123 680 123 c 0
 810 123 904 179 961 290 c 1
 988 343 1008 425 1024 534 c 2
 1098 1111 l 1
 873 1120 l 1
 891 1197 l 1
 1032 1228 1178 1243 1331 1243 c 0
 1342 1243 1382 1242 1451 1239 c 1
 1431 1163 l 1
 1224 1096 l 1
 1139 517 l 2
 1110 325 1059 191 984 114 c 0
 949 77 900 43 838 12 c 128
 776 -19 702 -34 617 -34 c 2
 609 -34 l 1
 481 -28 381 11 310 83 c 0
 229 164 189 277 188 425 c 0
 188 460 196 552 214 702 c 2
 260 1087 l 1
803 1577 m 1
 978 1396 l 1
 930 1361 l 1
 769 1468 l 1
 759 1468 l 1
 622 1359 l 1
 585 1388 l 1
 750 1564 l 1
 803 1577 l 1
EndSplineSet
Colour: ffffff
EndChar

StartChar: Udieresis
Encoding: 156 220 155
Width: 1495
VWidth: 1655
GlyphClass: 2
Flags: HMW
LayerCount: 2
Fore
SplineSet
260 1087 m 1
 38 1123 l 1
 60 1199 l 1
 170 1219 266 1231 348 1237 c 128
 430 1243 500 1245 560 1245 c 128
 620 1245 658 1245 676 1243 c 1
 658 1166 l 1
 459 1138 l 1
 411 745 l 2
 411 743 411 735 409 721 c 128
 407 707 405 682 400 647 c 128
 395 612 394 585 392 566 c 128
 390 547 390 521 390 488 c 128
 390 455 391 428 394 405 c 0
 397 382 401 357 408 330 c 0
 423 274 454 227 502 188 c 1
 552 145 611 123 680 123 c 0
 810 123 904 179 961 290 c 1
 988 343 1008 425 1024 534 c 2
 1098 1111 l 1
 873 1120 l 1
 891 1197 l 1
 1032 1228 1178 1243 1331 1243 c 0
 1342 1243 1382 1242 1451 1239 c 1
 1431 1163 l 1
 1224 1096 l 1
 1139 517 l 2
 1110 325 1059 191 984 114 c 0
 949 77 900 43 838 12 c 128
 776 -19 702 -34 617 -34 c 2
 609 -34 l 1
 481 -28 381 11 310 83 c 0
 229 164 189 277 188 425 c 0
 188 460 196 552 214 702 c 2
 260 1087 l 1
972 1519 m 128
 989 1504 997 1486 997 1464 c 128
 997 1442 989 1424 972 1408 c 128
 955 1392 935 1385 912 1385 c 128
 889 1385 871 1392 854 1408 c 128
 837 1424 829 1443 829 1465 c 128
 829 1488 837 1504 854 1519 c 128
 871 1534 889 1541 912 1541 c 128
 935 1541 955 1534 972 1519 c 128
709 1519 m 128
 726 1504 734 1486 734 1464 c 128
 734 1442 726 1423 709 1408 c 128
 692 1393 672 1385 649 1385 c 128
 626 1385 607 1392 591 1408 c 128
 575 1424 567 1443 567 1465 c 128
 567 1488 575 1504 591 1519 c 128
 607 1534 626 1541 649 1541 c 128
 672 1541 692 1534 709 1519 c 128
EndSplineSet
Colour: ffffff
EndChar

StartChar: Yacute
Encoding: 157 221 156
Width: 1147
VWidth: 1655
GlyphClass: 2
Flags: HMW
LayerCount: 2
Fore
SplineSet
638 680 m 1
 609 583 587 476 573 359 c 2
 544 106 l 1
 757 81 l 1
 736 0 l 1
 110 0 l 1
 129 83 l 1
 350 129 l 1
 389 423 l 2
 396 470 399 519 399 569 c 0
 399 688 377 796 332 893 c 1
 271 1019 174 1092 38 1111 c 1
 48 1160 69 1197 103 1221 c 128
 137 1245 177 1259 221 1262 c 0
 223 1262 225 1262 227 1264 c 1
 232 1264 l 2
 339 1264 421 1204 476 1086 c 0
 523 985 546 857 544 702 c 2
 544 664 l 1
 560 664 l 1
 583 763 614 855 652 940 c 128
 690 1025 726 1088 759 1132 c 128
 792 1176 826 1206 863 1224 c 128
 900 1242 932 1250 961 1250 c 2
 971 1250 l 1
 975 1248 977 1248 981 1249 c 0
 1018 1245 1048 1231 1070 1205 c 128
 1092 1179 1103 1150 1103 1120 c 0
 1103 1107 1102 1097 1099 1087 c 1
 1060 1085 1016 1078 966 1063 c 128
 916 1048 870 1026 829 995 c 1
 782 957 745 915 718 869 c 128
 691 823 665 760 638 680 c 1
838 1661 m 1
 658 1351 l 1
 608 1382 l 1
 728 1701 l 1
 838 1661 l 1
EndSplineSet
Colour: ffffff
EndChar

StartChar: Thorn
Encoding: 158 222 157
Width: 1208
VWidth: 1655
GlyphClass: 2
Flags: HMW
LayerCount: 2
Fore
SplineSet
668 0 m 1
 38 0 l 1
 55 78 l 1
 277 130 l 1
 403 1099 l 1
 177 1131 l 1
 194 1205 l 1
 379 1239 534 1256 659 1255 c 0
 704 1255 758 1253 821 1249 c 1
 802 1171 l 1
 598 1150 l 1
 586 1039 l 1
 649 1045 697 1047 730 1047 c 0
 871 1047 979 1017 1053 957 c 128
 1127 897 1164 809 1164 696 c 0
 1164 581 1112 480 1007 393 c 1
 899 304 746 250 548 232 c 1
 541 315 l 1
 700 333 816 379 889 453 c 0
 943 508 971 579 970 665 c 128
 969 751 938 824 878 885 c 128
 818 946 737 977 635 977 c 0
 615 977 597 975 577 971 c 1
 475 108 l 1
 693 80 l 1
 668 0 l 1
EndSplineSet
Colour: ffffff
EndChar

StartChar: germandbls
Encoding: 159 223 158
Width: 1321
VWidth: 1655
GlyphClass: 2
Flags: HMW
LayerCount: 2
Fore
SplineSet
786 233 m 1
 823 125 877 66 949 57 c 1
 957 57 l 1
 959 55 964 55 973 56 c 128
 982 57 997 60 1019 70 c 128
 1041 80 1058 92 1070 106 c 1
 1081 123 1086 140 1086 158 c 2
 1086 165 l 1
 1084 167 1084 173 1082 185 c 0
 1060.82 338.532 783 407.263 783 575 c 128
 783 772.84 1061 856.53 1061 1058 c 0
 1061 1159.93 1006.28 1224.91 935 1222 c 1
 817.503 1222 717.35 1169.15 677 1074 c 0
 652 1023 637 949 630 851 c 1
 625 806 l 1
 604 468 590 251 582 155 c 128
 574 59 562 -21 545 -84 c 128
 528 -147 501 -200 466 -242 c 0
 419 -301 360 -342 289 -365 c 1
 252 -375 217 -378 186 -379 c 128
 155 -380 126 -373 101 -359 c 0
 59 -334 38 -297 38 -248 c 0
 38 -201 56 -163 93 -132 c 1
 157 -196 223 -228 290 -228 c 0
 312 -228 330 -224 346 -217 c 128
 362 -210 371 -200 377 -185 c 128
 422.356 -71.6113 405.426 -3.03027 428 313 c 2
 461 775 l 1
 350 766 l 1
 365 871 l 1
 470 855 l 1
 476 882 481 907 487 931 c 0
 508 1007 539 1070 581 1119 c 128
 676.212 1242.64 833.635 1299 1034 1299 c 128
 1120.52 1299 1226 1236 1226 1110 c 0
 1226 879.253 907 778 907 656 c 128
 907 629 916 601 936 573 c 1
 965 538 990 512 1012 494 c 128
 1034 476 1058 456 1084 435 c 128
 1110 414 1127 399 1138 389 c 0
 1169 362 1191 335 1206 306 c 128
 1221 277 1228 252 1230 230 c 1
 1230 218 l 2
 1230 179 1215 139 1184 98 c 1
 1152 59 1109 27 1055 2 c 128
 1001 -23 949 -35 900 -35 c 0
 805 -36 739 -13 700 34 c 0
 681 56 672 83 672 116 c 128
 672 149 689 179 724 207 c 1
 743 221 763 229 786 233 c 1
EndSplineSet
Colour: ffffff
EndChar

StartChar: agrave
Encoding: 160 224 159
Width: 909
VWidth: 1655
GlyphClass: 2
Flags: HMW
LayerCount: 2
Fore
SplineSet
617 918 m 1
 736 881 l 1
 664 491 l 1
 634 253 l 1
 629 214 627 186 627 168 c 0
 627 133 642 116 671 116 c 0
 689 116 713 133 743 166 c 128
 773 199 801 236 824 275 c 1
 865 240 l 1
 828 147 788 79 744 35 c 128
 700 -9 643 -31 573 -31 c 0
 540 -31 514 -18 496 6 c 128
 478 30 470 66 470 113 c 0
 470 161 482 219 506 287 c 1
 493 287 l 1
 458 203 412 131 355 70 c 128
 298 9 242 -21 187 -21 c 128
 132 -21 93 0 71 41 c 128
 49 82 38 143 38 225 c 128
 38 307 57 401 95 505 c 128
 133 609 184 701 248 779 c 128
 312 857 376 895 439 895 c 128
 502 895 550 870 583 820 c 1
 592 820 l 1
 606 909 l 1
 617 918 l 1
244 595 m 0
 210 490 193 398 193 317 c 128
 193 236 197 186 205 165 c 128
 213 144 230 134 257 134 c 0
 305 134 360 185 423 286 c 1
 486 387 530 512 557 660 c 1
 547 688 528 713 498 736 c 128
 468 759 438 770 406 770 c 128
 374 770 344 754 314 722 c 128
 284 690 261 648 244 595 c 0
316 1303 m 1
 428 1339 l 1
 557 1013 l 1
 501 978 l 1
 316 1303 l 1
EndSplineSet
Colour: ffffff
EndChar

StartChar: aacute
Encoding: 161 225 160
Width: 909
VWidth: 1655
GlyphClass: 2
Flags: HMW
LayerCount: 2
Fore
SplineSet
617 918 m 1
 736 881 l 1
 664 491 l 1
 634 253 l 1
 629 214 627 186 627 168 c 0
 627 133 642 116 671 116 c 0
 689 116 713 133 743 166 c 128
 773 199 801 236 824 275 c 1
 865 240 l 1
 828 147 788 79 744 35 c 128
 700 -9 643 -31 573 -31 c 0
 540 -31 514 -18 496 6 c 128
 478 30 470 66 470 113 c 0
 470 161 482 219 506 287 c 1
 493 287 l 1
 458 203 412 131 355 70 c 128
 298 9 242 -21 187 -21 c 128
 132 -21 93 0 71 41 c 128
 49 82 38 143 38 225 c 128
 38 307 57 401 95 505 c 128
 133 609 184 701 248 779 c 128
 312 857 376 895 439 895 c 128
 502 895 550 870 583 820 c 1
 592 820 l 1
 606 909 l 1
 617 918 l 1
244 595 m 0
 210 490 193 398 193 317 c 128
 193 236 197 186 205 165 c 128
 213 144 230 134 257 134 c 0
 305 134 360 185 423 286 c 1
 486 387 530 512 557 660 c 1
 547 688 528 713 498 736 c 128
 468 759 438 770 406 770 c 128
 374 770 344 754 314 722 c 128
 284 690 261 648 244 595 c 0
736 1309 m 1
 555 998 l 1
 506 1029 l 1
 625 1347 l 1
 736 1309 l 1
EndSplineSet
Colour: ffffff
EndChar

StartChar: acircumflex
Encoding: 162 226 161
Width: 909
VWidth: 1655
GlyphClass: 2
Flags: HMW
LayerCount: 2
Fore
SplineSet
617 918 m 1
 736 881 l 1
 664 491 l 1
 634 253 l 1
 629 214 627 186 627 168 c 0
 627 133 642 116 671 116 c 0
 689 116 713 133 743 166 c 128
 773 199 801 236 824 275 c 1
 865 240 l 1
 828 147 788 79 744 35 c 128
 700 -9 643 -31 573 -31 c 0
 540 -31 514 -18 496 6 c 128
 478 30 470 66 470 113 c 0
 470 161 482 219 506 287 c 1
 493 287 l 1
 458 203 412 131 355 70 c 128
 298 9 242 -21 187 -21 c 128
 132 -21 93 0 71 41 c 128
 49 82 38 143 38 225 c 128
 38 307 57 401 95 505 c 128
 133 609 184 701 248 779 c 128
 312 857 376 895 439 895 c 128
 502 895 550 870 583 820 c 1
 592 820 l 1
 606 909 l 1
 617 918 l 1
244 595 m 0
 210 490 193 398 193 317 c 128
 193 236 197 186 205 165 c 128
 213 144 230 134 257 134 c 0
 305 134 360 185 423 286 c 1
 486 387 530 512 557 660 c 1
 547 688 528 713 498 736 c 128
 468 759 438 770 406 770 c 128
 374 770 344 754 314 722 c 128
 284 690 261 648 244 595 c 0
537 1224 m 1
 711 1043 l 1
 662 1008 l 1
 502 1115 l 1
 493 1115 l 1
 355 1006 l 1
 318 1036 l 1
 483 1212 l 1
 537 1224 l 1
EndSplineSet
Colour: ffffff
EndChar

StartChar: atilde
Encoding: 163 227 162
Width: 909
VWidth: 1655
GlyphClass: 2
Flags: HMW
LayerCount: 2
Fore
SplineSet
617 918 m 1
 736 881 l 1
 664 491 l 1
 634 253 l 1
 629 214 627 186 627 168 c 0
 627 133 642 116 671 116 c 0
 689 116 713 133 743 166 c 128
 773 199 801 236 824 275 c 1
 865 240 l 1
 828 147 788 79 744 35 c 128
 700 -9 643 -31 573 -31 c 0
 540 -31 514 -18 496 6 c 128
 478 30 470 66 470 113 c 0
 470 161 482 219 506 287 c 1
 493 287 l 1
 458 203 412 131 355 70 c 128
 298 9 242 -21 187 -21 c 128
 132 -21 93 0 71 41 c 128
 49 82 38 143 38 225 c 128
 38 307 57 401 95 505 c 128
 133 609 184 701 248 779 c 128
 312 857 376 895 439 895 c 128
 502 895 550 870 583 820 c 1
 592 820 l 1
 606 909 l 1
 617 918 l 1
244 595 m 0
 210 490 193 398 193 317 c 128
 193 236 197 186 205 165 c 128
 213 144 230 134 257 134 c 0
 305 134 360 185 423 286 c 1
 486 387 530 512 557 660 c 1
 547 688 528 713 498 736 c 128
 468 759 438 770 406 770 c 128
 374 770 344 754 314 722 c 128
 284 690 261 648 244 595 c 0
383 1066 m 2
 366 1066 347 1050 325 1019 c 1
 288 1027 l 1
 290 1034 293 1044 297 1058 c 128
 301 1072 308 1089 321 1110 c 0
 346 1149 374 1169 407 1168 c 2
 413 1168 l 1
 415 1166 417 1166 420 1166 c 2
 638 1137 l 1
 641 1137 l 2
 655 1137 674 1151 697 1178 c 1
 744 1176 l 1
 713 1082 670 1035 615 1036 c 2
 604 1036 l 1
 385 1066 l 1
 383 1066 l 2
EndSplineSet
Colour: ffffff
EndChar

StartChar: adieresis
Encoding: 164 228 163
Width: 909
VWidth: 1655
GlyphClass: 2
Flags: HMW
LayerCount: 2
Fore
SplineSet
617 918 m 1
 736 881 l 1
 664 491 l 1
 634 253 l 1
 629 214 627 186 627 168 c 0
 627 133 642 116 671 116 c 0
 689 116 713 133 743 166 c 128
 773 199 801 236 824 275 c 1
 865 240 l 1
 828 147 788 79 744 35 c 128
 700 -9 643 -31 573 -31 c 0
 540 -31 514 -18 496 6 c 128
 478 30 470 66 470 113 c 0
 470 161 482 219 506 287 c 1
 493 287 l 1
 458 203 412 131 355 70 c 128
 298 9 242 -21 187 -21 c 128
 132 -21 93 0 71 41 c 128
 49 82 38 143 38 225 c 128
 38 307 57 401 95 505 c 128
 133 609 184 701 248 779 c 128
 312 857 376 895 439 895 c 128
 502 895 550 870 583 820 c 1
 592 820 l 1
 606 909 l 1
 617 918 l 1
244 595 m 0
 210 490 193 398 193 317 c 128
 193 236 197 186 205 165 c 128
 213 144 230 134 257 134 c 0
 305 134 360 185 423 286 c 1
 486 387 530 512 557 660 c 1
 547 688 528 713 498 736 c 128
 468 759 438 770 406 770 c 128
 374 770 344 754 314 722 c 128
 284 690 261 648 244 595 c 0
706 1165 m 128
 723 1150 731 1132 731 1110 c 128
 731 1088 723 1071 706 1055 c 128
 689 1039 668 1032 645 1032 c 128
 622 1032 604 1039 587 1055 c 128
 570 1071 562 1089 562 1111 c 128
 562 1133 570 1151 587 1166 c 128
 604 1181 622 1187 645 1187 c 128
 668 1187 689 1180 706 1165 c 128
442 1165 m 128
 459 1150 467 1132 467 1110 c 128
 467 1088 459 1070 442 1055 c 128
 425 1040 405 1032 382 1032 c 128
 359 1032 340 1039 324 1055 c 128
 308 1071 300 1089 300 1111 c 128
 300 1133 308 1151 324 1166 c 128
 340 1181 359 1187 382 1187 c 128
 405 1187 425 1180 442 1165 c 128
EndSplineSet
Colour: ffffff
EndChar

StartChar: aring
Encoding: 165 229 164
Width: 909
VWidth: 1655
GlyphClass: 2
Flags: HMW
LayerCount: 2
Fore
SplineSet
617 918 m 1
 736 881 l 1
 664 491 l 1
 634 253 l 1
 629 214 627 186 627 168 c 0
 627 133 642 116 671 116 c 0
 689 116 713 133 743 166 c 128
 773 199 801 236 824 275 c 1
 865 240 l 1
 828 147 788 79 744 35 c 128
 700 -9 643 -31 573 -31 c 0
 540 -31 514 -18 496 6 c 128
 478 30 470 66 470 113 c 0
 470 161 482 219 506 287 c 1
 493 287 l 1
 458 203 412 131 355 70 c 128
 298 9 242 -21 187 -21 c 128
 132 -21 93 0 71 41 c 128
 49 82 38 143 38 225 c 128
 38 307 57 401 95 505 c 128
 133 609 184 701 248 779 c 128
 312 857 376 895 439 895 c 128
 502 895 550 870 583 820 c 1
 592 820 l 1
 606 909 l 1
 617 918 l 1
244 595 m 0
 210 490 193 398 193 317 c 128
 193 236 197 186 205 165 c 128
 213 144 230 134 257 134 c 0
 305 134 360 185 423 286 c 1
 486 387 530 512 557 660 c 1
 547 688 528 713 498 736 c 128
 468 759 438 770 406 770 c 128
 374 770 344 754 314 722 c 128
 284 690 261 648 244 595 c 0
450 1262 m 128
 435 1241 427 1215 427 1182 c 128
 427 1149 436 1120 453 1095 c 128
 470 1070 492 1058 521 1058 c 0
 577 1058 605 1095 604 1170 c 0
 604 1205 596 1234 578 1258 c 128
 560 1282 539 1294 512 1294 c 128
 485 1294 465 1283 450 1262 c 128
632 1296 m 128
 660 1267 674 1229 674 1182 c 128
 674 1135 658 1096 627 1062 c 128
 596 1028 556 1011 510 1011 c 128
 464 1011 427 1026 399 1056 c 128
 371 1086 357 1124 357 1171 c 128
 357 1218 373 1258 405 1291 c 128
 437 1324 476 1340 522 1340 c 128
 568 1340 604 1325 632 1296 c 128
EndSplineSet
Colour: ffffff
EndChar

StartChar: ae
Encoding: 166 230 165
Width: 1093
VWidth: 1655
GlyphClass: 2
Flags: HMW
LayerCount: 2
Fore
SplineSet
883 897 m 0
 935 897 976 881 1005 850 c 128
 1034 819 1049 775 1049 718 c 128
 1049 661 1026 604 980 544 c 128
 934 484 879 434 813 393 c 128
 747 352 684 323 623 305 c 1
 624 235 637 184 663 152 c 128
 689 120 725 104 772 104 c 0
 859 104 932 151 992 246 c 1
 1028 214 l 1
 1006 148 966 91 907 42 c 128
 848 -7 782 -31 711 -31 c 128
 640 -31 583 -8 540 39 c 128
 497 86 473 151 467 235 c 1
 425 159 379 97 330 50 c 128
 281 3 231 -21 182 -21 c 0
 86 -21 38 59 38 218 c 0
 38 305 57 400 95 505 c 128
 133 610 186 701 250 779 c 128
 314 857 380 895 449 895 c 0
 484 895 517 879 546 847 c 128
 575 815 595 775 607 726 c 1
 690 840 782 897 883 897 c 0
256 628 m 128
 238 587 223 537 211 479 c 128
 199 421 193 360 193 294 c 128
 193 228 197 186 205 165 c 128
 213 144 230 134 256 134 c 0
 304 134 360 185 423 286 c 1
 486 387 530 512 557 660 c 1
 547 688 528 713 498 736 c 128
 468 759 440 770 411 770 c 128
 382 770 352 757 324 730 c 128
 296 703 274 669 256 628 c 128
824 512 m 128
 873 571 897 632 897 696 c 128
 897 760 871 791 818 791 c 0
 708 791 643 653 625 377 c 1
 708 408 775 453 824 512 c 128
EndSplineSet
Colour: ffffff
EndChar

StartChar: ccedilla
Encoding: 167 231 166
Width: 670
VWidth: 1655
GlyphClass: 2
Flags: HMW
LayerCount: 2
Fore
SplineSet
321 -75 m 1
 380 -126 409 -174 408 -221 c 0
 408 -290 343 -343 212 -381 c 1
 193 -323 l 1
 249 -303 277 -276 277 -242 c 0
 277 -215 253 -179 205 -134 c 1
 279 -31 l 1
 136 0 39 68.4365 39 322 c 128
 39 410.227 51 485.587 75 549 c 128
 99 618 131 677 169 727 c 128
 207 777 251 817 300 847 c 128
 349 877 401 893 453 893 c 128
 505 893 547 878 579 847 c 128
 611 816 626 778 626 732 c 128
 626 686 615 653 593 632 c 128
 571 611 536 598 487 592 c 1
 487 602 484 625 477 663 c 0
 464 732 444 774 417 790 c 0
 407 795 397 797 385 796 c 0
 325 796 279 760 248 687 c 128
 217 614 201 521 201 411 c 128
 201 301 214 221 242 172 c 128
 270 123 317 98 384 98 c 2
 386 98 l 2
 418 98 449 110 481 133 c 128
 513 156 540 188 561 227 c 1
 597 195 l 1
 584 146 554 101 508 59 c 128
 462 17 411 -11 354 -24 c 1
 321 -75 l 1
EndSplineSet
Colour: ffffff
EndChar

StartChar: egrave
Encoding: 168 232 167
Width: 666
VWidth: 1655
GlyphClass: 2
Flags: HMW
LayerCount: 2
Fore
SplineSet
578 849 m 128
 608 817 622 777 622 726 c 0
 622 630 573 547 474 477 c 1
 391 418 298 373 197 341 c 1
 201 183 255 104 360 104 c 0
 398 104 435 118 471 144 c 128
 507 170 538 204 566 246 c 1
 603 214 l 1
 580 147 538 89 480 41 c 128
 422 -7 355 -31 279 -31 c 128
 203 -31 145 -2 102 56 c 128
 59 114 38 193 38 293 c 128
 38 393 57 488 96 580 c 128
 135 672 187 749 252 808 c 128
 317 867 384 897 455 897 c 0
 507 897 548 881 578 849 c 128
470 698 m 0
 470 760 443 791 390 790 c 0
 278 790 214 664 198 414 c 1
 379 481 470 576 470 698 c 0
271 1315 m 1
 384 1351 l 1
 514 1024 l 1
 457 990 l 1
 271 1315 l 1
EndSplineSet
Colour: ffffff
EndChar

StartChar: eacute
Encoding: 169 233 168
Width: 736
VWidth: 1655
GlyphClass: 2
Flags: HMW
LayerCount: 2
Fore
SplineSet
578 849 m 128
 608 817 622 777 622 726 c 0
 622 630 573 547 474 477 c 1
 391 418 298 373 197 341 c 1
 201 183 255 104 360 104 c 0
 398 104 435 118 471 144 c 128
 507 170 538 204 566 246 c 1
 603 214 l 1
 580 147 538 89 480 41 c 128
 422 -7 355 -31 279 -31 c 128
 203 -31 145 -2 102 56 c 128
 59 114 38 193 38 293 c 128
 38 393 57 488 96 580 c 128
 135 672 187 749 252 808 c 128
 317 867 384 897 455 897 c 0
 507 897 548 881 578 849 c 128
470 698 m 0
 470 760 443 791 390 790 c 0
 278 790 214 664 198 414 c 1
 379 481 470 576 470 698 c 0
592 1320 m 5
 413 1010 l 5
 362 1041 l 5
 481 1359 l 5
 592 1320 l 5
EndSplineSet
Colour: ffffff
EndChar

StartChar: ecircumflex
Encoding: 170 234 169
Width: 711
VWidth: 1655
GlyphClass: 2
Flags: HMW
LayerCount: 2
Fore
SplineSet
578 849 m 128
 608 817 622 777 622 726 c 0
 622 630 573 547 474 477 c 1
 391 418 298 373 197 341 c 1
 201 183 255 104 360 104 c 0
 398 104 435 118 471 144 c 128
 507 170 538 204 566 246 c 1
 603 214 l 1
 580 147 538 89 480 41 c 128
 422 -7 355 -31 279 -31 c 128
 203 -31 145 -2 102 56 c 128
 59 114 38 193 38 293 c 128
 38 393 57 488 96 580 c 128
 135 672 187 749 252 808 c 128
 317 867 384 897 455 897 c 0
 507 897 548 881 578 849 c 128
470 698 m 0
 470 760 443 791 390 790 c 0
 278 790 214 664 198 414 c 1
 379 481 470 576 470 698 c 0
453 1236 m 1
 627 1055 l 1
 579 1019 l 1
 419 1127 l 1
 409 1127 l 1
 272 1018 l 1
 234 1047 l 1
 399 1224 l 1
 453 1236 l 1
EndSplineSet
Colour: ffffff
EndChar

StartChar: edieresis
Encoding: 171 235 170
Width: 731
VWidth: 1655
GlyphClass: 2
Flags: HMW
LayerCount: 2
Fore
SplineSet
578 849 m 128
 608 817 622 777 622 726 c 0
 622 630 573 547 474 477 c 1
 391 418 298 373 197 341 c 1
 201 183 255 104 360 104 c 0
 398 104 435 118 471 144 c 128
 507 170 538 204 566 246 c 1
 603 214 l 1
 580 147 538 89 480 41 c 128
 422 -7 355 -31 279 -31 c 128
 203 -31 145 -2 102 56 c 128
 59 114 38 193 38 293 c 128
 38 393 57 488 96 580 c 128
 135 672 187 749 252 808 c 128
 317 867 384 897 455 897 c 0
 507 897 548 881 578 849 c 128
470 698 m 0
 470 760 443 791 390 790 c 0
 278 790 214 664 198 414 c 1
 379 481 470 576 470 698 c 0
661 1177 m 128
 678 1162 687 1144 687 1122 c 128
 687 1100 678 1082 661 1066 c 128
 644 1050 625 1043 602 1043 c 128
 579 1043 559 1050 543 1066 c 128
 527 1082 519 1100 519 1122 c 128
 519 1145 527 1163 543 1178 c 128
 559 1193 579 1199 602 1199 c 128
 625 1199 644 1192 661 1177 c 128
398 1177 m 128
 415 1162 423 1143 423 1121 c 128
 423 1099 415 1081 398 1066 c 128
 381 1051 363 1043 340 1043 c 128
 317 1043 297 1050 281 1066 c 128
 265 1082 257 1100 257 1122 c 128
 257 1145 265 1163 281 1178 c 128
 297 1193 317 1199 340 1199 c 128
 363 1199 381 1192 398 1177 c 128
EndSplineSet
Colour: ffffff
EndChar

StartChar: igrave
Encoding: 172 236 171
Width: 653
VWidth: 1655
GlyphClass: 2
Flags: HMW
LayerCount: 2
Fore
SplineSet
378 254 m 1
 374 225 373 201 373 181 c 0
 373 142 384 123 407 123 c 128
 430 123 457 134 489 157 c 128
 521 180 547 209 567 246 c 1
 609 217 l 1
 549 57 453 -23 321 -23 c 0
 280 -23 250 -10 233 15 c 128
 216 40 208 71 208 108 c 128
 208 145 212 208 221 296 c 1
 257 611 l 2
 259 634 260 656 260 676 c 0
 260 728 248 754 224 754 c 128
 200 754 155 702 86 599 c 1
 38 631 l 1
 67 707 110 772 166 826 c 128
 222 880 277 906 332 906 c 0
 394 906 425 859 423 766 c 0
 423 758 418 692 406 569 c 1
 378 254 l 1
123 1331 m 1
 235 1367 l 1
 364 1041 l 1
 309 1006 l 1
 123 1331 l 1
EndSplineSet
Colour: ffffff
EndChar

StartChar: iacute
Encoding: 173 237 172
Width: 653
VWidth: 1655
GlyphClass: 2
Flags: HMW
LayerCount: 2
Fore
SplineSet
378 254 m 1
 374 225 373 201 373 181 c 0
 373 142 384 123 407 123 c 128
 430 123 457 134 489 157 c 128
 521 180 547 209 567 246 c 1
 609 217 l 1
 549 57 453 -23 321 -23 c 0
 280 -23 250 -10 233 15 c 128
 216 40 208 71 208 108 c 128
 208 145 212 208 221 296 c 1
 257 611 l 2
 259 634 260 656 260 676 c 0
 260 728 248 754 224 754 c 128
 200 754 155 702 86 599 c 1
 38 631 l 1
 67 707 110 772 166 826 c 128
 222 880 277 906 332 906 c 0
 394 906 425 859 423 766 c 0
 423 758 418 692 406 569 c 1
 378 254 l 1
544 1336 m 1
 362 1026 l 1
 314 1057 l 1
 432 1375 l 1
 544 1336 l 1
EndSplineSet
Colour: ffffff
EndChar

StartChar: icircumflex
Encoding: 174 238 173
Width: 653
VWidth: 1655
GlyphClass: 2
Flags: HMW
LayerCount: 2
Fore
SplineSet
378 254 m 1
 374 225 373 201 373 181 c 0
 373 142 384 123 407 123 c 128
 430 123 457 134 489 157 c 128
 521 180 547 209 567 246 c 1
 609 217 l 1
 549 57 453 -23 321 -23 c 0
 280 -23 250 -10 233 15 c 128
 216 40 208 71 208 108 c 128
 208 145 212 208 221 296 c 1
 257 611 l 2
 259 634 260 656 260 676 c 0
 260 728 248 754 224 754 c 128
 200 754 155 702 86 599 c 1
 38 631 l 1
 67 707 110 772 166 826 c 128
 222 880 277 906 332 906 c 0
 394 906 425 859 423 766 c 0
 423 758 418 692 406 569 c 1
 378 254 l 1
343 1252 m 1
 519 1071 l 1
 470 1036 l 1
 310 1142 l 1
 300 1142 l 1
 162 1034 l 1
 126 1064 l 1
 291 1239 l 1
 343 1252 l 1
EndSplineSet
Colour: ffffff
EndChar

StartChar: idieresis
Encoding: 175 239 174
Width: 653
VWidth: 1655
GlyphClass: 2
Flags: HMW
LayerCount: 2
Fore
SplineSet
378 254 m 1
 374 225 373 201 373 181 c 0
 373 142 384 123 407 123 c 128
 430 123 457 134 489 157 c 128
 521 180 547 209 567 246 c 1
 609 217 l 1
 549 57 453 -23 321 -23 c 0
 280 -23 250 -10 233 15 c 128
 216 40 208 71 208 108 c 128
 208 145 212 208 221 296 c 1
 257 611 l 2
 259 634 260 656 260 676 c 0
 260 728 248 754 224 754 c 128
 200 754 155 702 86 599 c 1
 38 631 l 1
 67 707 110 772 166 826 c 128
 222 880 277 906 332 906 c 0
 394 906 425 859 423 766 c 0
 423 758 418 692 406 569 c 1
 378 254 l 1
513 1193 m 128
 531 1178 539 1160 539 1138 c 128
 539 1116 531 1099 513 1083 c 128
 495 1067 476 1060 453 1060 c 128
 430 1060 410 1067 393 1083 c 128
 376 1099 369 1117 369 1139 c 128
 369 1161 376 1179 393 1194 c 128
 410 1209 430 1215 453 1215 c 128
 476 1215 495 1208 513 1193 c 128
249 1193 m 128
 266 1178 274 1160 274 1138 c 128
 274 1116 266 1098 249 1083 c 128
 232 1068 213 1060 190 1060 c 128
 167 1060 147 1067 131 1083 c 128
 115 1099 108 1117 108 1139 c 128
 108 1161 115 1179 131 1194 c 128
 147 1209 167 1215 190 1215 c 128
 213 1215 232 1208 249 1193 c 128
EndSplineSet
Colour: ffffff
EndChar

StartChar: eth
Encoding: 176 240 175
Width: 832
VWidth: 1655
GlyphClass: 2
Flags: HMW
LayerCount: 2
Fore
SplineSet
665 1085 m 1
 746 951 786 792 787 608 c 0
 787 389 734 221 628 105 c 0
 548 18 456 -26 352 -26 c 0
 283 -26 225 -9 178 24 c 0
 85 89 39 198 38 353 c 0
 38 382 39 411 43 442 c 1
 60 577 108 683 189 762 c 128
 270 841 364 881 472 881 c 0
 503 881 532 873 558 858 c 128
 584 843 600 821 607 791 c 1
 613 791 l 1
 601 853 574 939 531 1048 c 1
 324 1008 l 1
 343 1085 l 1
 503 1117 l 1
 480 1164 444 1218 395 1277 c 1
 503 1277 l 1
 554 1234 595 1190 627 1145 c 1
 768 1176 l 1
 749 1101 l 1
 665 1085 l 1
444 790 m 2
 378 790 327 766 290 717 c 128
 253 668 228 592 214 489 c 0
 209 457 207 420 209 377 c 0
 209 280 224 205 255 151 c 128
 286 97 332 70 393 70 c 0
 511 70 584 185 612 416 c 0
 616 445 617 474 617 502 c 0
 617 587 602 656 571 708 c 128
 540 760 500 787 451 790 c 1
 444 790 l 2
EndSplineSet
Colour: ffffff
EndChar

StartChar: ntilde
Encoding: 177 241 176
Width: 1068
VWidth: 1655
GlyphClass: 2
Flags: HMW
LayerCount: 2
Fore
SplineSet
379 344 m 1
 375 207 362 112 336 56 c 128
 310 0 268 -28 209 -28 c 0
 207 -28 193 -27 167 -24 c 1
 153 3 l 1
 235 388 l 1
 257 620 l 2
 259 648 260 673 260 696 c 0
 260 745 248 769 223 768 c 0
 210 768 190 751 161 718 c 128
 132 685 107 650 86 613 c 1
 38 651 l 1
 65 724 107 786 163 840 c 128
 219 894 277 921 338 921 c 0
 390 921 416 887 415 818 c 0
 415 788 411 753 402 713 c 0
 392 672 387 644 384 627 c 0
 376 592 373 574 374 573 c 1
 385 567 l 1
 415 658 460 737 519 801 c 128
 578 865 634 897 687 897 c 128
 740 897 780 883 806 856 c 128
 832 829 845 794 845 750 c 128
 845 706 842 662 836 615 c 1
 792 253 l 2
 787 218 785 195 785 181 c 0
 785 141 797 121 820 121 c 128
 843 121 871 133 903 156 c 128
 935 179 961 209 981 246 c 1
 1024 216 l 1
 964 56 863 -24 720 -24 c 0
 655 -24 622 18 622 101 c 0
 622 112 629 177 643 295 c 2
 666 488 l 2
 676 571 680 625 681 649 c 0
 681 698 662 722 625 721 c 0
 520 721 438 595 379 344 c 1
852 1203 m 1
 821 1109 778 1062 725 1064 c 2
 713 1064 l 1
 495 1094 l 1
 491 1094 l 2
 471 1094 455 1082 441 1058 c 1
 432 1047 l 1
 395 1055 l 1
 397 1062 400 1072 404 1086 c 128
 408 1100 416 1116 430 1136 c 0
 455 1175 483 1195 516 1196 c 2
 522 1196 l 1
 524 1194 525 1194 529 1194 c 2
 748 1164 l 1
 750 1164 l 2
 768 1164 785 1178 805 1205 c 1
 852 1203 l 1
EndSplineSet
Colour: ffffff
EndChar

StartChar: ograve
Encoding: 178 242 177
Width: 744
VWidth: 1655
GlyphClass: 2
Flags: HMW
LayerCount: 2
Fore
SplineSet
109 79 m 128
 61 149 38 236 38 340 c 128
 38 444 56 537 91 620 c 128
 126 703 173 770 234 821 c 128
 295 872 362 897 435 897 c 128
 508 897 571 863 622 795 c 128
 673 727 699 644 699 546 c 128
 699 448 684 358 653 274 c 128
 622 190 576 119 515 61 c 128
 454 3 383 -26 302 -26 c 128
 221 -26 157 9 109 79 c 128
260 733 m 0
 206 672 179 581 179 460 c 0
 179 325 210 221 271 146 c 0
 301 109 334 89 371 90 c 128
 408 91 441 107 470 139 c 0
 526 204 554 300 554 424 c 0
 554 558 524 659 465 730 c 0
 435 765 401 783 363 784 c 128
 325 785 291 767 260 733 c 0
229 1298 m 1
 341 1336 l 1
 472 1008 l 1
 415 973 l 1
 229 1298 l 1
EndSplineSet
Colour: ffffff
EndChar

StartChar: oacute
Encoding: 179 243 178
Width: 744
VWidth: 1655
GlyphClass: 2
Flags: HMW
LayerCount: 2
Fore
SplineSet
109 79 m 128
 61 149 38 236 38 340 c 128
 38 444 56 537 91 620 c 128
 126 703 173 770 234 821 c 128
 295 872 362 897 435 897 c 128
 508 897 571 863 622 795 c 128
 673 727 699 644 699 546 c 128
 699 448 684 358 653 274 c 128
 622 190 576 119 515 61 c 128
 454 3 383 -26 302 -26 c 128
 221 -26 157 9 109 79 c 128
260 733 m 0
 206 672 179 581 179 460 c 0
 179 325 210 221 271 146 c 0
 301 109 334 89 371 90 c 128
 408 91 441 107 470 139 c 0
 526 204 554 300 554 424 c 0
 554 558 524 659 465 730 c 0
 435 765 401 783 363 784 c 128
 325 785 291 767 260 733 c 0
650 1304 m 1
 470 994 l 1
 420 1024 l 1
 540 1342 l 1
 650 1304 l 1
EndSplineSet
Colour: ffffff
EndChar

StartChar: ocircumflex
Encoding: 180 244 179
Width: 745
VWidth: 1655
GlyphClass: 2
Flags: HMW
LayerCount: 2
Fore
SplineSet
110 79 m 128
 62 149 39 236 39 340 c 128
 39 444 57 537 92 620 c 128
 127 703 174 770 235 821 c 128
 296 872 363 897 436 897 c 128
 509 897 572 863 623 795 c 128
 674 727 700 644 700 546 c 128
 700 448 685 358 654 274 c 128
 623 190 577 119 516 61 c 128
 455 3 384 -26 303 -26 c 128
 222 -26 158 9 110 79 c 128
261 733 m 0
 207 672 180 581 180 460 c 0
 180 325 211 221 272 146 c 0
 302 109 335 89 372 90 c 128
 409 91 442 107 471 139 c 0
 527 204 555 300 555 424 c 0
 555 558 525 659 466 730 c 0
 436 765 402 783 364 784 c 128
 326 785 292 767 261 733 c 0
452 1220 m 1
 626 1039 l 1
 577 1003 l 1
 417 1111 l 1
 408 1111 l 1
 271 1001 l 1
 233 1031 l 1
 398 1207 l 1
 452 1220 l 1
EndSplineSet
Colour: ffffff
EndChar

StartChar: otilde
Encoding: 181 245 180
Width: 745
VWidth: 1655
GlyphClass: 2
Flags: HMW
LayerCount: 2
Fore
SplineSet
110 79 m 128
 62 149 39 236 39 340 c 128
 39 444 57 537 92 620 c 128
 127 703 174 770 235 821 c 128
 296 872 363 897 436 897 c 128
 509 897 572 863 623 795 c 128
 674 727 700 644 700 546 c 128
 700 448 685 358 654 274 c 128
 623 190 577 119 516 61 c 128
 455 3 384 -26 303 -26 c 128
 222 -26 158 9 110 79 c 128
261 733 m 0
 207 672 180 581 180 460 c 0
 180 325 211 221 272 146 c 0
 302 109 335 89 372 90 c 128
 409 91 442 107 471 139 c 0
 527 204 555 300 555 424 c 0
 555 558 525 659 466 730 c 0
 436 765 402 783 364 784 c 128
 326 785 292 767 261 733 c 0
659 1171 m 1
 628 1077 585 1030 531 1031 c 2
 520 1031 l 1
 301 1062 l 1
 298 1062 l 2
 278 1062 262 1050 248 1026 c 1
 240 1015 l 1
 202 1022 l 1
 204 1029 207 1039 211 1053 c 128
 215 1067 223 1084 236 1105 c 0
 261 1144 289 1164 322 1163 c 2
 329 1163 l 1
 331 1161 332 1161 336 1161 c 2
 553 1132 l 1
 556 1132 l 2
 574 1132 592 1146 612 1173 c 1
 659 1171 l 1
EndSplineSet
Colour: ffffff
EndChar

StartChar: odieresis
Encoding: 182 246 181
Width: 745
VWidth: 1655
GlyphClass: 2
Flags: HMW
LayerCount: 2
Fore
SplineSet
110 79 m 128
 62 149 39 236 39 340 c 128
 39 444 57 537 92 620 c 128
 127 703 174 770 235 821 c 128
 296 872 363 897 436 897 c 128
 509 897 572 863 623 795 c 128
 674 727 700 644 700 546 c 128
 700 448 685 358 654 274 c 128
 623 190 577 119 516 61 c 128
 455 3 384 -26 303 -26 c 128
 222 -26 158 9 110 79 c 128
261 733 m 0
 207 672 180 581 180 460 c 0
 180 325 211 221 272 146 c 0
 302 109 335 89 372 90 c 128
 409 91 442 107 471 139 c 0
 527 204 555 300 555 424 c 0
 555 558 525 659 466 730 c 0
 436 765 402 783 364 784 c 128
 326 785 292 767 261 733 c 0
620 1160 m 128
 638 1145 646 1127 646 1105 c 128
 646 1083 638 1066 620 1050 c 128
 602 1034 583 1027 560 1027 c 128
 537 1027 518 1034 501 1050 c 128
 484 1066 477 1084 477 1106 c 128
 477 1128 484 1146 501 1161 c 128
 518 1176 537 1182 560 1182 c 128
 583 1182 602 1175 620 1160 c 128
357 1160 m 128
 374 1145 382 1127 382 1105 c 128
 382 1083 374 1065 357 1050 c 128
 340 1035 322 1027 299 1027 c 128
 276 1027 256 1034 239 1050 c 128
 222 1066 215 1084 215 1106 c 128
 215 1128 222 1146 239 1161 c 128
 256 1176 276 1182 299 1182 c 128
 322 1182 340 1175 357 1160 c 128
EndSplineSet
Colour: ffffff
EndChar

StartChar: divide
Encoding: 183 247 182
Width: 905
VWidth: 1655
GlyphClass: 2
Flags: HMW
LayerCount: 2
Fore
SplineSet
606 790 m 0
 606 782 606 777 604 773 c 1
 598 740 583 711 556 688 c 128
 529 665 500 653 469 653 c 128
 438 653 413 662 395 682 c 128
 377 702 369 720 369 740 c 128
 369 760 369 771 370 775 c 1
 374 806 389 832 415 853 c 128
 441 874 470 885 501 885 c 132
 532 885 557 876 577 857 c 128
 597 838 606 817 606 790 c 0
518 238 m 0
 518 230 518 225 517 221 c 1
 511 188 495 160 468 137 c 128
 441 114 411 103 381 103 c 128
 351 103 327 112 308 131 c 128
 289 150 280 168 280 188 c 128
 280 208 280 219 282 223 c 1
 286 254 301 280 328 301 c 128
 355 322 383 332 414 332 c 128
 445 332 469 323 489 305 c 128
 509 287 518 265 518 238 c 0
65 548 m 1
 861 548 l 1
 833 446 l 1
 38 446 l 1
 65 548 l 1
EndSplineSet
Colour: ffffff
EndChar

StartChar: oslash
Encoding: 184 248 183
Width: 760
VWidth: 1655
GlyphClass: 2
Flags: HMW
LayerCount: 2
Fore
SplineSet
273 163 m 1
 307 114 343 89 383 90 c 128
 423 91 457 107 486 139 c 0
 542 204 570 300 570 424 c 0
 570 503 557 576 530 644 c 1
 273 163 l 1
276 733 m 0
 222 672 195 581 195 460 c 0
 195 377 208 301 235 233 c 1
 492 716 l 1
 461 761 425 784 384 784 c 128
 343 784 307 767 276 733 c 0
575 915 m 1
 704 923 l 1
 636 794 l 1
 688 727 714 645 715 547 c 128
 716 449 700 358 669 274 c 128
 638 190 592 119 531 61 c 128
 470 3 400 -26 321 -26 c 0
 282 -26 244 -17 209 2 c 1
 167 -77 l 1
 38 -84 l 1
 127 80 l 1
 78 149 54 235 54 339 c 128
 54 443 72 537 107 620 c 128
 142 703 189 770 250 821 c 128
 311 872 376 897 446 897 c 0
 478 897 513 888 551 869 c 1
 575 915 l 1
EndSplineSet
Colour: ffffff
EndChar

StartChar: ugrave
Encoding: 185 249 184
Width: 1041
VWidth: 1655
GlyphClass: 2
Flags: HMW
LayerCount: 2
Fore
SplineSet
687 817 m 1
 710 872 749 900 806 900 c 0
 820 900 833 899 848 895 c 1
 864 867 l 1
 794 484 l 1
 777 284 l 2
 772 233 769 199 770 178 c 128
 771 157 773 143 779 135 c 128
 785 127 796 123 812 123 c 128
 828 123 851 139 882 170 c 128
 913 201 938 234 958 270 c 1
 997 242 l 1
 945 64 848 -25 704 -24 c 0
 645 -24 616 17 615 98 c 0
 615 139 624 194 643 263 c 1
 632 265 l 1
 599 174 557 102 508 51 c 128
 459 0 407 -26 354 -26 c 128
 301 -26 260 -12 234 16 c 128
 208 44 195 77 195 118 c 128
 195 159 198 205 204 256 c 1
 257 602 l 1
 262 637 264 661 263 676 c 0
 263 717 252 737 229 738 c 0
 198 738 150 689 86 592 c 1
 38 623 l 1
 67 699 110 765 166 819 c 128
 222 873 277 900 332 900 c 0
 397 900 430 857 428 770 c 0
 428 743 420 673 402 561 c 2
 374 385 l 1
 364 328 360 281 360 242 c 128
 360 203 363 179 372 167 c 128
 381 155 395 150 415 150 c 0
 463 150 506 179 545 237 c 1
 584 296 619 393 650 527 c 1
 652 668 664 764 687 817 c 1
389 1331 m 1
 502 1367 l 1
 632 1041 l 1
 575 1006 l 1
 389 1331 l 1
EndSplineSet
Colour: ffffff
EndChar

StartChar: uacute
Encoding: 186 250 185
Width: 1041
VWidth: 1655
GlyphClass: 2
Flags: HMW
LayerCount: 2
Fore
SplineSet
687 817 m 1
 710 872 749 900 806 900 c 0
 820 900 833 899 848 895 c 1
 864 867 l 1
 794 484 l 1
 777 284 l 2
 772 233 769 199 770 178 c 128
 771 157 773 143 779 135 c 128
 785 127 796 123 812 123 c 128
 828 123 851 139 882 170 c 128
 913 201 938 234 958 270 c 1
 997 242 l 1
 945 64 848 -25 704 -24 c 0
 645 -24 616 17 615 98 c 0
 615 139 624 194 643 263 c 1
 632 265 l 1
 599 174 557 102 508 51 c 128
 459 0 407 -26 354 -26 c 128
 301 -26 260 -12 234 16 c 128
 208 44 195 77 195 118 c 128
 195 159 198 205 204 256 c 1
 257 602 l 1
 262 637 264 661 263 676 c 0
 263 717 252 737 229 738 c 0
 198 738 150 689 86 592 c 1
 38 623 l 1
 67 699 110 765 166 819 c 128
 222 873 277 900 332 900 c 0
 397 900 430 857 428 770 c 0
 428 743 420 673 402 561 c 2
 374 385 l 1
 364 328 360 281 360 242 c 128
 360 203 363 179 372 167 c 128
 381 155 395 150 415 150 c 0
 463 150 506 179 545 237 c 1
 584 296 619 393 650 527 c 1
 652 668 664 764 687 817 c 1
810 1336 m 1
 630 1026 l 1
 580 1057 l 1
 700 1375 l 1
 810 1336 l 1
EndSplineSet
Colour: ffffff
EndChar

StartChar: ucircumflex
Encoding: 187 251 186
Width: 1041
VWidth: 1655
GlyphClass: 2
Flags: HMW
LayerCount: 2
Fore
SplineSet
687 817 m 1
 710 872 749 900 806 900 c 0
 820 900 833 899 848 895 c 1
 864 867 l 1
 794 484 l 1
 777 284 l 2
 772 233 769 199 770 178 c 128
 771 157 773 143 779 135 c 128
 785 127 796 123 812 123 c 128
 828 123 851 139 882 170 c 128
 913 201 938 234 958 270 c 1
 997 242 l 1
 945 64 848 -25 704 -24 c 0
 645 -24 616 17 615 98 c 0
 615 139 624 194 643 263 c 1
 632 265 l 1
 599 174 557 102 508 51 c 128
 459 0 407 -26 354 -26 c 128
 301 -26 260 -12 234 16 c 128
 208 44 195 77 195 118 c 128
 195 159 198 205 204 256 c 1
 257 602 l 1
 262 637 264 661 263 676 c 0
 263 717 252 737 229 738 c 0
 198 738 150 689 86 592 c 1
 38 623 l 1
 67 699 110 765 166 819 c 128
 222 873 277 900 332 900 c 0
 397 900 430 857 428 770 c 0
 428 743 420 673 402 561 c 2
 374 385 l 1
 364 328 360 281 360 242 c 128
 360 203 363 179 372 167 c 128
 381 155 395 150 415 150 c 0
 463 150 506 179 545 237 c 1
 584 296 619 393 650 527 c 1
 652 668 664 764 687 817 c 1
611 1252 m 1
 785 1071 l 1
 737 1036 l 1
 576 1142 l 1
 567 1142 l 1
 430 1034 l 1
 392 1064 l 1
 557 1239 l 1
 611 1252 l 1
EndSplineSet
Colour: ffffff
EndChar

StartChar: udieresis
Encoding: 188 252 187
Width: 1041
VWidth: 1655
GlyphClass: 2
Flags: HMW
LayerCount: 2
Fore
SplineSet
687 817 m 1
 710 872 749 900 806 900 c 0
 820 900 833 899 848 895 c 1
 864 867 l 1
 794 484 l 1
 777 284 l 2
 772 233 769 199 770 178 c 128
 771 157 773 143 779 135 c 128
 785 127 796 123 812 123 c 128
 828 123 851 139 882 170 c 128
 913 201 938 234 958 270 c 1
 997 242 l 1
 945 64 848 -25 704 -24 c 0
 645 -24 616 17 615 98 c 0
 615 139 624 194 643 263 c 1
 632 265 l 1
 599 174 557 102 508 51 c 128
 459 0 407 -26 354 -26 c 128
 301 -26 260 -12 234 16 c 128
 208 44 195 77 195 118 c 128
 195 159 198 205 204 256 c 1
 257 602 l 1
 262 637 264 661 263 676 c 0
 263 717 252 737 229 738 c 0
 198 738 150 689 86 592 c 1
 38 623 l 1
 67 699 110 765 166 819 c 128
 222 873 277 900 332 900 c 0
 397 900 430 857 428 770 c 0
 428 743 420 673 402 561 c 2
 374 385 l 1
 364 328 360 281 360 242 c 128
 360 203 363 179 372 167 c 128
 381 155 395 150 415 150 c 0
 463 150 506 179 545 237 c 1
 584 296 619 393 650 527 c 1
 652 668 664 764 687 817 c 1
779 1193 m 128
 797 1178 805 1160 805 1138 c 128
 805 1116 797 1099 779 1083 c 128
 761 1067 742 1060 719 1060 c 128
 696 1060 677 1067 661 1083 c 128
 645 1099 637 1117 637 1139 c 128
 637 1161 645 1179 661 1194 c 128
 677 1209 696 1215 719 1215 c 128
 742 1215 761 1208 779 1193 c 128
517 1193 m 128
 534 1178 542 1160 542 1138 c 128
 542 1116 534 1098 517 1083 c 128
 500 1068 481 1060 458 1060 c 128
 435 1060 415 1067 398 1083 c 128
 381 1099 374 1117 374 1139 c 128
 374 1161 381 1179 398 1194 c 128
 415 1209 435 1215 458 1215 c 128
 481 1215 500 1208 517 1193 c 128
EndSplineSet
Colour: ffffff
EndChar

StartChar: yacute
Encoding: 189 253 188
Width: 906
VWidth: 1655
GlyphClass: 2
Flags: HMW
LayerCount: 2
Fore
SplineSet
87 592 m 1
 38 629 l 1
 63 700 100 764 152 819 c 128
 204 874 255 902 303 902 c 128
 351 902 387 885 412 852 c 128
 437 819 454 766 464 693 c 2
 525 205 l 1
 530 162 l 1
 539 162 l 1
 615 276 661 354 676 395 c 128
 691 436 699 467 702 490 c 128
 705 513 706 545 706 585 c 128
 706 625 692 671 665 723 c 128
 638 775 606 817 571 848 c 1
 584 864 602 877 626 889 c 128
 650 901 674 906 697 906 c 0
 742 906 780 886 813 846 c 128
 846 806 862 760 862 707 c 0
 862 616 837 524 788 429 c 128
 739 334 653 206 529 46 c 1
 516 -73 476 -174 410 -257 c 128
 344 -340 267 -381 180 -381 c 0
 142 -381 110 -370 82 -349 c 128
 54 -328 40 -302 40 -270 c 2
 40 -265 l 1
 43 -236 48 -213 57 -195 c 128
 66 -177 82 -160 105 -141 c 1
 156 -189 207 -213 256 -212 c 128
 305 -211 341 -198 364 -170 c 128
 387 -142 399 -93 399 -24 c 0
 399 13 396 57 389 109 c 2
 325 610 l 2
 319 652 309 685 291 710 c 128
 273 735 254 748 233 748 c 128
 212 748 190 733 163 703 c 128
 136 673 110 635 87 592 c 1
759 1336 m 1
 580 1026 l 1
 530 1057 l 1
 650 1375 l 1
 759 1336 l 1
EndSplineSet
Colour: ffffff
EndChar

StartChar: thorn
Encoding: 190 254 189
Width: 964
VWidth: 1655
GlyphClass: 2
Flags: HMW
LayerCount: 2
Back
SplineSet
164 -251 m 1
 309 887 l 1
 345 1145 l 1
 206 1171 l 1
 217 1246 l 1
 505 1269 l 1
 522 1248 l 1
 464 839 l 1
 396 560 l 1
 408 558 l 1
 445 652 488 730 539 791 c 128
 590 852 643 882 699 882 c 128
 755 882 801 852 838 790 c 128
 875 728 894 646 894 545 c 128
 894 444 879 355 850 278 c 128
 821 201 780 142 729 103 c 0
 632 27 522 -11 401 -13 c 1
 391 61 l 1
 433 66 466 71 491 79 c 128
 516 87 544 99 576 119 c 0
 608 139 633 164 653 195 c 0
 699 268 722 378 722 527 c 0
 722 596 715 645 702 676 c 128
 689 707 668 722 637 722 c 0
 586 722 533 673 480 574 c 1
 426 473 390 341 371 179 c 1
 308 -270 l 1
 490 -291 l 1
 473 -362 l 1
 13 -362 l 1
 32 -293 l 1
 164 -251 l 1
EndSplineSet
Fore
SplineSet
189 -251 m 1
 334 887 l 1
 374 1175 l 1
 235 1201 l 1
 246 1276 l 1
 534 1299 l 1
 551 1278 l 1
 489 839 l 1
 421 560 l 1
 433 558 l 1
 470 652 513 730 564 791 c 128
 615 852 668 882 724 882 c 128
 780 882 826 852 863 790 c 128
 900 728 919 646 919 545 c 128
 919 444 904 355 875 278 c 128
 846 201 805 142 754 103 c 0
 657 27 547 -11 426 -13 c 1
 416 61 l 1
 458 66 491 71 516 79 c 128
 541 87 569 99 601 119 c 0
 633 139 658 164 678 195 c 0
 724 268 747 378 747 527 c 0
 747 596 740 645 727 676 c 128
 714 707 693 722 662 722 c 0
 611 722 558 673 505 574 c 1
 451 473 415 341 396 179 c 1
 333 -270 l 1
 515 -291 l 1
 498 -362 l 1
 38 -362 l 1
 57 -293 l 1
 189 -251 l 1
EndSplineSet
Colour: ffffff
EndChar

StartChar: ydieresis
Encoding: 191 255 190
Width: 906
VWidth: 1655
GlyphClass: 2
Flags: HMW
LayerCount: 2
Fore
SplineSet
87 592 m 1
 38 629 l 1
 63 700 100 764 152 819 c 128
 204 874 255 902 303 902 c 128
 351 902 387 885 412 852 c 128
 437 819 454 766 464 693 c 2
 525 205 l 1
 530 162 l 1
 539 162 l 1
 615 276 661 354 676 395 c 128
 691 436 699 467 702 490 c 128
 705 513 706 545 706 585 c 128
 706 625 692 671 665 723 c 128
 638 775 606 817 571 848 c 1
 584 864 602 877 626 889 c 128
 650 901 674 906 697 906 c 0
 742 906 780 886 813 846 c 128
 846 806 862 760 862 707 c 0
 862 616 837 524 788 429 c 128
 739 334 653 206 529 46 c 1
 516 -73 476 -174 410 -257 c 128
 344 -340 267 -381 180 -381 c 0
 142 -381 110 -370 82 -349 c 128
 54 -328 40 -302 40 -270 c 2
 40 -265 l 1
 43 -236 48 -213 57 -195 c 128
 66 -177 82 -160 105 -141 c 1
 156 -189 207 -213 256 -212 c 128
 305 -211 341 -198 364 -170 c 128
 387 -142 399 -93 399 -24 c 0
 399 13 396 57 389 109 c 2
 325 610 l 2
 319 652 309 685 291 710 c 128
 273 735 254 748 233 748 c 128
 212 748 190 733 163 703 c 128
 136 673 110 635 87 592 c 1
730 1193 m 128
 747 1178 754 1160 754 1138 c 128
 754 1116 747 1099 730 1083 c 128
 713 1067 693 1060 670 1060 c 128
 647 1060 627 1067 611 1083 c 128
 595 1099 587 1117 587 1139 c 128
 587 1161 595 1179 611 1194 c 128
 627 1209 647 1215 670 1215 c 128
 693 1215 713 1208 730 1193 c 128
467 1193 m 128
 484 1178 491 1160 491 1138 c 128
 491 1116 484 1098 467 1083 c 128
 450 1068 430 1060 407 1060 c 128
 384 1060 365 1067 349 1083 c 128
 333 1099 325 1117 325 1139 c 128
 325 1161 333 1179 349 1194 c 128
 365 1209 384 1215 407 1215 c 128
 430 1215 450 1208 467 1193 c 128
EndSplineSet
Colour: ffffff
EndChar

StartChar: circumflex
Encoding: 192 710 191
Width: 524
VWidth: 1655
GlyphClass: 2
Flags: HMW
LayerCount: 2
Fore
SplineSet
283 1548 m 1
 459 1367 l 1
 410 1332 l 1
 250 1438 l 1
 240 1438 l 1
 102 1331 l 1
 65 1359 l 1
 231 1536 l 1
 283 1548 l 1
EndSplineSet
Colour: ffffff
EndChar

StartChar: dotaccent
Encoding: 193 729 192
Width: 366
VWidth: 1655
GlyphClass: 2
Flags: HMW
LayerCount: 2
Fore
SplineSet
266 1527 m 128
 289 1506 301 1480 301 1448 c 128
 301 1416 289 1387 266 1364 c 128
 243 1341 215 1329 182 1329 c 128
 149 1329 122 1341 99 1364 c 128
 76 1387 65 1415 65 1448 c 128
 65 1481 77 1507 100 1528 c 128
 123 1549 150 1559 182 1559 c 128
 214 1559 243 1548 266 1527 c 128
EndSplineSet
Colour: ffffff
EndChar

StartChar: ring
Encoding: 194 730 193
Width: 448
VWidth: 1655
GlyphClass: 2
Flags: HMW
LayerCount: 2
Fore
SplineSet
158 1586 m 128
 142 1565 135 1538 135 1505 c 128
 135 1472 143 1444 161 1419 c 128
 179 1394 201 1382 229 1382 c 0
 285 1382 313 1419 313 1494 c 0
 313 1529 304 1558 286 1582 c 128
 268 1606 247 1617 221 1617 c 128
 195 1617 174 1607 158 1586 c 128
341 1620 m 128
 369 1590 383 1551 383 1505 c 128
 383 1459 368 1419 336 1386 c 128
 304 1353 265 1336 219 1336 c 128
 173 1336 135 1350 107 1379 c 128
 79 1408 65 1446 65 1493 c 128
 65 1540 81 1580 114 1614 c 128
 147 1648 186 1665 231 1665 c 128
 276 1665 313 1650 341 1620 c 128
EndSplineSet
Colour: ffffff
EndChar

StartChar: tilde
Encoding: 195 732 194
Width: 589
VWidth: 1655
GlyphClass: 2
Flags: HMW
LayerCount: 2
Fore
SplineSet
162 1389 m 2
 145 1389 126 1373 103 1342 c 1
 66 1351 l 1
 68 1358 71 1367 75 1381 c 128
 79 1395 87 1412 100 1432 c 0
 125 1471 153 1491 186 1492 c 2
 193 1492 l 1
 195 1490 197 1490 199 1490 c 2
 417 1461 l 1
 421 1461 l 2
 435 1461 453 1474 475 1501 c 1
 523 1500 l 1
 492 1406 449 1359 395 1359 c 2
 384 1359 l 1
 165 1389 l 1
 162 1389 l 2
EndSplineSet
Colour: ffffff
EndChar

StartChar: Germandbls
Encoding: 196 7838 195
Width: 1426
VWidth: 1655
GlyphClass: 2
Flags: HMW
LayerCount: 2
Fore
SplineSet
813 369 m 1
 793 317 782 271 783 232 c 128
 784 193 789 164 800 144 c 1
 809 122 825 103 848 86 c 0
 884 60 922 47 962 47 c 128
 1002 47 1036 57 1067 78 c 0
 1119 113 1145 160 1145 220 c 0
 1145 268 1134 308 1111 341 c 128
 1088 374 1038 428 961 502 c 128
 884 576 829 631 798 667 c 128
 767 703 744 738 729 770 c 128
 714 802 706 839 706 882 c 2
 706 893 l 1
 708 939 720 981 742 1020 c 1
 780 1090 838 1142 915 1176 c 1
 915 1184 l 1
 901 1184 l 2
 815 1184 744 1160 687 1113 c 128
 630 1066 591 1005 570 931 c 1
 561 902 556 871 552 838 c 1
 448 -2 l 1
 38 -2 l 1
 61 80 l 1
 279 134 l 1
 360 771 l 1
 372 844 381 896 390 926 c 128
 399 956 414 988 436 1022 c 0
 515 1146 660 1221 869 1246 c 1
 900 1251 944 1253 1001 1252 c 128
 1058 1251 1112 1245 1163 1230 c 128
 1214 1215 1258 1194 1296 1163 c 1
 1331 1132 1353 1100 1365 1068 c 128
 1377 1036 1382 1010 1382 992 c 0
 1382 923 1361 873 1318 841 c 0
 1289 819 1259 808 1229 809 c 128
 1199 810 1170 816 1143 830 c 1
 1169 902 1182 958 1182 999 c 128
 1182 1040 1179 1069 1172 1086 c 128
 1165 1103 1153 1119 1133 1136 c 128
 1113 1153 1095 1162 1077 1164 c 1
 1073 1166 1068 1166 1059 1166 c 0
 1020 1166 986 1150 955 1117 c 1
 924 1086 905 1045 897 994 c 1
 893 978 892 963 892 948 c 128
 892 933 894 912 899 886 c 128
 904 860 911 839 922 821 c 0
 938 795 981 749 1052 683 c 128
 1123 617 1166 576 1182 561 c 0
 1225 520 1260 477 1287 432 c 0
 1321 377 1338 319 1338 258 c 128
 1338 197 1315 140 1268 88 c 1
 1239 54 1203 26 1160 3 c 0
 1084 -36 1003 -55 917 -56 c 0
 869 -56 818 -49 764 -33 c 1
 681 -6 621 39 585 101 c 1
 569 130 560 150 558 162 c 128
 556 174 555 184 555 195 c 0
 555 246 572 288 606 320 c 1
 642 359 690 378 749 378 c 0
 770 379 792 376 813 369 c 1
EndSplineSet
Colour: ffffff
EndChar

StartChar: endash
Encoding: 197 8211 196
Width: 714
VWidth: 1655
GlyphClass: 2
Flags: HMW
LayerCount: 2
Fore
SplineSet
66 504 m 1
 664 510 l 1
 648 408 l 1
 49 401 l 1
 66 504 l 1
EndSplineSet
Colour: ffffff
EndChar

StartChar: emdash
Encoding: 198 8212 197
Width: 1212
VWidth: 1655
GlyphClass: 2
Flags: HMW
LayerCount: 2
Fore
SplineSet
66 504 m 1
 1162 510 l 1
 1146 408 l 1
 49 401 l 1
 66 504 l 1
EndSplineSet
Colour: ffffff
EndChar

StartChar: quoteleft
Encoding: 199 8216 198
Width: 422
VWidth: 1655
GlyphClass: 2
Flags: HMW
LayerCount: 2
Fore
SplineSet
188 801 m 2
 173 801 l 1
 121 807 84 840 61 900 c 0
 51 924 47 948 46 971 c 0
 46 1072 96 1160 196 1236 c 1
 240 1272 289 1304 344 1331 c 1
 377 1278 l 1
 318 1247 276 1214 251 1176 c 128
 226 1138 214 1101 214 1066 c 0
 214 1064 216 1053 220 1031 c 128
 224 1009 234 987 254 964 c 128
 274 941 297 924 322 911 c 1
 312 875 295 848 268 829 c 128
 241 810 215 801 188 801 c 2
EndSplineSet
Colour: ffffff
EndChar

StartChar: quoteright
Encoding: 200 8217 199
Width: 421
VWidth: 1655
GlyphClass: 2
Flags: HMW
LayerCount: 2
Fore
SplineSet
236 1324 m 2
 249 1324 l 1
 301 1317 339 1284 362 1224 c 0
 372 1200 376 1177 376 1154 c 0
 377 1053 327 965 228 888 c 1
 184 852 134 821 78 794 c 1
 45 846 l 1
 104 877 145 911 171 949 c 128
 197 987 210 1023 210 1058 c 0
 210 1060 208 1071 204 1093 c 128
 200 1115 188 1138 168 1160 c 128
 148 1182 126 1199 101 1213 c 1
 111 1249 128 1277 155 1296 c 128
 182 1315 209 1324 236 1324 c 2
EndSplineSet
Colour: ffffff
EndChar

StartChar: quotesinglbase
Encoding: 201 8218 200
Width: 427
VWidth: 1655
GlyphClass: 2
Flags: HMW
LayerCount: 2
Fore
SplineSet
239 228 m 2
 252 228 l 1
 304 221 341 188 363 127 c 0
 373 101 376 77 377 54 c 128
 378 31 377 13 374 0 c 0
 360 -75 312 -144 229 -209 c 1
 185 -245 135 -276 80 -303 c 1
 48 -251 l 1
 107 -220 149 -186 174 -149 c 128
 199 -112 211 -75 211 -38 c 0
 211 -29 209 -17 205 0 c 128
 201 17 188 38 166 63 c 128
 144 88 124 105 103 116 c 1
 113 152 131 179 158 199 c 128
 185 219 212 228 239 228 c 2
EndSplineSet
Colour: ffffff
EndChar

StartChar: quotedblleft
Encoding: 202 8220 201
Width: 756
VWidth: 1655
GlyphClass: 2
Flags: HMW
LayerCount: 2
Fore
SplineSet
522 801 m 2
 508 801 l 1
 456 807 419 840 397 900 c 0
 387 924 383 948 382 971 c 0
 382 1072 431 1160 530 1236 c 1
 574 1272 624 1304 679 1331 c 1
 711 1278 l 1
 652 1247 611 1214 586 1176 c 128
 561 1138 548 1101 548 1066 c 0
 548 1064 550 1053 555 1031 c 128
 560 1009 571 987 591 964 c 128
 611 941 632 924 657 911 c 1
 647 875 630 848 603 829 c 128
 576 810 549 801 522 801 c 2
188 801 m 2
 173 801 l 1
 121 807 84 840 61 900 c 0
 51 924 47 948 46 971 c 0
 46 1072 96 1160 196 1236 c 1
 240 1272 289 1304 344 1331 c 1
 377 1278 l 1
 318 1247 276 1214 251 1176 c 128
 226 1138 214 1101 214 1066 c 0
 214 1064 216 1053 220 1031 c 128
 224 1009 234 987 254 964 c 128
 274 941 297 924 322 911 c 1
 312 875 295 848 268 829 c 128
 241 810 215 801 188 801 c 2
EndSplineSet
Colour: ffffff
EndChar

StartChar: quotedblright
Encoding: 203 8221 202
Width: 748
VWidth: 1655
GlyphClass: 2
Flags: HMW
LayerCount: 2
Fore
SplineSet
562 1324 m 2
 577 1324 l 1
 629 1317 666 1284 688 1224 c 0
 698 1200 702 1177 703 1154 c 0
 703 1053 653 965 554 888 c 1
 510 852 461 821 406 794 c 1
 373 846 l 1
 432 877 474 911 499 949 c 128
 524 987 536 1023 536 1058 c 0
 536 1060 534 1071 530 1093 c 128
 526 1115 515 1138 495 1160 c 128
 475 1182 453 1199 429 1213 c 1
 439 1249 457 1277 483 1296 c 128
 509 1315 535 1324 562 1324 c 2
236 1324 m 2
 249 1324 l 1
 301 1317 339 1284 362 1224 c 0
 372 1200 376 1177 376 1154 c 0
 377 1053 327 965 228 888 c 1
 184 852 134 821 78 794 c 1
 45 846 l 1
 104 877 145 911 171 949 c 128
 197 987 210 1023 210 1058 c 0
 210 1060 208 1071 204 1093 c 128
 200 1115 188 1138 168 1160 c 128
 148 1182 126 1199 101 1213 c 1
 111 1249 128 1277 155 1296 c 128
 182 1315 209 1324 236 1324 c 2
EndSplineSet
Colour: ffffff
EndChar

StartChar: dagger
Encoding: 204 8224 203
Width: 808
VWidth: 1655
GlyphClass: 2
Flags: HMW
LayerCount: 2
Fore
SplineSet
466 802 m 1
 766 811 l 1
 743 691 l 1
 452 702 l 1
 337 -355 l 1
 196 -343 l 1
 339 704 l 1
 42 698 l 1
 63 811 l 1
 352 802 l 1
 396 1229 l 1
 526 1218 l 1
 466 802 l 1
EndSplineSet
Colour: ffffff
EndChar

StartChar: daggerdbl
Encoding: 205 8225 204
Width: 874
VWidth: 1655
GlyphClass: 2
Flags: HMW
LayerCount: 2
Fore
SplineSet
478 421 m 1
 450 170 l 1
 756 176 l 1
 737 63 l 1
 437 72 l 1
 394 -355 l 1
 264 -344 l 1
 324 72 l 1
 42 63 l 1
 63 183 l 1
 337 171 l 1
 384 489 l 1
 406 704 l 1
 111 698 l 1
 132 811 l 1
 420 802 l 1
 463 1229 l 1
 593 1218 l 1
 533 802 l 1
 832 811 l 1
 809 691 l 1
 520 702 l 1
 478 421 l 1
EndSplineSet
Colour: ffffff
EndChar

StartChar: guilsinglleft
Encoding: 206 8249 205
Width: 441
VWidth: 1655
GlyphClass: 2
Flags: HMW
LayerCount: 2
Fore
SplineSet
46 460 m 1
 362 804 l 1
 398 745 l 1
 189 451 l 1
 304 137 l 1
 241 77 l 1
 44 440 l 1
 46 460 l 1
EndSplineSet
Colour: ffffff
EndChar

StartChar: guilsinglright
Encoding: 207 8250 206
Width: 447
VWidth: 1655
GlyphClass: 2
Flags: HMW
LayerCount: 2
Fore
SplineSet
403 460 m 1
 399 440 l 1
 84 77 l 1
 43 137 l 1
 258 451 l 1
 143 745 l 1
 195 804 l 1
 403 460 l 1
EndSplineSet
Colour: ffffff
EndChar

StartChar: Euro
Encoding: 208 8364 207
Width: 1181
VWidth: 1655
GlyphClass: 2
Flags: HMW
LayerCount: 2
Fore
SplineSet
946 385 m 1
 1032 398 l 1
 1027 108 l 1
 960 59 896 26 836 6 c 128
 776 -14 706 -24 625 -24 c 0
 481 -24 364 20 275 109 c 128
 186 198 142 319 142 472 c 2
 142 476 l 1
 42 476 l 1
 73 579 l 1
 149 579 l 1
 155 618 158 641 160 648 c 1
 70 648 l 1
 101 750 l 1
 188 750 l 1
 233 884 304 997 402 1090 c 0
 454 1139 517 1177 591 1204 c 128
 665 1231 743 1245 828 1245 c 0
 957 1245 1060 1212 1139 1145 c 1
 1068 820 l 1
 983 834 l 1
 969 1048 l 1
 946 1084 918 1110 888 1126 c 128
 858 1142 815 1150 760 1150 c 0
 670 1150 592 1115 526 1045 c 128
 460 975 413 876 385 750 c 1
 919 750 l 1
 877 648 l 1
 367 648 l 1
 367 646 l 1
 362 619 360 597 360 579 c 1
 853 579 l 1
 811 476 l 1
 358 476 l 1
 362 350 394 253 452 185 c 128
 510 117 588 83 686 83 c 0
 764 83 828 112 879 170 c 1
 946 385 l 1
EndSplineSet
Colour: ffffff
EndChar

StartChar: A.alt
Encoding: 211 -1 208
Width: 1446
VWidth: 1655
GlyphClass: 2
Flags: HMW
LayerCount: 2
Fore
SplineSet
698 537 m 1
 961 505 l 1
 872 1062 l 1
 868 1062 l 1
 832 934 797 819 762 716 c 1
 698 537 l 1
1016 1271 m 1
 1225 132 l 1
 1402 81 l 1
 1381 0 l 1
 804 0 l 1
 826 72 l 1
 1023 108 l 1
 973 432 l 1
 661 446 l 1
 588.412 261.506 448.588 -46.0762 241 -49 c 0
 129.705 -49 46.792 24.0859 38 123 c 1
 291.175 171.688 476.344 323.178 590 538 c 0
 659.1 667.137 779.312 988.083 836 1241 c 1
 1016 1271 l 1
EndSplineSet
Colour: ffffff
EndChar

StartChar: eight.osf
Encoding: 212 -1 209
Width: 854
VWidth: 0
Flags: HMW
LayerCount: 2
Fore
SplineSet
322.185 589 m 1
 323.61 598 l 1
 264.123 637.048 194.881 738.861 194.881 852.689 c 0
 194.881 1050.9 373.095 1201 555.116 1201 c 0
 709.371 1201 810.933 1114.94 810.933 988.262 c 0
 810.933 837.807 731.278 726.044 594.055 635 c 1
 592.629 626 l 1
 707.47 546.219 762.537 449.893 762.537 346.153 c 0
 762.537 125.719 583.539 -27 344.62 -27 c 0
 182.049 -27 42 63.5547 42 216.386 c 0
 42 372 163.896 504 322.185 589 c 1
212.693 271.465 m 0
 212.693 142 291.92 66 384.35 66 c 0
 494.776 66 595.864 121.341 595.864 269.176 c 0
 595.864 367.16 497.088 461.51 375.8 545 c 1
 291.896 504 212.693 398.431 212.693 271.465 c 0
358.67 949.405 m 0
 358.67 852.714 417.362 746.819 530.965 676 c 1
 579.132 721.122 657.234 799.6 657.234 944.094 c 0
 657.234 1034.37 615.258 1124 525.921 1124 c 0
 434.636 1124 358.67 1052.69 358.67 949.405 c 0
EndSplineSet
Colour: ffffff
EndChar

StartChar: five.osf
Encoding: 213 -1 210
Width: 953
VWidth: 0
Flags: HMW
LayerCount: 2
Fore
SplineSet
198 29 m 1
 192.368 -86.7236 228.973 -216 381.395 -216 c 0
 517.88 -216 637 -132.869 637 95 c 0
 637 243.445 511.556 374.214 257.493 376 c 1
 460.952 904 l 1
 685 908.571 829 942.857 911.288 984 c 1
 914.719 964.354 916.369 946.406 916.369 930.021 c 0
 916.369 786.263 823.791 752.071 696.957 752.071 c 0
 635.663 752.071 568.398 757.482 498.828 764 c 1
 413.301 520 l 1
 716.337 511.935 823 340.527 823 149 c 0
 823 -93.2744 592.493 -297 328.981 -297 c 0
 123.408 -297 25 -211 25 -121 c 0
 25 0 132.708 18.543 198 29 c 1
EndSplineSet
Colour: ffffff
EndChar

StartChar: four.osf
Encoding: 214 -1 211
Width: 1027
VWidth: 0
Flags: HMW
LayerCount: 2
Fore
SplineSet
42 164 m 1
 799.192 986 l 1
 861.342 968 l 1
 836.494 849 795.115 613 766.447 432 c 2
 731.444 211 l 1
 985.444 211 l 1
 948.646 86 l 1
 713.646 86 l 1
 654.736 -277 l 5
 476.877 -304 l 1
 539.121 89 l 1
 53.1221 89 l 1
 42 164 l 1
227.444 211 m 1
 557.444 211 l 1
 631.094 676 l 1
 227.444 211 l 1
EndSplineSet
Colour: ffffff
EndChar

StartChar: nine.osf
Encoding: 215 -1 212
Width: 830
VWidth: 0
Flags: HMW
LayerCount: 2
Fore
SplineSet
493.894 972 m 0
 709.921 972 786.713 805.591 786.713 623.612 c 0
 786.713 202.656 427.871 -168.857 53.2803 -282 c 1
 42 -208 l 1
 353.64 -84 471.944 132 543.479 319 c 1
 531.479 319 l 1
 471.866 252 387.373 230 300.373 230 c 0
 137.419 230 58.3945 338.898 58.3945 500.695 c 0
 58.3945 779.016 270.851 972 493.894 972 c 0
245.135 526.874 m 0
 245.135 412.444 291.021 338 390.479 338 c 0
 460.479 338 528.18 374 567.1 424 c 1
 592.208 499.565 603.993 574.051 603.993 658.681 c 0
 603.993 785.552 559.652 891 466.064 891 c 0
 348.049 891 245.135 755.071 245.135 526.874 c 0
EndSplineSet
Colour: ffffff
EndChar

StartChar: one.osf
Encoding: 216 -1 213
Width: 647
VWidth: 0
Flags: HMW
LayerCount: 2
Fore
SplineSet
42 0 m 1
 62.7207 74 l 1
 254.164 121 l 1
 362.024 802 l 1
 169.499 802 l 1
 190.695 882 l 1
 487.416 956 l 1
 555.416 956 l 1
 421.056 114 l 1
 604.671 80 l 1
 582 0 l 1
 42 0 l 1
EndSplineSet
Colour: ffffff
EndChar

StartChar: seven.osf
Encoding: 217 -1 214
Width: 827
VWidth: 0
Flags: HMW
LayerCount: 2
Back
SplineSet
373 238 m 0
 334 155 315 70 315 -17 c 128
 315 -104 346 -182 408 -250 c 1
 390 -273 365 -290 331 -302 c 1
 321 -307 308 -309 292 -309 c 128
 276 -309 256 -305 230 -297 c 128
 204 -289 179 -271 156 -241 c 128
 133 -211 121 -179 117 -146 c 128
 113 -113 111 -89 111 -71 c 0
 111 -30 133 36 176 128 c 1
 222 216 291 320 383 439 c 2
 603 723 l 1
 487 719 380 714 281 706 c 128
 182 698 126 694 111 691 c 1
 45 531 l 1
 -30 552 l 1
 4 843 l 1
 20 845 77 848 179 854 c 128
 281 860 368 862 439 862 c 1
 794 849 l 1
 791 791 l 1
 557 513 l 2
 473 412 412 320 373 238 c 0
EndSplineSet
Fore
SplineSet
93.0596 666 m 1
 125.673 965 l 1
 378.386 976.673 562 961 783.673 945 c 1
 781.627 850 l 1
 598.387 608.692 138.834 53.6836 431 -257 c 1
 391.602 -292.68 359.182 -307.943 318.137 -307.943 c 0
 210 -307.943 136 -212.947 136 -103 c 0
 136 83.6201 390.734 466.96 640.49 796 c 1
 496.446 808 341.161 799 222.49 786 c 1
 169 646 l 1
 93.0596 666 l 1
EndSplineSet
Colour: ffffff
EndChar

StartChar: six.osf
Encoding: 218 -1 215
Width: 839
VWidth: 0
Flags: HMW
LayerCount: 2
Fore
SplineSet
771.062 1229 m 1
 796.875 1171 l 1
 517.027 1052 359.649 816 288.289 618 c 1
 298.289 618 l 1
 367.059 686 455.761 722 537.762 722 c 0
 692.114 722 775.058 592.966 775.058 442.061 c 0
 775.058 177.824 546.68 -21 330.081 -21 c 0
 119.255 -21 42 160.069 42 340.553 c 0
 42 759.062 414.794 1118.93 771.062 1229 c 1
234.825 306.292 m 0
 234.825 182.31 270.792 61 360.068 61 c 0
 490.861 61 580.953 218.141 580.953 407.774 c 0
 580.953 508.341 549.033 615 441.812 615 c 0
 367.812 615 301.688 570 271.984 534 c 1
 253.485 459.795 234.825 393.72 234.825 306.292 c 0
EndSplineSet
Colour: ffffff
EndChar

StartChar: three.osf
Encoding: 219 -1 216
Width: 888
VWidth: 0
Flags: HMW
LayerCount: 2
Fore
SplineSet
189.154 -9 m 1
 198.154 -96 240.154 -204 333.154 -204 c 0
 526.921 -204 596.276 -71.6465 596.276 72.6641 c 0
 596.276 186.051 494.526 308.56 329.145 313 c 1
 319.757 380 l 1
 459.65 422.332 650.67 540 650.67 701.953 c 0
 650.67 770.546 622.115 857 547.89 857 c 0
 439.89 857 375.961 788 324.707 698 c 1
 250.983 725 l 1
 286.613 830 449.113 991 627.113 991 c 0
 761.992 991 845.85 875.627 845.85 754.057 c 0
 845.85 566.959 660.005 453.062 558.408 412 c 1
 556.666 401 l 1
 688.782 385.753 793.128 269.154 793.128 131.281 c 0
 793.128 -95.9727 544.787 -297 290.114 -297 c 0
 126.869 -297 42 -213.626 42 -151.289 c 0
 42 -92.3799 103.114 -17.168 189.154 -9 c 1
EndSplineSet
Colour: ffffff
EndChar

StartChar: two.osf
Encoding: 220 -1 217
Width: 855
VWidth: 0
Flags: HMW
LayerCount: 2
Fore
SplineSet
51.1553 102 m 5
 361 288 601.326 444 601.326 698.212 c 4
 601.326 796.606 553.67 867 475.319 867 c 4
 389.319 867 284.856 782 234.909 675 c 5
 164.503 704 l 5
 195.708 800 360.325 987 568.959 991 c 4
 571.043 991.033 573.113 991.049 575.17 991.049 c 4
 736.955 991.049 812.468 869.392 812.97 739.958 c 4
 814 474 502 297 262.282 147 c 5
 633.282 147 l 5
 735.674 301 l 5
 805.248 292 l 5
 705 0 l 5
 42 0 l 5
 51.1553 102 l 5
EndSplineSet
Colour: ffffff
EndChar

StartChar: zero.osf
Encoding: 221 -1 218
Width: 882
VWidth: 0
Flags: HMW
LayerCount: 2
Fore
SplineSet
519.226 985.012 m 1
 521.98 985 l 0
 730.121 982.436 838.53 838.654 838.53 619.194 c 4
 838.53 234.553 576.738 -23 361.328 -23 c 0
 185.995 -23 43 95.0791 43 347.967 c 0
 43 673.971 264.829 985.012 519.226 985.012 c 1
234.239 320.578 m 0
 234.239 138.032 300.704 71 377.216 71 c 0
 506.554 71 650.469 292.944 650.469 644.956 c 0
 650.469 825.256 584.141 900 507.517 900 c 0
 376.067 900 234.239 672.917 234.239 320.578 c 0
EndSplineSet
Colour: ffffff
EndChar

StartChar: uniF001
Encoding: 209 61441 219
Width: 1390
VWidth: 1655
Flags: HMW
LayerCount: 2
Back
SplineSet
35 0 m 1
 47 73 l 1
 199 116 l 1
 199 784 l 1
 50 784 l 1
 62 857 l 1
 200 879 l 1
 233 1167 423 1304 565 1304 c 0
 670 1304 746 1269 746 1189 c 0
 746 1140 690 1090 657 1077 c 1
 608 1156 550 1198 494 1198 c 0
 420 1198 370 1153 368 981 c 2
 366 873 l 1
 623 873 l 1
 611 784 l 1
 366 784 l 1
 366 121 l 1
 611 83 l 1
 604 0 l 1
 35 0 l 1
658 0 m 1
 670 79 l 1
 821 116 l 1
 821 731 l 1
 670 786 l 1
 683 862 l 1
 964 885 l 1
 989 860 l 1
 989 116 l 1
 1149 80 l 1
 1137 0 l 1
 658 0 l 1
777 1194 m 0
 777 1258 833 1306 895 1306 c 0
 961 1306 1019 1256 1019 1192 c 0
 1019 1125 961 1070 895 1070 c 0
 829 1070 777 1127 777 1194 c 0
EndSplineSet
Fore
SplineSet
186 -381 m 0
 100.089 -381 48.2178 -333.839 42 -253 c 1
 42 -204.169 72.8262 -158.516 101 -132 c 1
 167 -196 234 -228 302 -228 c 0
 443 -228 421 0 440 313 c 2
 468 775 l 1
 360 766 l 1
 372 871 l 1
 480 855 l 1
 493 925 l 2
 530.615 1113.24 704.216 1299 941 1299 c 0
 1034.5 1299 1120 1246.57 1120 1163 c 0
 1120 1104.34 1085.84 1064.35 1046 1039 c 1
 1014.79 1104.27 949.071 1164 839 1164 c 0
 651.938 1164 644.25 1023.64 634 850 c 1
 674.536 868.579 912 900.693 1009.26 900.693 c 0
 1112.79 900.693 1162 892 1162 756 c 0
 1162 748 1157 692 1145 569 c 1
 1117 254 l 1
 1113 225 1112 201 1112 181 c 0
 1112 142 1123 123 1146 123 c 0
 1211.28 123 1278.68 195.456 1306 246 c 1
 1348 217 l 1
 1288 57 1192 -23 1060 -23 c 0
 979.959 -23 947 30.3711 947 108 c 0
 947 145 951 208 960 296 c 1
 996 601 l 2
 999.081 627.957 1001.3 650.532 1001.3 669.329 c 0
 1001.3 754.453 965 755 864.223 765.665 c 0
 798.192 772.653 718.532 775.834 654.092 775.834 c 0
 644.652 775.834 635.532 775.681 626.82 775.342 c 1
 586 178 l 2
 562 -170 458 -381 186 -381 c 0
EndSplineSet
Colour: ffffff
EndChar

StartChar: uniF002
Encoding: 210 61442 220
Width: 1347
VWidth: 1655
Flags: HMW
LayerCount: 2
Back
SplineSet
161 -381 m 0
 75.0889 -381 23.2178 -333.839 17 -253 c 1
 17 -204.169 47.8262 -158.516 76 -132 c 1
 142 -196 209 -228 277 -228 c 0
 418 -228 393.361 0.598633 415 313 c 1
 443 765 l 1
 335 756 l 1
 347 861 l 1
 455 845 l 1
 465 925 l 2
 485 1088 618 1287 831 1287 c 4
 954.077 1287 1006 1220 1038.07 1203.65 c 5
 1068 1210 1103.79 1227.21 1151 1266 c 5
 1166 1245 l 5
 1128.37 967 l 25
 1086 623 l 1
 1046 253 l 2
 1043.49 229.735 1042.02 179.952 1042.02 163.34 c 0
 1042.02 128 1055.97 121 1096 121 c 0
 1177.56 121 1194.02 206.129 1228 266 c 1
 1280 246 l 1
 1246 77 1151 -24 1005 -24 c 0
 936 -24 871 3 871 99 c 0
 871 137 877 216 888 295 c 2
 981.698 1065.8 l 5
 934.006 1111.05 858.676 1152 759 1152 c 4
 613 1152 609 987 609 840 c 1
 839 861 l 1
 820 750 l 1
 603 761 l 1
 561 178 l 2
 536 -170 433 -381 161 -381 c 0
641 0 m 1
 653 79 l 1
 805 116 l 1
 805 1117 l 1
 648 1171 l 1
 660 1247 l 1
 947 1269 l 1
 972 1245 l 1
 972 116 l 1
 1131 80 l 1
 1120 0 l 1
 641 0 l 1
35 0 m 1
 47 73 l 1
 199 116 l 1
 199 784 l 1
 50 784 l 1
 62 857 l 1
 200 879 l 1
 203 1153 401 1302 494 1302 c 0
 581 1302 638 1281 638 1214 c 0
 638 1174 604 1136 574 1120 c 1
 550 1147 476 1185 432 1185 c 0
 370 1185 359 1065 363 948 c 2
 366 873 l 1
 623 873 l 1
 611 784 l 1
 366 784 l 1
 366 121 l 1
 611 83 l 1
 604 0 l 1
 35 0 l 1
EndSplineSet
Fore
SplineSet
186 -381 m 0
 100.089 -381 48.2178 -333.839 42 -253 c 1
 42 -204.169 72.8262 -158.516 101 -132 c 1
 167 -196 234 -228 302 -228 c 0
 443 -228 421 0 440 313 c 2
 468 765 l 1
 360 756 l 1
 372 861 l 1
 480 845 l 1
 490 925 l 2
 509.891 1093.4 642.164 1299 854 1299 c 0
 977.077 1299 1029 1232 1061.07 1215.65 c 1
 1174 1278 l 1
 1189 1257 l 1
 1153.37 967 l 25
 1111 623 l 1
 1071 253 l 2
 1068.49 229.735 1067.02 179.952 1067.02 163.34 c 0
 1067.02 128 1080.97 121 1121 121 c 0
 1202.56 121 1219.02 206.129 1253 266 c 1
 1305 246 l 1
 1271 77 1176 -24 1030 -24 c 0
 961 -24 896 3 896 99 c 0
 896 137 904 216 913 295 c 2
 1004.7 1077.8 l 1
 957.006 1123.05 881.676 1164 782 1164 c 0
 637.947 1164 634 992.654 634 840 c 1
 864 861 l 1
 845 750 l 1
 628 761 l 1
 586 178 l 2
 561 -170 458 -381 186 -381 c 0
EndSplineSet
Colour: ffffff
EndChar

StartChar: OE
Encoding: 222 338 221
Width: 1835
VWidth: 1655
Flags: HW
HStem: -28 148<582.269 846.074> 3 95<1034 1499.86> 9.90759 110.092<636.38 844.638> 569 145<1371.15 1529> 1130 145<594.022 856.452> 1143 109<1163 1592.56>
VStem: 189 209<362.408 797.839> 1625 86<848 908.651> 1642 87<332.552 440>
LayerCount: 2
Back
SplineSet
140.424 619 m 0xa780
 188.574 1009 423.046 1272 817.046 1272 c 0xaf80
 887.046 1272 947.935 1263 998.589 1244 c 1
 1775.59 1244 l 1
 1704.08 924 l 1
 1619.69 937 l 1
 1606.23 1152 l 1
 1137.23 1152 l 1
 1078.46 676 l 1
 1366.46 676 l 1
 1423.28 796 l 1
 1519 810 l 1
 1438.98 421 l 1
 1350.37 408 l 1
 1338.98 583 l 1
 1066.98 583 l 1
 1006.85 96 l 1
 1498.85 96 l 1
 1625.25 326 l 1
 1706.64 313 l 1
 1639 0 l 1
 798 0 l 1x7780
 730.024 -16 659.666 -27 586.666 -27 c 0
 248.666 -27 94.4961 247 140.424 619 c 0xa780
369.462 676 m 0
 337.237 415 382.754 79 642.754 79 c 0
 701.754 79 760.358 92 817.062 122 c 1
 941.02 1126 l 1
 889.094 1159 826.193 1176 756.193 1176 c 0
 538.193 1176 410.699 1010 369.462 676 c 0
EndSplineSet
Fore
SplineSet
432 888 m 0x9a
 409 817 398 734 398 639 c 0
 398 544 411 455 438 375 c 0
 465 295 502 233 552 188 c 0
 602 143 658 120 721 120 c 0
 767.005 120 808.737 130.572 846.407 151.61 c 1
 949.979 994.171 l 1
 931.436 1020.17 910.386 1043.14 887 1063 c 0
 834 1108 773 1130 706 1130 c 0
 639 1130 582 1108 536 1063 c 0
 490 1018 455 959 432 888 c 0x9a
1014.7 1222.04 m 1
 1036.78 1225.87 1063.13 1229.35 1094 1233 c 0
 1239 1246 1372 1252 1494 1252 c 1
 1791 1246 l 1
 1711 835 l 1
 1625 848 l 1x17
 1593 1111 l 1
 1565 1117 l 1
 1470 1136 1347 1145 1196 1143 c 1
 1163 1143 l 1
 1108 680 l 1
 1563 714 l 1
 1529 569 l 1
 1096 578 l 1
 1034 98 l 1
 1251 108 l 1
 1373 115 1457 122 1502 132 c 1
 1525 169 1551 222 1582 292 c 0
 1613 362 1632 415 1642 451 c 1
 1729 440 l 1
 1729 434 l 2
 1729 345 1722 262 1708 182 c 0
 1694 102 1676 41 1652 0 c 1
 1284 2 1077 3 1034 3 c 1x5680
 831.706 9.90723 l 1x3280
 771.22 -15.5918 705.212 -28 633 -28 c 0
 551 -28 475 -4 405 45 c 0
 335 94 282 158 245 238 c 0
 208 318 189 408 189 505 c 0
 189 642 215 769 267 886 c 0
 319 1003 393 1098 488 1169 c 0
 583 1240 692 1275 812 1275 c 0
 886.59 1275 953.79 1257.53 1014.7 1222.04 c 1
EndSplineSet
Colour: ffffff
EndChar

StartChar: oe
Encoding: 223 339 222
Width: 1369
VWidth: 1655
Flags: HW
HStem: -31 134<957.677 1143.26> -21 153<399.5 544.628> 770 125<560.49 749.747> 790 107<1013.91 1165.24>
VStem: 278 154<151.219 467.823> 741.025 159.975<162.375 287> 1173 152<580.982 783.477>
LayerCount: 2
Back
SplineSet
106.596 426 m 0x7c
 144.129 730 353.117 900 576.117 900 c 0
 700.117 900 822.117 819 845.869 736 c 1
 918.117 819 1040.99 899 1178.99 899 c 0
 1323.99 899 1432.78 792 1406.73 581 c 0
 1402.91 550 1385.88 485 1373.68 451 c 1
 890.941 445 l 1
 870.693 281 944.481 93 1125.48 93 c 0
 1195.48 93 1246.47 101 1357.38 157 c 1
 1375.84 104 l 1
 1286.59 21 1160.3 -30 1028.3 -30 c 0xbc
 897.296 -30 812.814 39 754.174 131 c 1
 651.222 18 558.543 -28 437.543 -28 c 0
 173.543 -28 74.8652 169 106.596 426 c 0x7c
294.361 497 m 0
 268.928 291 320.383 76 484.383 76 c 0x7c
 592.383 76 683.915 218 701.324 359 c 0
 725.769 557 693.895 801 522.895 801 c 0
 371.895 801 313.745 654 294.361 497 c 0
902.065 527 m 5
 1218.78 549 l 1
 1224.76 565 1231.96 599 1233.93 615 c 0
 1248.62 734 1213.89 801 1117.89 801 c 0
 1037.89 801 936.018 721 902.065 527 c 5
EndSplineSet
Fore
SplineSet
1173 698 m 0x1e
 1173 760 1146 791 1093 790 c 1
 981 790 917 664 901 414 c 1
 1082 481 1173 576 1173 698 c 0x1e
1281 849 m 0
 1311 817 1325 777 1325 726 c 0
 1325 630 1276 547 1177 477 c 0
 1096 419 1004 374 901 341 c 1
 905 182 958 103 1063 103 c 0
 1140 103 1209 151 1269 246 c 1
 1306 214 l 1
 1283 147 1241 89 1183 41 c 0
 1125 -7 1058 -31 982 -31 c 0x9e
 906 -31 848 -2 805 56 c 0
 762.864 112.835 741.852 189.835 741.025 287 c 1
 733 287 l 1
 698 203 652 131 595 70 c 0
 538 9 482 -21 427 -21 c 0
 372 -21 333 0 311 41 c 0
 289 82 278 143 278 225 c 0
 278 307 297 401 335 505 c 0
 373 609 424 701 488 779 c 0
 552 857 616 895 679 895 c 0x6e
 766.938 895 833.938 842.667 880 738 c 1
 890.305 738 l 1
 910.21 763.54 931.775 786.919 955 808 c 0
 1020 867 1087 897 1158 897 c 0
 1210 897 1251 881 1281 849 c 0
432 288 m 0
 432 229 436 188 445 166 c 0
 454 144 470 132 497 132 c 0
 546 132 601 183 664 285 c 0
 727 387 771 512 797 660 c 1
 787 688 768 713 738 736 c 0
 708 759 678 770 646 770 c 0x6e
 614 770 584 754 554 722 c 0
 524 690 501 648 484 595 c 0
 449 491 432 389 432 288 c 0
EndSplineSet
Colour: ffffff
EndChar

